<?xml version="1.0" encoding="utf-8"?>
<svg xmlns="http://www.w3.org/2000/svg" xmlns:xlink="http://www.w3.org/1999/xlink" width="600" height="400" viewBox="0 0 2400 1600">
<defs>
  <clipPath id="clip710">
    <rect x="0" y="0" width="2400" height="1600"/>
  </clipPath>
</defs>
<path clip-path="url(#clip710)" d="
M0 1600 L2400 1600 L2400 0 L0 0  Z
  " fill="#ffffff" fill-rule="evenodd" fill-opacity="1"/>
<defs>
  <clipPath id="clip711">
    <rect x="480" y="0" width="1681" height="1600"/>
  </clipPath>
</defs>
<path clip-path="url(#clip710)" d="
M493.936 1486.45 L2352.76 1486.45 L2352.76 123.472 L493.936 123.472  Z
  " fill="#ffffff" fill-rule="evenodd" fill-opacity="1"/>
<defs>
  <clipPath id="clip712">
    <rect x="493" y="123" width="1860" height="1364"/>
  </clipPath>
</defs>
<polyline clip-path="url(#clip712)" style="stroke:#000000; stroke-width:2; stroke-opacity:0.1; fill:none" points="
  546.544,1486.45 546.544,123.472 
  "/>
<polyline clip-path="url(#clip712)" style="stroke:#000000; stroke-width:2; stroke-opacity:0.1; fill:none" points="
  1047.57,1486.45 1047.57,123.472 
  "/>
<polyline clip-path="url(#clip712)" style="stroke:#000000; stroke-width:2; stroke-opacity:0.1; fill:none" points="
  1548.6,1486.45 1548.6,123.472 
  "/>
<polyline clip-path="url(#clip712)" style="stroke:#000000; stroke-width:2; stroke-opacity:0.1; fill:none" points="
  2049.63,1486.45 2049.63,123.472 
  "/>
<polyline clip-path="url(#clip710)" style="stroke:#000000; stroke-width:4; stroke-opacity:1; fill:none" points="
  493.936,1486.45 2352.76,1486.45 
  "/>
<polyline clip-path="url(#clip710)" style="stroke:#000000; stroke-width:4; stroke-opacity:1; fill:none" points="
  546.544,1486.45 546.544,1470.09 
  "/>
<polyline clip-path="url(#clip710)" style="stroke:#000000; stroke-width:4; stroke-opacity:1; fill:none" points="
  1047.57,1486.45 1047.57,1470.09 
  "/>
<polyline clip-path="url(#clip710)" style="stroke:#000000; stroke-width:4; stroke-opacity:1; fill:none" points="
  1548.6,1486.45 1548.6,1470.09 
  "/>
<polyline clip-path="url(#clip710)" style="stroke:#000000; stroke-width:4; stroke-opacity:1; fill:none" points="
  2049.63,1486.45 2049.63,1470.09 
  "/>
<path clip-path="url(#clip710)" d="M 0 0 M531.417 1530.71 Q528.083 1530.71 526.162 1532.49 Q524.264 1534.27 524.264 1537.4 Q524.264 1540.52 526.162 1542.31 Q528.083 1544.09 531.417 1544.09 Q534.75 1544.09 536.671 1542.31 Q538.593 1540.5 538.593 1537.4 Q538.593 1534.27 536.671 1532.49 Q534.773 1530.71 531.417 1530.71 M526.741 1528.72 Q523.732 1527.98 522.042 1525.92 Q520.375 1523.86 520.375 1520.89 Q520.375 1516.75 523.315 1514.34 Q526.278 1511.93 531.417 1511.93 Q536.579 1511.93 539.519 1514.34 Q542.458 1516.75 542.458 1520.89 Q542.458 1523.86 540.769 1525.92 Q539.102 1527.98 536.116 1528.72 Q539.495 1529.5 541.37 1531.8 Q543.269 1534.09 543.269 1537.4 Q543.269 1542.42 540.19 1545.11 Q537.134 1547.79 531.417 1547.79 Q525.699 1547.79 522.62 1545.11 Q519.565 1542.42 519.565 1537.4 Q519.565 1534.09 521.463 1531.8 Q523.361 1529.5 526.741 1528.72 M525.028 1521.33 Q525.028 1524.02 526.695 1525.52 Q528.384 1527.03 531.417 1527.03 Q534.426 1527.03 536.116 1525.52 Q537.829 1524.02 537.829 1521.33 Q537.829 1518.65 536.116 1517.14 Q534.426 1515.64 531.417 1515.64 Q528.384 1515.64 526.695 1517.14 Q525.028 1518.65 525.028 1521.33 Z" fill="#000000" fill-rule="evenodd" fill-opacity="1" /><path clip-path="url(#clip710)" d="M 0 0 M561.579 1515.64 Q557.968 1515.64 556.139 1519.2 Q554.333 1522.75 554.333 1529.87 Q554.333 1536.98 556.139 1540.55 Q557.968 1544.09 561.579 1544.09 Q565.213 1544.09 567.018 1540.55 Q568.847 1536.98 568.847 1529.87 Q568.847 1522.75 567.018 1519.2 Q565.213 1515.64 561.579 1515.64 M561.579 1511.93 Q567.389 1511.93 570.444 1516.54 Q573.523 1521.12 573.523 1529.87 Q573.523 1538.6 570.444 1543.21 Q567.389 1547.79 561.579 1547.79 Q555.768 1547.79 552.69 1543.21 Q549.634 1538.6 549.634 1529.87 Q549.634 1521.12 552.69 1516.54 Q555.768 1511.93 561.579 1511.93 Z" fill="#000000" fill-rule="evenodd" fill-opacity="1" /><path clip-path="url(#clip710)" d="M 0 0 M1007.18 1543.18 L1014.82 1543.18 L1014.82 1516.82 L1006.51 1518.49 L1006.51 1514.23 L1014.77 1512.56 L1019.45 1512.56 L1019.45 1543.18 L1027.09 1543.18 L1027.09 1547.12 L1007.18 1547.12 L1007.18 1543.18 Z" fill="#000000" fill-rule="evenodd" fill-opacity="1" /><path clip-path="url(#clip710)" d="M 0 0 M1046.53 1515.64 Q1042.92 1515.64 1041.09 1519.2 Q1039.29 1522.75 1039.29 1529.87 Q1039.29 1536.98 1041.09 1540.55 Q1042.92 1544.09 1046.53 1544.09 Q1050.17 1544.09 1051.97 1540.55 Q1053.8 1536.98 1053.8 1529.87 Q1053.8 1522.75 1051.97 1519.2 Q1050.17 1515.64 1046.53 1515.64 M1046.53 1511.93 Q1052.34 1511.93 1055.4 1516.54 Q1058.48 1521.12 1058.48 1529.87 Q1058.48 1538.6 1055.4 1543.21 Q1052.34 1547.79 1046.53 1547.79 Q1040.72 1547.79 1037.64 1543.21 Q1034.59 1538.6 1034.59 1529.87 Q1034.59 1521.12 1037.64 1516.54 Q1040.72 1511.93 1046.53 1511.93 Z" fill="#000000" fill-rule="evenodd" fill-opacity="1" /><path clip-path="url(#clip710)" d="M 0 0 M1076.69 1515.64 Q1073.08 1515.64 1071.25 1519.2 Q1069.45 1522.75 1069.45 1529.87 Q1069.45 1536.98 1071.25 1540.55 Q1073.08 1544.09 1076.69 1544.09 Q1080.33 1544.09 1082.13 1540.55 Q1083.96 1536.98 1083.96 1529.87 Q1083.96 1522.75 1082.13 1519.2 Q1080.33 1515.64 1076.69 1515.64 M1076.69 1511.93 Q1082.5 1511.93 1085.56 1516.54 Q1088.64 1521.12 1088.64 1529.87 Q1088.64 1538.6 1085.56 1543.21 Q1082.5 1547.79 1076.69 1547.79 Q1070.88 1547.79 1067.8 1543.21 Q1064.75 1538.6 1064.75 1529.87 Q1064.75 1521.12 1067.8 1516.54 Q1070.88 1511.93 1076.69 1511.93 Z" fill="#000000" fill-rule="evenodd" fill-opacity="1" /><path clip-path="url(#clip710)" d="M 0 0 M1508.21 1543.18 L1515.85 1543.18 L1515.85 1516.82 L1507.54 1518.49 L1507.54 1514.23 L1515.8 1512.56 L1520.48 1512.56 L1520.48 1543.18 L1528.12 1543.18 L1528.12 1547.12 L1508.21 1547.12 L1508.21 1543.18 Z" fill="#000000" fill-rule="evenodd" fill-opacity="1" /><path clip-path="url(#clip710)" d="M 0 0 M1541.59 1543.18 L1557.91 1543.18 L1557.91 1547.12 L1535.96 1547.12 L1535.96 1543.18 Q1538.63 1540.43 1543.21 1535.8 Q1547.82 1531.15 1549 1529.81 Q1551.24 1527.28 1552.12 1525.55 Q1553.02 1523.79 1553.02 1522.1 Q1553.02 1519.34 1551.08 1517.61 Q1549.16 1515.87 1546.06 1515.87 Q1543.86 1515.87 1541.4 1516.63 Q1538.97 1517.4 1536.2 1518.95 L1536.2 1514.23 Q1539.02 1513.09 1541.47 1512.51 Q1543.93 1511.93 1545.96 1511.93 Q1551.33 1511.93 1554.53 1514.62 Q1557.72 1517.31 1557.72 1521.8 Q1557.72 1523.93 1556.91 1525.85 Q1556.13 1527.74 1554.02 1530.34 Q1553.44 1531.01 1550.34 1534.23 Q1547.24 1537.42 1541.59 1543.18 Z" fill="#000000" fill-rule="evenodd" fill-opacity="1" /><path clip-path="url(#clip710)" d="M 0 0 M1577.72 1515.64 Q1574.11 1515.64 1572.28 1519.2 Q1570.48 1522.75 1570.48 1529.87 Q1570.48 1536.98 1572.28 1540.55 Q1574.11 1544.09 1577.72 1544.09 Q1581.36 1544.09 1583.16 1540.55 Q1584.99 1536.98 1584.99 1529.87 Q1584.99 1522.75 1583.16 1519.2 Q1581.36 1515.64 1577.72 1515.64 M1577.72 1511.93 Q1583.53 1511.93 1586.59 1516.54 Q1589.67 1521.12 1589.67 1529.87 Q1589.67 1538.6 1586.59 1543.21 Q1583.53 1547.79 1577.72 1547.79 Q1571.91 1547.79 1568.83 1543.21 Q1565.78 1538.6 1565.78 1529.87 Q1565.78 1521.12 1568.83 1516.54 Q1571.91 1511.93 1577.72 1511.93 Z" fill="#000000" fill-rule="evenodd" fill-opacity="1" /><path clip-path="url(#clip710)" d="M 0 0 M2009.24 1543.18 L2016.88 1543.18 L2016.88 1516.82 L2008.57 1518.49 L2008.57 1514.23 L2016.83 1512.56 L2021.51 1512.56 L2021.51 1543.18 L2029.15 1543.18 L2029.15 1547.12 L2009.24 1547.12 L2009.24 1543.18 Z" fill="#000000" fill-rule="evenodd" fill-opacity="1" /><path clip-path="url(#clip710)" d="M 0 0 M2051.44 1516.63 L2039.63 1535.08 L2051.44 1535.08 L2051.44 1516.63 M2050.21 1512.56 L2056.09 1512.56 L2056.09 1535.08 L2061.02 1535.08 L2061.02 1538.97 L2056.09 1538.97 L2056.09 1547.12 L2051.44 1547.12 L2051.44 1538.97 L2035.84 1538.97 L2035.84 1534.46 L2050.21 1512.56 Z" fill="#000000" fill-rule="evenodd" fill-opacity="1" /><path clip-path="url(#clip710)" d="M 0 0 M2078.75 1515.64 Q2075.14 1515.64 2073.31 1519.2 Q2071.51 1522.75 2071.51 1529.87 Q2071.51 1536.98 2073.31 1540.55 Q2075.14 1544.09 2078.75 1544.09 Q2082.39 1544.09 2084.19 1540.55 Q2086.02 1536.98 2086.02 1529.87 Q2086.02 1522.75 2084.19 1519.2 Q2082.39 1515.64 2078.75 1515.64 M2078.75 1511.93 Q2084.56 1511.93 2087.62 1516.54 Q2090.7 1521.12 2090.7 1529.87 Q2090.7 1538.6 2087.62 1543.21 Q2084.56 1547.79 2078.75 1547.79 Q2072.94 1547.79 2069.86 1543.21 Q2066.81 1538.6 2066.81 1529.87 Q2066.81 1521.12 2069.86 1516.54 Q2072.94 1511.93 2078.75 1511.93 Z" fill="#000000" fill-rule="evenodd" fill-opacity="1" /><polyline clip-path="url(#clip712)" style="stroke:#000000; stroke-width:2; stroke-opacity:0.1; fill:none" points="
  493.936,1251.27 2352.76,1251.27 
  "/>
<polyline clip-path="url(#clip712)" style="stroke:#000000; stroke-width:2; stroke-opacity:0.1; fill:none" points="
  493.936,937.49 2352.76,937.49 
  "/>
<polyline clip-path="url(#clip712)" style="stroke:#000000; stroke-width:2; stroke-opacity:0.1; fill:none" points="
  493.936,623.708 2352.76,623.708 
  "/>
<polyline clip-path="url(#clip712)" style="stroke:#000000; stroke-width:2; stroke-opacity:0.1; fill:none" points="
  493.936,309.927 2352.76,309.927 
  "/>
<polyline clip-path="url(#clip710)" style="stroke:#000000; stroke-width:4; stroke-opacity:1; fill:none" points="
  493.936,1486.45 493.936,123.472 
  "/>
<polyline clip-path="url(#clip710)" style="stroke:#000000; stroke-width:4; stroke-opacity:1; fill:none" points="
  493.936,1251.27 516.242,1251.27 
  "/>
<polyline clip-path="url(#clip710)" style="stroke:#000000; stroke-width:4; stroke-opacity:1; fill:none" points="
  493.936,937.49 516.242,937.49 
  "/>
<polyline clip-path="url(#clip710)" style="stroke:#000000; stroke-width:4; stroke-opacity:1; fill:none" points="
  493.936,623.708 516.242,623.708 
  "/>
<polyline clip-path="url(#clip710)" style="stroke:#000000; stroke-width:4; stroke-opacity:1; fill:none" points="
  493.936,309.927 516.242,309.927 
  "/>
<path clip-path="url(#clip710)" d="M 0 0 M50.9921 1258.17 L80.6679 1258.17 L80.6679 1262.11 L50.9921 1262.11 L50.9921 1258.17 Z" fill="#000000" fill-rule="evenodd" fill-opacity="1" /><path clip-path="url(#clip710)" d="M 0 0 M101.339 1255.86 Q98.1909 1255.86 96.3391 1258.01 Q94.5104 1260.16 94.5104 1263.91 Q94.5104 1267.64 96.3391 1269.81 Q98.1909 1271.97 101.339 1271.97 Q104.487 1271.97 106.316 1269.81 Q108.168 1267.64 108.168 1263.91 Q108.168 1260.16 106.316 1258.01 Q104.487 1255.86 101.339 1255.86 M110.621 1241.2 L110.621 1245.46 Q108.862 1244.63 107.057 1244.19 Q105.274 1243.75 103.515 1243.75 Q98.8854 1243.75 96.4317 1246.87 Q94.0012 1250 93.6539 1256.32 Q95.0197 1254.3 97.0798 1253.24 Q99.14 1252.15 101.617 1252.15 Q106.825 1252.15 109.834 1255.32 Q112.867 1258.47 112.867 1263.91 Q112.867 1269.23 109.719 1272.45 Q106.571 1275.67 101.339 1275.67 Q95.3437 1275.67 92.1725 1271.09 Q89.0012 1266.48 89.0012 1257.75 Q89.0012 1249.56 92.89 1244.7 Q96.7789 1239.81 103.33 1239.81 Q105.089 1239.81 106.871 1240.16 Q108.677 1240.51 110.621 1241.2 Z" fill="#000000" fill-rule="evenodd" fill-opacity="1" /><path clip-path="url(#clip710)" d="M 0 0 M120.922 1269.12 L125.807 1269.12 L125.807 1275 L120.922 1275 L120.922 1269.12 Z" fill="#000000" fill-rule="evenodd" fill-opacity="1" /><path clip-path="url(#clip710)" d="M 0 0 M146.57 1255.86 Q143.422 1255.86 141.57 1258.01 Q139.742 1260.16 139.742 1263.91 Q139.742 1267.64 141.57 1269.81 Q143.422 1271.97 146.57 1271.97 Q149.718 1271.97 151.547 1269.81 Q153.399 1267.64 153.399 1263.91 Q153.399 1260.16 151.547 1258.01 Q149.718 1255.86 146.57 1255.86 M155.853 1241.2 L155.853 1245.46 Q154.093 1244.63 152.288 1244.19 Q150.505 1243.75 148.746 1243.75 Q144.117 1243.75 141.663 1246.87 Q139.232 1250 138.885 1256.32 Q140.251 1254.3 142.311 1253.24 Q144.371 1252.15 146.848 1252.15 Q152.056 1252.15 155.066 1255.32 Q158.098 1258.47 158.098 1263.91 Q158.098 1269.23 154.95 1272.45 Q151.802 1275.67 146.57 1275.67 Q140.575 1275.67 137.404 1271.09 Q134.232 1266.48 134.232 1257.75 Q134.232 1249.56 138.121 1244.7 Q142.01 1239.81 148.561 1239.81 Q150.32 1239.81 152.103 1240.16 Q153.908 1240.51 155.853 1241.2 Z" fill="#000000" fill-rule="evenodd" fill-opacity="1" /><path clip-path="url(#clip710)" d="M 0 0 M166.292 1274.28 L166.292 1270.02 Q168.052 1270.86 169.857 1271.3 Q171.663 1271.73 173.399 1271.73 Q178.028 1271.73 180.459 1268.63 Q182.913 1265.51 183.26 1259.17 Q181.917 1261.16 179.857 1262.22 Q177.797 1263.29 175.297 1263.29 Q170.112 1263.29 167.079 1260.16 Q164.07 1257.01 164.07 1251.57 Q164.07 1246.25 167.218 1243.03 Q170.366 1239.81 175.598 1239.81 Q181.593 1239.81 184.741 1244.42 Q187.913 1249 187.913 1257.75 Q187.913 1265.92 184.024 1270.81 Q180.158 1275.67 173.607 1275.67 Q171.848 1275.67 170.042 1275.32 Q168.237 1274.98 166.292 1274.28 M175.598 1259.63 Q178.746 1259.63 180.575 1257.48 Q182.427 1255.32 182.427 1251.57 Q182.427 1247.85 180.575 1245.69 Q178.746 1243.52 175.598 1243.52 Q172.45 1243.52 170.598 1245.69 Q168.769 1247.85 168.769 1251.57 Q168.769 1255.32 170.598 1257.48 Q172.45 1259.63 175.598 1259.63 Z" fill="#000000" fill-rule="evenodd" fill-opacity="1" /><path clip-path="url(#clip710)" d="M 0 0 M209.163 1244.51 L197.357 1262.96 L209.163 1262.96 L209.163 1244.51 M207.936 1240.44 L213.815 1240.44 L213.815 1262.96 L218.746 1262.96 L218.746 1266.85 L213.815 1266.85 L213.815 1275 L209.163 1275 L209.163 1266.85 L193.561 1266.85 L193.561 1262.34 L207.936 1240.44 Z" fill="#000000" fill-rule="evenodd" fill-opacity="1" /><path clip-path="url(#clip710)" d="M 0 0 M237.056 1255.86 Q233.908 1255.86 232.056 1258.01 Q230.227 1260.16 230.227 1263.91 Q230.227 1267.64 232.056 1269.81 Q233.908 1271.97 237.056 1271.97 Q240.204 1271.97 242.033 1269.81 Q243.885 1267.64 243.885 1263.91 Q243.885 1260.16 242.033 1258.01 Q240.204 1255.86 237.056 1255.86 M246.338 1241.2 L246.338 1245.46 Q244.579 1244.63 242.774 1244.19 Q240.991 1243.75 239.232 1243.75 Q234.602 1243.75 232.149 1246.87 Q229.718 1250 229.371 1256.32 Q230.737 1254.3 232.797 1253.24 Q234.857 1252.15 237.334 1252.15 Q242.542 1252.15 245.551 1255.32 Q248.584 1258.47 248.584 1263.91 Q248.584 1269.23 245.436 1272.45 Q242.287 1275.67 237.056 1275.67 Q231.061 1275.67 227.889 1271.09 Q224.718 1266.48 224.718 1257.75 Q224.718 1249.56 228.607 1244.7 Q232.496 1239.81 239.047 1239.81 Q240.806 1239.81 242.588 1240.16 Q244.394 1240.51 246.338 1241.2 Z" fill="#000000" fill-rule="evenodd" fill-opacity="1" /><path clip-path="url(#clip710)" d="M 0 0 M266.639 1243.52 Q263.028 1243.52 261.199 1247.08 Q259.394 1250.62 259.394 1257.75 Q259.394 1264.86 261.199 1268.42 Q263.028 1271.97 266.639 1271.97 Q270.273 1271.97 272.079 1268.42 Q273.908 1264.86 273.908 1257.75 Q273.908 1250.62 272.079 1247.08 Q270.273 1243.52 266.639 1243.52 M266.639 1239.81 Q272.449 1239.81 275.505 1244.42 Q278.583 1249 278.583 1257.75 Q278.583 1266.48 275.505 1271.09 Q272.449 1275.67 266.639 1275.67 Q260.829 1275.67 257.75 1271.09 Q254.695 1266.48 254.695 1257.75 Q254.695 1249 257.75 1244.42 Q260.829 1239.81 266.639 1239.81 Z" fill="#000000" fill-rule="evenodd" fill-opacity="1" /><path clip-path="url(#clip710)" d="M 0 0 M296.801 1243.52 Q293.19 1243.52 291.361 1247.08 Q289.556 1250.62 289.556 1257.75 Q289.556 1264.86 291.361 1268.42 Q293.19 1271.97 296.801 1271.97 Q300.435 1271.97 302.241 1268.42 Q304.069 1264.86 304.069 1257.75 Q304.069 1250.62 302.241 1247.08 Q300.435 1243.52 296.801 1243.52 M296.801 1239.81 Q302.611 1239.81 305.667 1244.42 Q308.745 1249 308.745 1257.75 Q308.745 1266.48 305.667 1271.09 Q302.611 1275.67 296.801 1275.67 Q290.991 1275.67 287.912 1271.09 Q284.857 1266.48 284.857 1257.75 Q284.857 1249 287.912 1244.42 Q290.991 1239.81 296.801 1239.81 Z" fill="#000000" fill-rule="evenodd" fill-opacity="1" /><path clip-path="url(#clip710)" d="M 0 0 M345.134 1249.54 L334.555 1260.16 L345.134 1270.74 L342.379 1273.54 L331.755 1262.92 L321.13 1273.54 L318.398 1270.74 L328.954 1260.16 L318.398 1249.54 L321.13 1246.74 L331.755 1257.36 L342.379 1246.74 L345.134 1249.54 Z" fill="#000000" fill-rule="evenodd" fill-opacity="1" /><path clip-path="url(#clip710)" d="M 0 0 M357.495 1271.06 L365.134 1271.06 L365.134 1244.7 L356.824 1246.36 L356.824 1242.11 L365.088 1240.44 L369.764 1240.44 L369.764 1271.06 L377.402 1271.06 L377.402 1275 L357.495 1275 L357.495 1271.06 Z" fill="#000000" fill-rule="evenodd" fill-opacity="1" /><path clip-path="url(#clip710)" d="M 0 0 M396.847 1243.52 Q393.236 1243.52 391.407 1247.08 Q389.601 1250.62 389.601 1257.75 Q389.601 1264.86 391.407 1268.42 Q393.236 1271.97 396.847 1271.97 Q400.481 1271.97 402.287 1268.42 Q404.115 1264.86 404.115 1257.75 Q404.115 1250.62 402.287 1247.08 Q400.481 1243.52 396.847 1243.52 M396.847 1239.81 Q402.657 1239.81 405.712 1244.42 Q408.791 1249 408.791 1257.75 Q408.791 1266.48 405.712 1271.09 Q402.657 1275.67 396.847 1275.67 Q391.037 1275.67 387.958 1271.09 Q384.902 1266.48 384.902 1257.75 Q384.902 1249 387.958 1244.42 Q391.037 1239.81 396.847 1239.81 Z" fill="#000000" fill-rule="evenodd" fill-opacity="1" /><path clip-path="url(#clip710)" d="M 0 0 M408.791 1233.92 L432.903 1233.92 L432.903 1237.11 L408.791 1237.11 L408.791 1233.92 Z" fill="#000000" fill-rule="evenodd" fill-opacity="1" /><path clip-path="url(#clip710)" d="M 0 0 M441.761 1244.39 L447.968 1244.39 L447.968 1222.97 L441.216 1224.32 L441.216 1220.86 L447.93 1219.51 L451.729 1219.51 L451.729 1244.39 L457.936 1244.39 L457.936 1247.59 L441.761 1247.59 L441.761 1244.39 Z" fill="#000000" fill-rule="evenodd" fill-opacity="1" /><path clip-path="url(#clip710)" d="M 0 0 M50.9921 944.389 L80.6679 944.389 L80.6679 948.324 L50.9921 948.324 L50.9921 944.389 Z" fill="#000000" fill-rule="evenodd" fill-opacity="1" /><path clip-path="url(#clip710)" d="M 0 0 M101.339 942.074 Q98.1909 942.074 96.3391 944.227 Q94.5104 946.379 94.5104 950.129 Q94.5104 953.856 96.3391 956.032 Q98.1909 958.185 101.339 958.185 Q104.487 958.185 106.316 956.032 Q108.168 953.856 108.168 950.129 Q108.168 946.379 106.316 944.227 Q104.487 942.074 101.339 942.074 M110.621 927.421 L110.621 931.68 Q108.862 930.847 107.057 930.407 Q105.274 929.967 103.515 929.967 Q98.8854 929.967 96.4317 933.092 Q94.0012 936.217 93.6539 942.537 Q95.0197 940.523 97.0798 939.458 Q99.14 938.37 101.617 938.37 Q106.825 938.37 109.834 941.541 Q112.867 944.69 112.867 950.129 Q112.867 955.453 109.719 958.671 Q106.571 961.889 101.339 961.889 Q95.3437 961.889 92.1725 957.305 Q89.0012 952.699 89.0012 943.972 Q89.0012 935.778 92.89 930.916 Q96.7789 926.032 103.33 926.032 Q105.089 926.032 106.871 926.379 Q108.677 926.727 110.621 927.421 Z" fill="#000000" fill-rule="evenodd" fill-opacity="1" /><path clip-path="url(#clip710)" d="M 0 0 M120.922 955.338 L125.807 955.338 L125.807 961.217 L120.922 961.217 L120.922 955.338 Z" fill="#000000" fill-rule="evenodd" fill-opacity="1" /><path clip-path="url(#clip710)" d="M 0 0 M146.57 942.074 Q143.422 942.074 141.57 944.227 Q139.742 946.379 139.742 950.129 Q139.742 953.856 141.57 956.032 Q143.422 958.185 146.57 958.185 Q149.718 958.185 151.547 956.032 Q153.399 953.856 153.399 950.129 Q153.399 946.379 151.547 944.227 Q149.718 942.074 146.57 942.074 M155.853 927.421 L155.853 931.68 Q154.093 930.847 152.288 930.407 Q150.505 929.967 148.746 929.967 Q144.117 929.967 141.663 933.092 Q139.232 936.217 138.885 942.537 Q140.251 940.523 142.311 939.458 Q144.371 938.37 146.848 938.37 Q152.056 938.37 155.066 941.541 Q158.098 944.69 158.098 950.129 Q158.098 955.453 154.95 958.671 Q151.802 961.889 146.57 961.889 Q140.575 961.889 137.404 957.305 Q134.232 952.699 134.232 943.972 Q134.232 935.778 138.121 930.916 Q142.01 926.032 148.561 926.032 Q150.32 926.032 152.103 926.379 Q153.908 926.727 155.853 927.421 Z" fill="#000000" fill-rule="evenodd" fill-opacity="1" /><path clip-path="url(#clip710)" d="M 0 0 M166.292 960.5 L166.292 956.24 Q168.052 957.074 169.857 957.514 Q171.663 957.953 173.399 957.953 Q178.028 957.953 180.459 954.852 Q182.913 951.727 183.26 945.384 Q181.917 947.375 179.857 948.44 Q177.797 949.504 175.297 949.504 Q170.112 949.504 167.079 946.379 Q164.07 943.231 164.07 937.791 Q164.07 932.467 167.218 929.25 Q170.366 926.032 175.598 926.032 Q181.593 926.032 184.741 930.639 Q187.913 935.222 187.913 943.972 Q187.913 952.143 184.024 957.027 Q180.158 961.889 173.607 961.889 Q171.848 961.889 170.042 961.541 Q168.237 961.194 166.292 960.5 M175.598 945.847 Q178.746 945.847 180.575 943.694 Q182.427 941.541 182.427 937.791 Q182.427 934.065 180.575 931.912 Q178.746 929.736 175.598 929.736 Q172.45 929.736 170.598 931.912 Q168.769 934.065 168.769 937.791 Q168.769 941.541 170.598 943.694 Q172.45 945.847 175.598 945.847 Z" fill="#000000" fill-rule="evenodd" fill-opacity="1" /><path clip-path="url(#clip710)" d="M 0 0 M209.163 930.731 L197.357 949.18 L209.163 949.18 L209.163 930.731 M207.936 926.657 L213.815 926.657 L213.815 949.18 L218.746 949.18 L218.746 953.069 L213.815 953.069 L213.815 961.217 L209.163 961.217 L209.163 953.069 L193.561 953.069 L193.561 948.555 L207.936 926.657 Z" fill="#000000" fill-rule="evenodd" fill-opacity="1" /><path clip-path="url(#clip710)" d="M 0 0 M226.524 926.657 L244.88 926.657 L244.88 930.592 L230.806 930.592 L230.806 939.065 Q231.824 938.717 232.843 938.555 Q233.862 938.37 234.88 938.37 Q240.667 938.37 244.047 941.541 Q247.426 944.713 247.426 950.129 Q247.426 955.708 243.954 958.81 Q240.482 961.889 234.162 961.889 Q231.987 961.889 229.718 961.518 Q227.473 961.148 225.065 960.407 L225.065 955.708 Q227.149 956.842 229.371 957.398 Q231.593 957.953 234.07 957.953 Q238.074 957.953 240.412 955.847 Q242.75 953.74 242.75 950.129 Q242.75 946.518 240.412 944.412 Q238.074 942.305 234.07 942.305 Q232.195 942.305 230.32 942.722 Q228.468 943.139 226.524 944.018 L226.524 926.657 Z" fill="#000000" fill-rule="evenodd" fill-opacity="1" /><path clip-path="url(#clip710)" d="M 0 0 M256.685 926.657 L275.042 926.657 L275.042 930.592 L260.968 930.592 L260.968 939.065 Q261.986 938.717 263.005 938.555 Q264.023 938.37 265.042 938.37 Q270.829 938.37 274.209 941.541 Q277.588 944.713 277.588 950.129 Q277.588 955.708 274.116 958.81 Q270.644 961.889 264.324 961.889 Q262.148 961.889 259.88 961.518 Q257.635 961.148 255.227 960.407 L255.227 955.708 Q257.31 956.842 259.533 957.398 Q261.755 957.953 264.232 957.953 Q268.236 957.953 270.574 955.847 Q272.912 953.74 272.912 950.129 Q272.912 946.518 270.574 944.412 Q268.236 942.305 264.232 942.305 Q262.357 942.305 260.482 942.722 Q258.63 943.139 256.685 944.018 L256.685 926.657 Z" fill="#000000" fill-rule="evenodd" fill-opacity="1" /><path clip-path="url(#clip710)" d="M 0 0 M296.801 929.736 Q293.19 929.736 291.361 933.301 Q289.556 936.842 289.556 943.972 Q289.556 951.078 291.361 954.643 Q293.19 958.185 296.801 958.185 Q300.435 958.185 302.241 954.643 Q304.069 951.078 304.069 943.972 Q304.069 936.842 302.241 933.301 Q300.435 929.736 296.801 929.736 M296.801 926.032 Q302.611 926.032 305.667 930.639 Q308.745 935.222 308.745 943.972 Q308.745 952.699 305.667 957.305 Q302.611 961.889 296.801 961.889 Q290.991 961.889 287.912 957.305 Q284.857 952.699 284.857 943.972 Q284.857 935.222 287.912 930.639 Q290.991 926.032 296.801 926.032 Z" fill="#000000" fill-rule="evenodd" fill-opacity="1" /><path clip-path="url(#clip710)" d="M 0 0 M345.134 935.754 L334.555 946.379 L345.134 956.958 L342.379 959.759 L331.755 949.134 L321.13 959.759 L318.398 956.958 L328.954 946.379 L318.398 935.754 L321.13 932.954 L331.755 943.578 L342.379 932.954 L345.134 935.754 Z" fill="#000000" fill-rule="evenodd" fill-opacity="1" /><path clip-path="url(#clip710)" d="M 0 0 M357.495 957.282 L365.134 957.282 L365.134 930.916 L356.824 932.583 L356.824 928.324 L365.088 926.657 L369.764 926.657 L369.764 957.282 L377.402 957.282 L377.402 961.217 L357.495 961.217 L357.495 957.282 Z" fill="#000000" fill-rule="evenodd" fill-opacity="1" /><path clip-path="url(#clip710)" d="M 0 0 M396.847 929.736 Q393.236 929.736 391.407 933.301 Q389.601 936.842 389.601 943.972 Q389.601 951.078 391.407 954.643 Q393.236 958.185 396.847 958.185 Q400.481 958.185 402.287 954.643 Q404.115 951.078 404.115 943.972 Q404.115 936.842 402.287 933.301 Q400.481 929.736 396.847 929.736 M396.847 926.032 Q402.657 926.032 405.712 930.639 Q408.791 935.222 408.791 943.972 Q408.791 952.699 405.712 957.305 Q402.657 961.889 396.847 961.889 Q391.037 961.889 387.958 957.305 Q384.902 952.699 384.902 943.972 Q384.902 935.222 387.958 930.639 Q391.037 926.032 396.847 926.032 Z" fill="#000000" fill-rule="evenodd" fill-opacity="1" /><path clip-path="url(#clip710)" d="M 0 0 M408.791 920.134 L432.903 920.134 L432.903 923.331 L408.791 923.331 L408.791 920.134 Z" fill="#000000" fill-rule="evenodd" fill-opacity="1" /><path clip-path="url(#clip710)" d="M 0 0 M441.761 930.61 L447.968 930.61 L447.968 909.187 L441.216 910.542 L441.216 907.081 L447.93 905.727 L451.729 905.727 L451.729 930.61 L457.936 930.61 L457.936 933.807 L441.761 933.807 L441.761 930.61 Z" fill="#000000" fill-rule="evenodd" fill-opacity="1" /><path clip-path="url(#clip710)" d="M 0 0 M50.9921 630.607 L80.6679 630.607 L80.6679 634.542 L50.9921 634.542 L50.9921 630.607 Z" fill="#000000" fill-rule="evenodd" fill-opacity="1" /><path clip-path="url(#clip710)" d="M 0 0 M101.339 628.292 Q98.1909 628.292 96.3391 630.445 Q94.5104 632.598 94.5104 636.348 Q94.5104 640.075 96.3391 642.251 Q98.1909 644.403 101.339 644.403 Q104.487 644.403 106.316 642.251 Q108.168 640.075 108.168 636.348 Q108.168 632.598 106.316 630.445 Q104.487 628.292 101.339 628.292 M110.621 613.64 L110.621 617.899 Q108.862 617.066 107.057 616.626 Q105.274 616.186 103.515 616.186 Q98.8854 616.186 96.4317 619.311 Q94.0012 622.436 93.6539 628.755 Q95.0197 626.741 97.0798 625.677 Q99.14 624.589 101.617 624.589 Q106.825 624.589 109.834 627.76 Q112.867 630.908 112.867 636.348 Q112.867 641.672 109.719 644.889 Q106.571 648.107 101.339 648.107 Q95.3437 648.107 92.1725 643.524 Q89.0012 638.917 89.0012 630.19 Q89.0012 621.996 92.89 617.135 Q96.7789 612.251 103.33 612.251 Q105.089 612.251 106.871 612.598 Q108.677 612.945 110.621 613.64 Z" fill="#000000" fill-rule="evenodd" fill-opacity="1" /><path clip-path="url(#clip710)" d="M 0 0 M120.922 641.556 L125.807 641.556 L125.807 647.436 L120.922 647.436 L120.922 641.556 Z" fill="#000000" fill-rule="evenodd" fill-opacity="1" /><path clip-path="url(#clip710)" d="M 0 0 M146.57 628.292 Q143.422 628.292 141.57 630.445 Q139.742 632.598 139.742 636.348 Q139.742 640.075 141.57 642.251 Q143.422 644.403 146.57 644.403 Q149.718 644.403 151.547 642.251 Q153.399 640.075 153.399 636.348 Q153.399 632.598 151.547 630.445 Q149.718 628.292 146.57 628.292 M155.853 613.64 L155.853 617.899 Q154.093 617.066 152.288 616.626 Q150.505 616.186 148.746 616.186 Q144.117 616.186 141.663 619.311 Q139.232 622.436 138.885 628.755 Q140.251 626.741 142.311 625.677 Q144.371 624.589 146.848 624.589 Q152.056 624.589 155.066 627.76 Q158.098 630.908 158.098 636.348 Q158.098 641.672 154.95 644.889 Q151.802 648.107 146.57 648.107 Q140.575 648.107 137.404 643.524 Q134.232 638.917 134.232 630.19 Q134.232 621.996 138.121 617.135 Q142.01 612.251 148.561 612.251 Q150.32 612.251 152.103 612.598 Q153.908 612.945 155.853 613.64 Z" fill="#000000" fill-rule="evenodd" fill-opacity="1" /><path clip-path="url(#clip710)" d="M 0 0 M166.292 646.718 L166.292 642.459 Q168.052 643.292 169.857 643.732 Q171.663 644.172 173.399 644.172 Q178.028 644.172 180.459 641.07 Q182.913 637.945 183.26 631.602 Q181.917 633.593 179.857 634.658 Q177.797 635.723 175.297 635.723 Q170.112 635.723 167.079 632.598 Q164.07 629.45 164.07 624.01 Q164.07 618.686 167.218 615.468 Q170.366 612.251 175.598 612.251 Q181.593 612.251 184.741 616.857 Q187.913 621.441 187.913 630.19 Q187.913 638.362 184.024 643.246 Q180.158 648.107 173.607 648.107 Q171.848 648.107 170.042 647.76 Q168.237 647.413 166.292 646.718 M175.598 632.065 Q178.746 632.065 180.575 629.913 Q182.427 627.76 182.427 624.01 Q182.427 620.283 180.575 618.13 Q178.746 615.954 175.598 615.954 Q172.45 615.954 170.598 618.13 Q168.769 620.283 168.769 624.01 Q168.769 627.76 170.598 629.913 Q172.45 632.065 175.598 632.065 Z" fill="#000000" fill-rule="evenodd" fill-opacity="1" /><path clip-path="url(#clip710)" d="M 0 0 M209.163 616.95 L197.357 635.399 L209.163 635.399 L209.163 616.95 M207.936 612.876 L213.815 612.876 L213.815 635.399 L218.746 635.399 L218.746 639.288 L213.815 639.288 L213.815 647.436 L209.163 647.436 L209.163 639.288 L193.561 639.288 L193.561 634.774 L207.936 612.876 Z" fill="#000000" fill-rule="evenodd" fill-opacity="1" /><path clip-path="url(#clip710)" d="M 0 0 M226.524 612.876 L244.88 612.876 L244.88 616.811 L230.806 616.811 L230.806 625.283 Q231.824 624.936 232.843 624.774 Q233.862 624.589 234.88 624.589 Q240.667 624.589 244.047 627.76 Q247.426 630.931 247.426 636.348 Q247.426 641.927 243.954 645.028 Q240.482 648.107 234.162 648.107 Q231.987 648.107 229.718 647.737 Q227.473 647.366 225.065 646.626 L225.065 641.927 Q227.149 643.061 229.371 643.616 Q231.593 644.172 234.07 644.172 Q238.074 644.172 240.412 642.065 Q242.75 639.959 242.75 636.348 Q242.75 632.737 240.412 630.63 Q238.074 628.524 234.07 628.524 Q232.195 628.524 230.32 628.94 Q228.468 629.357 226.524 630.237 L226.524 612.876 Z" fill="#000000" fill-rule="evenodd" fill-opacity="1" /><path clip-path="url(#clip710)" d="M 0 0 M266.639 615.954 Q263.028 615.954 261.199 619.519 Q259.394 623.061 259.394 630.19 Q259.394 637.297 261.199 640.862 Q263.028 644.403 266.639 644.403 Q270.273 644.403 272.079 640.862 Q273.908 637.297 273.908 630.19 Q273.908 623.061 272.079 619.519 Q270.273 615.954 266.639 615.954 M266.639 612.251 Q272.449 612.251 275.505 616.857 Q278.583 621.441 278.583 630.19 Q278.583 638.917 275.505 643.524 Q272.449 648.107 266.639 648.107 Q260.829 648.107 257.75 643.524 Q254.695 638.917 254.695 630.19 Q254.695 621.441 257.75 616.857 Q260.829 612.251 266.639 612.251 Z" fill="#000000" fill-rule="evenodd" fill-opacity="1" /><path clip-path="url(#clip710)" d="M 0 0 M296.801 615.954 Q293.19 615.954 291.361 619.519 Q289.556 623.061 289.556 630.19 Q289.556 637.297 291.361 640.862 Q293.19 644.403 296.801 644.403 Q300.435 644.403 302.241 640.862 Q304.069 637.297 304.069 630.19 Q304.069 623.061 302.241 619.519 Q300.435 615.954 296.801 615.954 M296.801 612.251 Q302.611 612.251 305.667 616.857 Q308.745 621.441 308.745 630.19 Q308.745 638.917 305.667 643.524 Q302.611 648.107 296.801 648.107 Q290.991 648.107 287.912 643.524 Q284.857 638.917 284.857 630.19 Q284.857 621.441 287.912 616.857 Q290.991 612.251 296.801 612.251 Z" fill="#000000" fill-rule="evenodd" fill-opacity="1" /><path clip-path="url(#clip710)" d="M 0 0 M345.134 621.973 L334.555 632.598 L345.134 643.177 L342.379 645.977 L331.755 635.352 L321.13 645.977 L318.398 643.177 L328.954 632.598 L318.398 621.973 L321.13 619.172 L331.755 629.797 L342.379 619.172 L345.134 621.973 Z" fill="#000000" fill-rule="evenodd" fill-opacity="1" /><path clip-path="url(#clip710)" d="M 0 0 M357.495 643.501 L365.134 643.501 L365.134 617.135 L356.824 618.802 L356.824 614.542 L365.088 612.876 L369.764 612.876 L369.764 643.501 L377.402 643.501 L377.402 647.436 L357.495 647.436 L357.495 643.501 Z" fill="#000000" fill-rule="evenodd" fill-opacity="1" /><path clip-path="url(#clip710)" d="M 0 0 M396.847 615.954 Q393.236 615.954 391.407 619.519 Q389.601 623.061 389.601 630.19 Q389.601 637.297 391.407 640.862 Q393.236 644.403 396.847 644.403 Q400.481 644.403 402.287 640.862 Q404.115 637.297 404.115 630.19 Q404.115 623.061 402.287 619.519 Q400.481 615.954 396.847 615.954 M396.847 612.251 Q402.657 612.251 405.712 616.857 Q408.791 621.441 408.791 630.19 Q408.791 638.917 405.712 643.524 Q402.657 648.107 396.847 648.107 Q391.037 648.107 387.958 643.524 Q384.902 638.917 384.902 630.19 Q384.902 621.441 387.958 616.857 Q391.037 612.251 396.847 612.251 Z" fill="#000000" fill-rule="evenodd" fill-opacity="1" /><path clip-path="url(#clip710)" d="M 0 0 M408.791 606.352 L432.903 606.352 L432.903 609.549 L408.791 609.549 L408.791 606.352 Z" fill="#000000" fill-rule="evenodd" fill-opacity="1" /><path clip-path="url(#clip710)" d="M 0 0 M441.761 616.828 L447.968 616.828 L447.968 595.406 L441.216 596.76 L441.216 593.3 L447.93 591.945 L451.729 591.945 L451.729 616.828 L457.936 616.828 L457.936 620.025 L441.761 620.025 L441.761 616.828 Z" fill="#000000" fill-rule="evenodd" fill-opacity="1" /><path clip-path="url(#clip710)" d="M 0 0 M50.9921 316.826 L80.6679 316.826 L80.6679 320.761 L50.9921 320.761 L50.9921 316.826 Z" fill="#000000" fill-rule="evenodd" fill-opacity="1" /><path clip-path="url(#clip710)" d="M 0 0 M101.339 314.511 Q98.1909 314.511 96.3391 316.664 Q94.5104 318.816 94.5104 322.566 Q94.5104 326.293 96.3391 328.469 Q98.1909 330.622 101.339 330.622 Q104.487 330.622 106.316 328.469 Q108.168 326.293 108.168 322.566 Q108.168 318.816 106.316 316.664 Q104.487 314.511 101.339 314.511 M110.621 299.858 L110.621 304.117 Q108.862 303.284 107.057 302.844 Q105.274 302.404 103.515 302.404 Q98.8854 302.404 96.4317 305.529 Q94.0012 308.654 93.6539 314.974 Q95.0197 312.96 97.0798 311.895 Q99.14 310.807 101.617 310.807 Q106.825 310.807 109.834 313.978 Q112.867 317.127 112.867 322.566 Q112.867 327.89 109.719 331.108 Q106.571 334.326 101.339 334.326 Q95.3437 334.326 92.1725 329.742 Q89.0012 325.136 89.0012 316.409 Q89.0012 308.215 92.89 303.353 Q96.7789 298.469 103.33 298.469 Q105.089 298.469 106.871 298.816 Q108.677 299.164 110.621 299.858 Z" fill="#000000" fill-rule="evenodd" fill-opacity="1" /><path clip-path="url(#clip710)" d="M 0 0 M120.922 327.775 L125.807 327.775 L125.807 333.654 L120.922 333.654 L120.922 327.775 Z" fill="#000000" fill-rule="evenodd" fill-opacity="1" /><path clip-path="url(#clip710)" d="M 0 0 M146.57 314.511 Q143.422 314.511 141.57 316.664 Q139.742 318.816 139.742 322.566 Q139.742 326.293 141.57 328.469 Q143.422 330.622 146.57 330.622 Q149.718 330.622 151.547 328.469 Q153.399 326.293 153.399 322.566 Q153.399 318.816 151.547 316.664 Q149.718 314.511 146.57 314.511 M155.853 299.858 L155.853 304.117 Q154.093 303.284 152.288 302.844 Q150.505 302.404 148.746 302.404 Q144.117 302.404 141.663 305.529 Q139.232 308.654 138.885 314.974 Q140.251 312.96 142.311 311.895 Q144.371 310.807 146.848 310.807 Q152.056 310.807 155.066 313.978 Q158.098 317.127 158.098 322.566 Q158.098 327.89 154.95 331.108 Q151.802 334.326 146.57 334.326 Q140.575 334.326 137.404 329.742 Q134.232 325.136 134.232 316.409 Q134.232 308.215 138.121 303.353 Q142.01 298.469 148.561 298.469 Q150.32 298.469 152.103 298.816 Q153.908 299.164 155.853 299.858 Z" fill="#000000" fill-rule="evenodd" fill-opacity="1" /><path clip-path="url(#clip710)" d="M 0 0 M166.292 332.937 L166.292 328.677 Q168.052 329.511 169.857 329.951 Q171.663 330.39 173.399 330.39 Q178.028 330.39 180.459 327.289 Q182.913 324.164 183.26 317.821 Q181.917 319.812 179.857 320.877 Q177.797 321.941 175.297 321.941 Q170.112 321.941 167.079 318.816 Q164.07 315.668 164.07 310.228 Q164.07 304.904 167.218 301.687 Q170.366 298.469 175.598 298.469 Q181.593 298.469 184.741 303.076 Q187.913 307.659 187.913 316.409 Q187.913 324.58 184.024 329.464 Q180.158 334.326 173.607 334.326 Q171.848 334.326 170.042 333.978 Q168.237 333.631 166.292 332.937 M175.598 318.284 Q178.746 318.284 180.575 316.131 Q182.427 313.978 182.427 310.228 Q182.427 306.502 180.575 304.349 Q178.746 302.173 175.598 302.173 Q172.45 302.173 170.598 304.349 Q168.769 306.502 168.769 310.228 Q168.769 313.978 170.598 316.131 Q172.45 318.284 175.598 318.284 Z" fill="#000000" fill-rule="evenodd" fill-opacity="1" /><path clip-path="url(#clip710)" d="M 0 0 M209.163 303.168 L197.357 321.617 L209.163 321.617 L209.163 303.168 M207.936 299.094 L213.815 299.094 L213.815 321.617 L218.746 321.617 L218.746 325.506 L213.815 325.506 L213.815 333.654 L209.163 333.654 L209.163 325.506 L193.561 325.506 L193.561 320.992 L207.936 299.094 Z" fill="#000000" fill-rule="evenodd" fill-opacity="1" /><path clip-path="url(#clip710)" d="M 0 0 M239.324 303.168 L227.519 321.617 L239.324 321.617 L239.324 303.168 M238.098 299.094 L243.977 299.094 L243.977 321.617 L248.908 321.617 L248.908 325.506 L243.977 325.506 L243.977 333.654 L239.324 333.654 L239.324 325.506 L223.723 325.506 L223.723 320.992 L238.098 299.094 Z" fill="#000000" fill-rule="evenodd" fill-opacity="1" /><path clip-path="url(#clip710)" d="M 0 0 M256.685 299.094 L275.042 299.094 L275.042 303.029 L260.968 303.029 L260.968 311.502 Q261.986 311.154 263.005 310.992 Q264.023 310.807 265.042 310.807 Q270.829 310.807 274.209 313.978 Q277.588 317.15 277.588 322.566 Q277.588 328.145 274.116 331.247 Q270.644 334.326 264.324 334.326 Q262.148 334.326 259.88 333.955 Q257.635 333.585 255.227 332.844 L255.227 328.145 Q257.31 329.279 259.533 329.835 Q261.755 330.39 264.232 330.39 Q268.236 330.39 270.574 328.284 Q272.912 326.177 272.912 322.566 Q272.912 318.955 270.574 316.849 Q268.236 314.742 264.232 314.742 Q262.357 314.742 260.482 315.159 Q258.63 315.576 256.685 316.455 L256.685 299.094 Z" fill="#000000" fill-rule="evenodd" fill-opacity="1" /><path clip-path="url(#clip710)" d="M 0 0 M296.801 302.173 Q293.19 302.173 291.361 305.738 Q289.556 309.279 289.556 316.409 Q289.556 323.515 291.361 327.08 Q293.19 330.622 296.801 330.622 Q300.435 330.622 302.241 327.08 Q304.069 323.515 304.069 316.409 Q304.069 309.279 302.241 305.738 Q300.435 302.173 296.801 302.173 M296.801 298.469 Q302.611 298.469 305.667 303.076 Q308.745 307.659 308.745 316.409 Q308.745 325.136 305.667 329.742 Q302.611 334.326 296.801 334.326 Q290.991 334.326 287.912 329.742 Q284.857 325.136 284.857 316.409 Q284.857 307.659 287.912 303.076 Q290.991 298.469 296.801 298.469 Z" fill="#000000" fill-rule="evenodd" fill-opacity="1" /><path clip-path="url(#clip710)" d="M 0 0 M345.134 308.191 L334.555 318.816 L345.134 329.395 L342.379 332.196 L331.755 321.571 L321.13 332.196 L318.398 329.395 L328.954 318.816 L318.398 308.191 L321.13 305.39 L331.755 316.015 L342.379 305.39 L345.134 308.191 Z" fill="#000000" fill-rule="evenodd" fill-opacity="1" /><path clip-path="url(#clip710)" d="M 0 0 M357.495 329.719 L365.134 329.719 L365.134 303.353 L356.824 305.02 L356.824 300.761 L365.088 299.094 L369.764 299.094 L369.764 329.719 L377.402 329.719 L377.402 333.654 L357.495 333.654 L357.495 329.719 Z" fill="#000000" fill-rule="evenodd" fill-opacity="1" /><path clip-path="url(#clip710)" d="M 0 0 M396.847 302.173 Q393.236 302.173 391.407 305.738 Q389.601 309.279 389.601 316.409 Q389.601 323.515 391.407 327.08 Q393.236 330.622 396.847 330.622 Q400.481 330.622 402.287 327.08 Q404.115 323.515 404.115 316.409 Q404.115 309.279 402.287 305.738 Q400.481 302.173 396.847 302.173 M396.847 298.469 Q402.657 298.469 405.712 303.076 Q408.791 307.659 408.791 316.409 Q408.791 325.136 405.712 329.742 Q402.657 334.326 396.847 334.326 Q391.037 334.326 387.958 329.742 Q384.902 325.136 384.902 316.409 Q384.902 307.659 387.958 303.076 Q391.037 298.469 396.847 298.469 Z" fill="#000000" fill-rule="evenodd" fill-opacity="1" /><path clip-path="url(#clip710)" d="M 0 0 M408.791 292.571 L432.903 292.571 L432.903 295.768 L408.791 295.768 L408.791 292.571 Z" fill="#000000" fill-rule="evenodd" fill-opacity="1" /><path clip-path="url(#clip710)" d="M 0 0 M441.761 303.047 L447.968 303.047 L447.968 281.624 L441.216 282.979 L441.216 279.518 L447.93 278.164 L451.729 278.164 L451.729 303.047 L457.936 303.047 L457.936 306.244 L441.761 306.244 L441.761 303.047 Z" fill="#000000" fill-rule="evenodd" fill-opacity="1" /><path clip-path="url(#clip710)" d="M 0 0 M1324.38 48.0275 L1324.38 51.6733 L1290.11 51.6733 Q1290.6 59.3701 1294.73 63.421 Q1298.9 67.4314 1306.32 67.4314 Q1310.61 67.4314 1314.62 66.3781 Q1318.67 65.3249 1322.64 63.2184 L1322.64 70.267 Q1318.63 71.9684 1314.42 72.8596 Q1310.2 73.7508 1305.87 73.7508 Q1295.01 73.7508 1288.65 67.4314 Q1282.33 61.1119 1282.33 50.3365 Q1282.33 39.1965 1288.33 32.6746 Q1294.37 26.1121 1304.57 26.1121 Q1313.73 26.1121 1319.04 32.0264 Q1324.38 37.9003 1324.38 48.0275 M1316.93 45.84 Q1316.85 39.7232 1313.49 36.0774 Q1310.16 32.4315 1304.65 32.4315 Q1298.42 32.4315 1294.65 35.9558 Q1290.92 39.4801 1290.35 45.8805 L1316.93 45.84 Z" fill="#000000" fill-rule="evenodd" fill-opacity="1" /><path clip-path="url(#clip710)" d="M 0 0 M1374.33 45.1919 L1374.33 72.576 L1366.88 72.576 L1366.88 45.4349 Q1366.88 38.994 1364.36 35.7938 Q1361.85 32.5936 1356.83 32.5936 Q1350.79 32.5936 1347.31 36.4419 Q1343.83 40.2903 1343.83 46.9338 L1343.83 72.576 L1336.33 72.576 L1336.33 27.2059 L1343.83 27.2059 L1343.83 34.2544 Q1346.5 30.163 1350.11 28.1376 Q1353.75 26.1121 1358.49 26.1121 Q1366.31 26.1121 1370.32 30.9732 Q1374.33 35.7938 1374.33 45.1919 Z" fill="#000000" fill-rule="evenodd" fill-opacity="1" /><path clip-path="url(#clip710)" d="M 0 0 M1428 48.0275 L1428 51.6733 L1393.73 51.6733 Q1394.22 59.3701 1398.35 63.421 Q1402.52 67.4314 1409.94 67.4314 Q1414.23 67.4314 1418.24 66.3781 Q1422.29 65.3249 1426.26 63.2184 L1426.26 70.267 Q1422.25 71.9684 1418.04 72.8596 Q1413.83 73.7508 1409.49 73.7508 Q1398.64 73.7508 1392.28 67.4314 Q1385.96 61.1119 1385.96 50.3365 Q1385.96 39.1965 1391.95 32.6746 Q1397.99 26.1121 1408.2 26.1121 Q1417.35 26.1121 1422.66 32.0264 Q1428 37.9003 1428 48.0275 M1420.55 45.84 Q1420.47 39.7232 1417.11 36.0774 Q1413.79 32.4315 1408.28 32.4315 Q1402.04 32.4315 1398.27 35.9558 Q1394.54 39.4801 1393.98 45.8805 L1420.55 45.84 Z" fill="#000000" fill-rule="evenodd" fill-opacity="1" /><path clip-path="url(#clip710)" d="M 0 0 M1466.53 34.1734 Q1465.27 33.4443 1463.77 33.1202 Q1462.32 32.7556 1460.53 32.7556 Q1454.21 32.7556 1450.81 36.8875 Q1447.45 40.9789 1447.45 48.6757 L1447.45 72.576 L1439.95 72.576 L1439.95 27.2059 L1447.45 27.2059 L1447.45 34.2544 Q1449.8 30.1225 1453.57 28.1376 Q1457.33 26.1121 1462.72 26.1121 Q1463.49 26.1121 1464.42 26.2337 Q1465.35 26.3147 1466.49 26.5172 L1466.53 34.1734 Z" fill="#000000" fill-rule="evenodd" fill-opacity="1" /><path clip-path="url(#clip710)" d="M 0 0 M1502.74 49.3643 Q1502.74 41.2625 1499.38 36.8065 Q1496.06 32.3505 1490.02 32.3505 Q1484.03 32.3505 1480.67 36.8065 Q1477.34 41.2625 1477.34 49.3643 Q1477.34 57.4256 1480.67 61.8816 Q1484.03 66.3376 1490.02 66.3376 Q1496.06 66.3376 1499.38 61.8816 Q1502.74 57.4256 1502.74 49.3643 M1510.2 66.9452 Q1510.2 78.5308 1505.05 84.1616 Q1499.91 89.8329 1489.29 89.8329 Q1485.37 89.8329 1481.88 89.2252 Q1478.4 88.6581 1475.12 87.4428 L1475.12 80.1917 Q1478.4 81.9741 1481.6 82.8248 Q1484.8 83.6755 1488.12 83.6755 Q1495.45 83.6755 1499.1 79.8271 Q1502.74 76.0193 1502.74 68.282 L1502.74 64.5957 Q1500.43 68.6061 1496.83 70.5911 Q1493.22 72.576 1488.2 72.576 Q1479.86 72.576 1474.75 66.2161 Q1469.65 59.8562 1469.65 49.3643 Q1469.65 38.832 1474.75 32.472 Q1479.86 26.1121 1488.2 26.1121 Q1493.22 26.1121 1496.83 28.0971 Q1500.43 30.082 1502.74 34.0924 L1502.74 27.2059 L1510.2 27.2059 L1510.2 66.9452 Z" fill="#000000" fill-rule="evenodd" fill-opacity="1" /><path clip-path="url(#clip710)" d="M 0 0 M1544.43 76.7889 Q1541.27 84.8907 1538.27 87.3618 Q1535.27 89.8329 1530.25 89.8329 L1524.29 89.8329 L1524.29 83.5945 L1528.67 83.5945 Q1531.75 83.5945 1533.45 82.1361 Q1535.15 80.6778 1537.22 75.2496 L1538.55 71.8468 L1520.2 27.2059 L1528.1 27.2059 L1542.28 62.6918 L1556.46 27.2059 L1564.36 27.2059 L1544.43 76.7889 Z" fill="#000000" fill-rule="evenodd" fill-opacity="1" /><polyline clip-path="url(#clip712)" style="stroke:#009af9; stroke-width:12; stroke-opacity:1; fill:none" points="
  546.544,891.837 797.059,1447.87 1047.57,1439.4 1298.09,206.123 1548.6,467.055 1799.12,1006.74 2049.63,1033.44 2300.15,162.047 
  "/>
<path clip-path="url(#clip710)" d="
M1923.1 289.865 L2290.8 289.865 L2290.8 168.905 L1923.1 168.905  Z
  " fill="#ffffff" fill-rule="evenodd" fill-opacity="1"/>
<polyline clip-path="url(#clip710)" style="stroke:#000000; stroke-width:4; stroke-opacity:1; fill:none" points="
  1923.1,289.865 2290.8,289.865 2290.8,168.905 1923.1,168.905 1923.1,289.865 
  "/>
<polyline clip-path="url(#clip710)" style="stroke:#009af9; stroke-width:4; stroke-opacity:1; fill:none" points="
  1943.76,229.385 2067.68,229.385 
  "/>
<path clip-path="url(#clip710)" d="M 0 0 M2112.36 232.637 L2112.36 234.72 L2092.78 234.72 Q2093.05 239.118 2095.41 241.433 Q2097.8 243.725 2102.04 243.725 Q2104.49 243.725 2106.78 243.123 Q2109.1 242.521 2111.36 241.317 L2111.36 245.345 Q2109.07 246.317 2106.66 246.827 Q2104.26 247.336 2101.78 247.336 Q2095.58 247.336 2091.94 243.725 Q2088.33 240.114 2088.33 233.956 Q2088.33 227.591 2091.76 223.864 Q2095.21 220.114 2101.04 220.114 Q2106.27 220.114 2109.3 223.493 Q2112.36 226.85 2112.36 232.637 M2108.1 231.387 Q2108.05 227.892 2106.13 225.808 Q2104.23 223.725 2101.09 223.725 Q2097.52 223.725 2095.37 225.739 Q2093.24 227.753 2092.91 231.41 L2108.1 231.387 Z" fill="#000000" fill-rule="evenodd" fill-opacity="1" /><path clip-path="url(#clip710)" d="M 0 0 M2140.9 231.017 L2140.9 246.665 L2136.64 246.665 L2136.64 231.155 Q2136.64 227.475 2135.21 225.646 Q2133.77 223.818 2130.9 223.818 Q2127.45 223.818 2125.46 226.017 Q2123.47 228.216 2123.47 232.012 L2123.47 246.665 L2119.19 246.665 L2119.19 220.739 L2123.47 220.739 L2123.47 224.767 Q2125 222.429 2127.06 221.271 Q2129.14 220.114 2131.85 220.114 Q2136.32 220.114 2138.61 222.892 Q2140.9 225.646 2140.9 231.017 Z" fill="#000000" fill-rule="evenodd" fill-opacity="1" /><path clip-path="url(#clip710)" d="M 0 0 M2171.57 232.637 L2171.57 234.72 L2151.99 234.72 Q2152.27 239.118 2154.63 241.433 Q2157.01 243.725 2161.25 243.725 Q2163.7 243.725 2165.99 243.123 Q2168.31 242.521 2170.58 241.317 L2170.58 245.345 Q2168.28 246.317 2165.88 246.827 Q2163.47 247.336 2160.99 247.336 Q2154.79 247.336 2151.16 243.725 Q2147.54 240.114 2147.54 233.956 Q2147.54 227.591 2150.97 223.864 Q2154.42 220.114 2160.25 220.114 Q2165.48 220.114 2168.52 223.493 Q2171.57 226.85 2171.57 232.637 M2167.31 231.387 Q2167.27 227.892 2165.35 225.808 Q2163.45 223.725 2160.3 223.725 Q2156.73 223.725 2154.58 225.739 Q2152.45 227.753 2152.13 231.41 L2167.31 231.387 Z" fill="#000000" fill-rule="evenodd" fill-opacity="1" /><path clip-path="url(#clip710)" d="M 0 0 M2193.59 224.72 Q2192.87 224.304 2192.01 224.118 Q2191.18 223.91 2190.16 223.91 Q2186.55 223.91 2184.6 226.271 Q2182.68 228.609 2182.68 233.007 L2182.68 246.665 L2178.4 246.665 L2178.4 220.739 L2182.68 220.739 L2182.68 224.767 Q2184.03 222.406 2186.18 221.271 Q2188.33 220.114 2191.41 220.114 Q2191.85 220.114 2192.38 220.183 Q2192.91 220.23 2193.56 220.345 L2193.59 224.72 Z" fill="#000000" fill-rule="evenodd" fill-opacity="1" /><path clip-path="url(#clip710)" d="M 0 0 M2214.28 233.401 Q2214.28 228.771 2212.36 226.225 Q2210.46 223.679 2207.01 223.679 Q2203.59 223.679 2201.66 226.225 Q2199.77 228.771 2199.77 233.401 Q2199.77 238.007 2201.66 240.554 Q2203.59 243.1 2207.01 243.1 Q2210.46 243.1 2212.36 240.554 Q2214.28 238.007 2214.28 233.401 M2218.54 243.447 Q2218.54 250.067 2215.6 253.285 Q2212.66 256.526 2206.59 256.526 Q2204.35 256.526 2202.36 256.178 Q2200.37 255.854 2198.49 255.16 L2198.49 251.016 Q2200.37 252.035 2202.2 252.521 Q2204.03 253.007 2205.92 253.007 Q2210.11 253.007 2212.2 250.808 Q2214.28 248.632 2214.28 244.211 L2214.28 242.104 Q2212.96 244.396 2210.9 245.53 Q2208.84 246.665 2205.97 246.665 Q2201.2 246.665 2198.28 243.03 Q2195.37 239.396 2195.37 233.401 Q2195.37 227.382 2198.28 223.748 Q2201.2 220.114 2205.97 220.114 Q2208.84 220.114 2210.9 221.248 Q2212.96 222.382 2214.28 224.674 L2214.28 220.739 L2218.54 220.739 L2218.54 243.447 Z" fill="#000000" fill-rule="evenodd" fill-opacity="1" /><path clip-path="url(#clip710)" d="M 0 0 M2238.1 249.072 Q2236.29 253.702 2234.58 255.114 Q2232.87 256.526 2230 256.526 L2226.59 256.526 L2226.59 252.961 L2229.09 252.961 Q2230.85 252.961 2231.83 252.128 Q2232.8 251.294 2233.98 248.192 L2234.74 246.248 L2224.26 220.739 L2228.77 220.739 L2236.87 241.017 L2244.97 220.739 L2249.49 220.739 L2238.1 249.072 Z" fill="#000000" fill-rule="evenodd" fill-opacity="1" /></svg>
