<?xml version="1.0" encoding="utf-8"?>
<svg xmlns="http://www.w3.org/2000/svg" xmlns:xlink="http://www.w3.org/1999/xlink" width="600" height="400" viewBox="0 0 2400 1600">
<defs>
  <clipPath id="clip200">
    <rect x="0" y="0" width="2400" height="1600"/>
  </clipPath>
</defs>
<path clip-path="url(#clip200)" d="
M0 1600 L2400 1600 L2400 0 L0 0  Z
  " fill="#ffffff" fill-rule="evenodd" fill-opacity="1"/>
<defs>
  <clipPath id="clip201">
    <rect x="480" y="0" width="1681" height="1600"/>
  </clipPath>
</defs>
<path clip-path="url(#clip200)" d="
M314.583 1486.45 L2352.76 1486.45 L2352.76 123.472 L314.583 123.472  Z
  " fill="#ffffff" fill-rule="evenodd" fill-opacity="1"/>
<defs>
  <clipPath id="clip202">
    <rect x="314" y="123" width="2039" height="1364"/>
  </clipPath>
</defs>
<polyline clip-path="url(#clip202)" style="stroke:#000000; stroke-width:2; stroke-opacity:0.1; fill:none" points="
  372.268,1486.45 372.268,123.472 
  "/>
<polyline clip-path="url(#clip202)" style="stroke:#000000; stroke-width:2; stroke-opacity:0.1; fill:none" points="
  921.64,1486.45 921.64,123.472 
  "/>
<polyline clip-path="url(#clip202)" style="stroke:#000000; stroke-width:2; stroke-opacity:0.1; fill:none" points="
  1471.01,1486.45 1471.01,123.472 
  "/>
<polyline clip-path="url(#clip202)" style="stroke:#000000; stroke-width:2; stroke-opacity:0.1; fill:none" points="
  2020.39,1486.45 2020.39,123.472 
  "/>
<polyline clip-path="url(#clip200)" style="stroke:#000000; stroke-width:4; stroke-opacity:1; fill:none" points="
  314.583,1486.45 2352.76,1486.45 
  "/>
<polyline clip-path="url(#clip200)" style="stroke:#000000; stroke-width:4; stroke-opacity:1; fill:none" points="
  372.268,1486.45 372.268,1470.09 
  "/>
<polyline clip-path="url(#clip200)" style="stroke:#000000; stroke-width:4; stroke-opacity:1; fill:none" points="
  921.64,1486.45 921.64,1470.09 
  "/>
<polyline clip-path="url(#clip200)" style="stroke:#000000; stroke-width:4; stroke-opacity:1; fill:none" points="
  1471.01,1486.45 1471.01,1470.09 
  "/>
<polyline clip-path="url(#clip200)" style="stroke:#000000; stroke-width:4; stroke-opacity:1; fill:none" points="
  2020.39,1486.45 2020.39,1470.09 
  "/>
<path clip-path="url(#clip200)" d="M 0 0 M357.14 1530.71 Q353.807 1530.71 351.886 1532.49 Q349.988 1534.27 349.988 1537.4 Q349.988 1540.52 351.886 1542.31 Q353.807 1544.09 357.14 1544.09 Q360.474 1544.09 362.395 1542.31 Q364.316 1540.5 364.316 1537.4 Q364.316 1534.27 362.395 1532.49 Q360.497 1530.71 357.14 1530.71 M352.464 1528.72 Q349.455 1527.98 347.765 1525.92 Q346.099 1523.86 346.099 1520.89 Q346.099 1516.75 349.039 1514.34 Q352.002 1511.93 357.14 1511.93 Q362.302 1511.93 365.242 1514.34 Q368.182 1516.75 368.182 1520.89 Q368.182 1523.86 366.492 1525.92 Q364.826 1527.98 361.839 1528.72 Q365.219 1529.5 367.094 1531.8 Q368.992 1534.09 368.992 1537.4 Q368.992 1542.42 365.913 1545.11 Q362.858 1547.79 357.14 1547.79 Q351.423 1547.79 348.344 1545.11 Q345.289 1542.42 345.289 1537.4 Q345.289 1534.09 347.187 1531.8 Q349.085 1529.5 352.464 1528.72 M350.752 1521.33 Q350.752 1524.02 352.418 1525.52 Q354.108 1527.03 357.14 1527.03 Q360.15 1527.03 361.839 1525.52 Q363.552 1524.02 363.552 1521.33 Q363.552 1518.65 361.839 1517.14 Q360.15 1515.64 357.14 1515.64 Q354.108 1515.64 352.418 1517.14 Q350.752 1518.65 350.752 1521.33 Z" fill="#000000" fill-rule="evenodd" fill-opacity="1" /><path clip-path="url(#clip200)" d="M 0 0 M387.302 1515.64 Q383.691 1515.64 381.862 1519.2 Q380.057 1522.75 380.057 1529.87 Q380.057 1536.98 381.862 1540.55 Q383.691 1544.09 387.302 1544.09 Q390.937 1544.09 392.742 1540.55 Q394.571 1536.98 394.571 1529.87 Q394.571 1522.75 392.742 1519.2 Q390.937 1515.64 387.302 1515.64 M387.302 1511.93 Q393.112 1511.93 396.168 1516.54 Q399.247 1521.12 399.247 1529.87 Q399.247 1538.6 396.168 1543.21 Q393.112 1547.79 387.302 1547.79 Q381.492 1547.79 378.413 1543.21 Q375.358 1538.6 375.358 1529.87 Q375.358 1521.12 378.413 1516.54 Q381.492 1511.93 387.302 1511.93 Z" fill="#000000" fill-rule="evenodd" fill-opacity="1" /><path clip-path="url(#clip200)" d="M 0 0 M881.247 1543.18 L888.886 1543.18 L888.886 1516.82 L880.576 1518.49 L880.576 1514.23 L888.839 1512.56 L893.515 1512.56 L893.515 1543.18 L901.154 1543.18 L901.154 1547.12 L881.247 1547.12 L881.247 1543.18 Z" fill="#000000" fill-rule="evenodd" fill-opacity="1" /><path clip-path="url(#clip200)" d="M 0 0 M920.599 1515.64 Q916.987 1515.64 915.159 1519.2 Q913.353 1522.75 913.353 1529.87 Q913.353 1536.98 915.159 1540.55 Q916.987 1544.09 920.599 1544.09 Q924.233 1544.09 926.038 1540.55 Q927.867 1536.98 927.867 1529.87 Q927.867 1522.75 926.038 1519.2 Q924.233 1515.64 920.599 1515.64 M920.599 1511.93 Q926.409 1511.93 929.464 1516.54 Q932.543 1521.12 932.543 1529.87 Q932.543 1538.6 929.464 1543.21 Q926.409 1547.79 920.599 1547.79 Q914.788 1547.79 911.71 1543.21 Q908.654 1538.6 908.654 1529.87 Q908.654 1521.12 911.71 1516.54 Q914.788 1511.93 920.599 1511.93 Z" fill="#000000" fill-rule="evenodd" fill-opacity="1" /><path clip-path="url(#clip200)" d="M 0 0 M950.76 1515.64 Q947.149 1515.64 945.321 1519.2 Q943.515 1522.75 943.515 1529.87 Q943.515 1536.98 945.321 1540.55 Q947.149 1544.09 950.76 1544.09 Q954.395 1544.09 956.2 1540.55 Q958.029 1536.98 958.029 1529.87 Q958.029 1522.75 956.2 1519.2 Q954.395 1515.64 950.76 1515.64 M950.76 1511.93 Q956.571 1511.93 959.626 1516.54 Q962.705 1521.12 962.705 1529.87 Q962.705 1538.6 959.626 1543.21 Q956.571 1547.79 950.76 1547.79 Q944.95 1547.79 941.872 1543.21 Q938.816 1538.6 938.816 1529.87 Q938.816 1521.12 941.872 1516.54 Q944.95 1511.93 950.76 1511.93 Z" fill="#000000" fill-rule="evenodd" fill-opacity="1" /><path clip-path="url(#clip200)" d="M 0 0 M1430.62 1543.18 L1438.26 1543.18 L1438.26 1516.82 L1429.95 1518.49 L1429.95 1514.23 L1438.21 1512.56 L1442.89 1512.56 L1442.89 1543.18 L1450.53 1543.18 L1450.53 1547.12 L1430.62 1547.12 L1430.62 1543.18 Z" fill="#000000" fill-rule="evenodd" fill-opacity="1" /><path clip-path="url(#clip200)" d="M 0 0 M1464 1543.18 L1480.32 1543.18 L1480.32 1547.12 L1458.37 1547.12 L1458.37 1543.18 Q1461.04 1540.43 1465.62 1535.8 Q1470.23 1531.15 1471.41 1529.81 Q1473.65 1527.28 1474.53 1525.55 Q1475.43 1523.79 1475.43 1522.1 Q1475.43 1519.34 1473.49 1517.61 Q1471.57 1515.87 1468.47 1515.87 Q1466.27 1515.87 1463.81 1516.63 Q1461.38 1517.4 1458.61 1518.95 L1458.61 1514.23 Q1461.43 1513.09 1463.88 1512.51 Q1466.34 1511.93 1468.37 1511.93 Q1473.74 1511.93 1476.94 1514.62 Q1480.13 1517.31 1480.13 1521.8 Q1480.13 1523.93 1479.32 1525.85 Q1478.54 1527.74 1476.43 1530.34 Q1475.85 1531.01 1472.75 1534.23 Q1469.65 1537.42 1464 1543.18 Z" fill="#000000" fill-rule="evenodd" fill-opacity="1" /><path clip-path="url(#clip200)" d="M 0 0 M1500.13 1515.64 Q1496.52 1515.64 1494.69 1519.2 Q1492.89 1522.75 1492.89 1529.87 Q1492.89 1536.98 1494.69 1540.55 Q1496.52 1544.09 1500.13 1544.09 Q1503.77 1544.09 1505.57 1540.55 Q1507.4 1536.98 1507.4 1529.87 Q1507.4 1522.75 1505.57 1519.2 Q1503.77 1515.64 1500.13 1515.64 M1500.13 1511.93 Q1505.94 1511.93 1509 1516.54 Q1512.08 1521.12 1512.08 1529.87 Q1512.08 1538.6 1509 1543.21 Q1505.94 1547.79 1500.13 1547.79 Q1494.32 1547.79 1491.24 1543.21 Q1488.19 1538.6 1488.19 1529.87 Q1488.19 1521.12 1491.24 1516.54 Q1494.32 1511.93 1500.13 1511.93 Z" fill="#000000" fill-rule="evenodd" fill-opacity="1" /><path clip-path="url(#clip200)" d="M 0 0 M1979.99 1543.18 L1987.63 1543.18 L1987.63 1516.82 L1979.32 1518.49 L1979.32 1514.23 L1987.58 1512.56 L1992.26 1512.56 L1992.26 1543.18 L1999.9 1543.18 L1999.9 1547.12 L1979.99 1547.12 L1979.99 1543.18 Z" fill="#000000" fill-rule="evenodd" fill-opacity="1" /><path clip-path="url(#clip200)" d="M 0 0 M2022.19 1516.63 L2010.39 1535.08 L2022.19 1535.08 L2022.19 1516.63 M2020.96 1512.56 L2026.84 1512.56 L2026.84 1535.08 L2031.77 1535.08 L2031.77 1538.97 L2026.84 1538.97 L2026.84 1547.12 L2022.19 1547.12 L2022.19 1538.97 L2006.59 1538.97 L2006.59 1534.46 L2020.96 1512.56 Z" fill="#000000" fill-rule="evenodd" fill-opacity="1" /><path clip-path="url(#clip200)" d="M 0 0 M2049.51 1515.64 Q2045.89 1515.64 2044.07 1519.2 Q2042.26 1522.75 2042.26 1529.87 Q2042.26 1536.98 2044.07 1540.55 Q2045.89 1544.09 2049.51 1544.09 Q2053.14 1544.09 2054.95 1540.55 Q2056.77 1536.98 2056.77 1529.87 Q2056.77 1522.75 2054.95 1519.2 Q2053.14 1515.64 2049.51 1515.64 M2049.51 1511.93 Q2055.32 1511.93 2058.37 1516.54 Q2061.45 1521.12 2061.45 1529.87 Q2061.45 1538.6 2058.37 1543.21 Q2055.32 1547.79 2049.51 1547.79 Q2043.7 1547.79 2040.62 1543.21 Q2037.56 1538.6 2037.56 1529.87 Q2037.56 1521.12 2040.62 1516.54 Q2043.7 1511.93 2049.51 1511.93 Z" fill="#000000" fill-rule="evenodd" fill-opacity="1" /><polyline clip-path="url(#clip202)" style="stroke:#000000; stroke-width:2; stroke-opacity:0.1; fill:none" points="
  314.583,1288.16 2352.76,1288.16 
  "/>
<polyline clip-path="url(#clip202)" style="stroke:#000000; stroke-width:2; stroke-opacity:0.1; fill:none" points="
  314.583,1053.9 2352.76,1053.9 
  "/>
<polyline clip-path="url(#clip202)" style="stroke:#000000; stroke-width:2; stroke-opacity:0.1; fill:none" points="
  314.583,819.648 2352.76,819.648 
  "/>
<polyline clip-path="url(#clip202)" style="stroke:#000000; stroke-width:2; stroke-opacity:0.1; fill:none" points="
  314.583,585.393 2352.76,585.393 
  "/>
<polyline clip-path="url(#clip202)" style="stroke:#000000; stroke-width:2; stroke-opacity:0.1; fill:none" points="
  314.583,351.138 2352.76,351.138 
  "/>
<polyline clip-path="url(#clip200)" style="stroke:#000000; stroke-width:4; stroke-opacity:1; fill:none" points="
  314.583,1486.45 314.583,123.472 
  "/>
<polyline clip-path="url(#clip200)" style="stroke:#000000; stroke-width:4; stroke-opacity:1; fill:none" points="
  314.583,1288.16 339.042,1288.16 
  "/>
<polyline clip-path="url(#clip200)" style="stroke:#000000; stroke-width:4; stroke-opacity:1; fill:none" points="
  314.583,1053.9 339.042,1053.9 
  "/>
<polyline clip-path="url(#clip200)" style="stroke:#000000; stroke-width:4; stroke-opacity:1; fill:none" points="
  314.583,819.648 339.042,819.648 
  "/>
<polyline clip-path="url(#clip200)" style="stroke:#000000; stroke-width:4; stroke-opacity:1; fill:none" points="
  314.583,585.393 339.042,585.393 
  "/>
<polyline clip-path="url(#clip200)" style="stroke:#000000; stroke-width:4; stroke-opacity:1; fill:none" points="
  314.583,351.138 339.042,351.138 
  "/>
<path clip-path="url(#clip200)" d="M 0 0 M51.9875 1288.61 L81.6633 1288.61 L81.6633 1292.54 L51.9875 1292.54 L51.9875 1288.61 Z" fill="#000000" fill-rule="evenodd" fill-opacity="1" /><path clip-path="url(#clip200)" d="M 0 0 M101.756 1273.96 Q98.1447 1273.96 96.316 1277.52 Q94.5104 1281.06 94.5104 1288.19 Q94.5104 1295.3 96.316 1298.86 Q98.1447 1302.41 101.756 1302.41 Q105.39 1302.41 107.196 1298.86 Q109.024 1295.3 109.024 1288.19 Q109.024 1281.06 107.196 1277.52 Q105.39 1273.96 101.756 1273.96 M101.756 1270.25 Q107.566 1270.25 110.621 1274.86 Q113.7 1279.44 113.7 1288.19 Q113.7 1296.92 110.621 1301.53 Q107.566 1306.11 101.756 1306.11 Q95.9456 1306.11 92.8669 1301.53 Q89.8114 1296.92 89.8114 1288.19 Q89.8114 1279.44 92.8669 1274.86 Q95.9456 1270.25 101.756 1270.25 Z" fill="#000000" fill-rule="evenodd" fill-opacity="1" /><path clip-path="url(#clip200)" d="M 0 0 M121.918 1299.56 L126.802 1299.56 L126.802 1305.44 L121.918 1305.44 L121.918 1299.56 Z" fill="#000000" fill-rule="evenodd" fill-opacity="1" /><path clip-path="url(#clip200)" d="M 0 0 M147.566 1286.29 Q144.418 1286.29 142.566 1288.45 Q140.737 1290.6 140.737 1294.35 Q140.737 1298.08 142.566 1300.25 Q144.418 1302.41 147.566 1302.41 Q150.714 1302.41 152.543 1300.25 Q154.394 1298.08 154.394 1294.35 Q154.394 1290.6 152.543 1288.45 Q150.714 1286.29 147.566 1286.29 M156.848 1271.64 L156.848 1275.9 Q155.089 1275.07 153.283 1274.63 Q151.501 1274.19 149.742 1274.19 Q145.112 1274.19 142.658 1277.31 Q140.228 1280.44 139.881 1286.76 Q141.246 1284.74 143.306 1283.68 Q145.367 1282.59 147.843 1282.59 Q153.052 1282.59 156.061 1285.76 Q159.093 1288.91 159.093 1294.35 Q159.093 1299.67 155.945 1302.89 Q152.797 1306.11 147.566 1306.11 Q141.57 1306.11 138.399 1301.53 Q135.228 1296.92 135.228 1288.19 Q135.228 1280 139.117 1275.14 Q143.006 1270.25 149.556 1270.25 Q151.316 1270.25 153.098 1270.6 Q154.904 1270.95 156.848 1271.64 Z" fill="#000000" fill-rule="evenodd" fill-opacity="1" /><path clip-path="url(#clip200)" d="M 0 0 M177.728 1286.29 Q174.579 1286.29 172.728 1288.45 Q170.899 1290.6 170.899 1294.35 Q170.899 1298.08 172.728 1300.25 Q174.579 1302.41 177.728 1302.41 Q180.876 1302.41 182.704 1300.25 Q184.556 1298.08 184.556 1294.35 Q184.556 1290.6 182.704 1288.45 Q180.876 1286.29 177.728 1286.29 M187.01 1271.64 L187.01 1275.9 Q185.251 1275.07 183.445 1274.63 Q181.663 1274.19 179.903 1274.19 Q175.274 1274.19 172.82 1277.31 Q170.39 1280.44 170.042 1286.76 Q171.408 1284.74 173.468 1283.68 Q175.528 1282.59 178.005 1282.59 Q183.214 1282.59 186.223 1285.76 Q189.255 1288.91 189.255 1294.35 Q189.255 1299.67 186.107 1302.89 Q182.959 1306.11 177.728 1306.11 Q171.732 1306.11 168.561 1301.53 Q165.39 1296.92 165.39 1288.19 Q165.39 1280 169.279 1275.14 Q173.167 1270.25 179.718 1270.25 Q181.478 1270.25 183.26 1270.6 Q185.065 1270.95 187.01 1271.64 Z" fill="#000000" fill-rule="evenodd" fill-opacity="1" /><path clip-path="url(#clip200)" d="M 0 0 M197.45 1304.72 L197.45 1300.46 Q199.209 1301.29 201.014 1301.73 Q202.82 1302.17 204.556 1302.17 Q209.186 1302.17 211.616 1299.07 Q214.07 1295.95 214.417 1289.6 Q213.075 1291.59 211.014 1292.66 Q208.954 1293.72 206.454 1293.72 Q201.269 1293.72 198.237 1290.6 Q195.227 1287.45 195.227 1282.01 Q195.227 1276.69 198.376 1273.47 Q201.524 1270.25 206.755 1270.25 Q212.751 1270.25 215.899 1274.86 Q219.07 1279.44 219.07 1288.19 Q219.07 1296.36 215.181 1301.25 Q211.315 1306.11 204.764 1306.11 Q203.005 1306.11 201.2 1305.76 Q199.394 1305.41 197.45 1304.72 M206.755 1290.07 Q209.903 1290.07 211.732 1287.91 Q213.584 1285.76 213.584 1282.01 Q213.584 1278.28 211.732 1276.13 Q209.903 1273.96 206.755 1273.96 Q203.607 1273.96 201.755 1276.13 Q199.927 1278.28 199.927 1282.01 Q199.927 1285.76 201.755 1287.91 Q203.607 1290.07 206.755 1290.07 Z" fill="#000000" fill-rule="evenodd" fill-opacity="1" /><path clip-path="url(#clip200)" d="M 0 0 M227.519 1270.88 L245.875 1270.88 L245.875 1274.81 L231.801 1274.81 L231.801 1283.28 Q232.82 1282.94 233.838 1282.78 Q234.857 1282.59 235.875 1282.59 Q241.662 1282.59 245.042 1285.76 Q248.422 1288.93 248.422 1294.35 Q248.422 1299.93 244.949 1303.03 Q241.477 1306.11 235.158 1306.11 Q232.982 1306.11 230.713 1305.74 Q228.468 1305.37 226.061 1304.63 L226.061 1299.93 Q228.144 1301.06 230.366 1301.62 Q232.588 1302.17 235.065 1302.17 Q239.07 1302.17 241.408 1300.07 Q243.746 1297.96 243.746 1294.35 Q243.746 1290.74 241.408 1288.63 Q239.07 1286.53 235.065 1286.53 Q233.19 1286.53 231.315 1286.94 Q229.463 1287.36 227.519 1288.24 L227.519 1270.88 Z" fill="#000000" fill-rule="evenodd" fill-opacity="1" /><path clip-path="url(#clip200)" d="M 0 0 M257.681 1270.88 L276.037 1270.88 L276.037 1274.81 L261.963 1274.81 L261.963 1283.28 Q262.982 1282.94 264 1282.78 Q265.019 1282.59 266.037 1282.59 Q271.824 1282.59 275.204 1285.76 Q278.583 1288.93 278.583 1294.35 Q278.583 1299.93 275.111 1303.03 Q271.639 1306.11 265.32 1306.11 Q263.144 1306.11 260.875 1305.74 Q258.63 1305.37 256.223 1304.63 L256.223 1299.93 Q258.306 1301.06 260.528 1301.62 Q262.75 1302.17 265.227 1302.17 Q269.232 1302.17 271.57 1300.07 Q273.908 1297.96 273.908 1294.35 Q273.908 1290.74 271.57 1288.63 Q269.232 1286.53 265.227 1286.53 Q263.352 1286.53 261.477 1286.94 Q259.625 1287.36 257.681 1288.24 L257.681 1270.88 Z" fill="#000000" fill-rule="evenodd" fill-opacity="1" /><path clip-path="url(#clip200)" d="M 0 0 M50.9921 1054.35 L80.6679 1054.35 L80.6679 1058.29 L50.9921 1058.29 L50.9921 1054.35 Z" fill="#000000" fill-rule="evenodd" fill-opacity="1" /><path clip-path="url(#clip200)" d="M 0 0 M100.76 1039.7 Q97.1493 1039.7 95.3206 1043.27 Q93.515 1046.81 93.515 1053.94 Q93.515 1061.04 95.3206 1064.61 Q97.1493 1068.15 100.76 1068.15 Q104.395 1068.15 106.2 1064.61 Q108.029 1061.04 108.029 1053.94 Q108.029 1046.81 106.2 1043.27 Q104.395 1039.7 100.76 1039.7 M100.76 1036 Q106.571 1036 109.626 1040.6 Q112.705 1045.19 112.705 1053.94 Q112.705 1062.66 109.626 1067.27 Q106.571 1071.85 100.76 1071.85 Q94.9502 1071.85 91.8715 1067.27 Q88.816 1062.66 88.816 1053.94 Q88.816 1045.19 91.8715 1040.6 Q94.9502 1036 100.76 1036 Z" fill="#000000" fill-rule="evenodd" fill-opacity="1" /><path clip-path="url(#clip200)" d="M 0 0 M120.922 1065.3 L125.807 1065.3 L125.807 1071.18 L120.922 1071.18 L120.922 1065.3 Z" fill="#000000" fill-rule="evenodd" fill-opacity="1" /><path clip-path="url(#clip200)" d="M 0 0 M146.57 1052.04 Q143.422 1052.04 141.57 1054.19 Q139.742 1056.34 139.742 1060.09 Q139.742 1063.82 141.57 1066 Q143.422 1068.15 146.57 1068.15 Q149.718 1068.15 151.547 1066 Q153.399 1063.82 153.399 1060.09 Q153.399 1056.34 151.547 1054.19 Q149.718 1052.04 146.57 1052.04 M155.853 1037.39 L155.853 1041.65 Q154.093 1040.81 152.288 1040.37 Q150.505 1039.93 148.746 1039.93 Q144.117 1039.93 141.663 1043.06 Q139.232 1046.18 138.885 1052.5 Q140.251 1050.49 142.311 1049.42 Q144.371 1048.34 146.848 1048.34 Q152.056 1048.34 155.066 1051.51 Q158.098 1054.65 158.098 1060.09 Q158.098 1065.42 154.95 1068.64 Q151.802 1071.85 146.57 1071.85 Q140.575 1071.85 137.404 1067.27 Q134.232 1062.66 134.232 1053.94 Q134.232 1045.74 138.121 1040.88 Q142.01 1036 148.561 1036 Q150.32 1036 152.103 1036.34 Q153.908 1036.69 155.853 1037.39 Z" fill="#000000" fill-rule="evenodd" fill-opacity="1" /><path clip-path="url(#clip200)" d="M 0 0 M176.732 1052.04 Q173.584 1052.04 171.732 1054.19 Q169.904 1056.34 169.904 1060.09 Q169.904 1063.82 171.732 1066 Q173.584 1068.15 176.732 1068.15 Q179.88 1068.15 181.709 1066 Q183.561 1063.82 183.561 1060.09 Q183.561 1056.34 181.709 1054.19 Q179.88 1052.04 176.732 1052.04 M186.015 1037.39 L186.015 1041.65 Q184.255 1040.81 182.45 1040.37 Q180.667 1039.93 178.908 1039.93 Q174.279 1039.93 171.825 1043.06 Q169.394 1046.18 169.047 1052.5 Q170.413 1050.49 172.473 1049.42 Q174.533 1048.34 177.01 1048.34 Q182.218 1048.34 185.228 1051.51 Q188.26 1054.65 188.26 1060.09 Q188.26 1065.42 185.112 1068.64 Q181.964 1071.85 176.732 1071.85 Q170.737 1071.85 167.566 1067.27 Q164.394 1062.66 164.394 1053.94 Q164.394 1045.74 168.283 1040.88 Q172.172 1036 178.723 1036 Q180.482 1036 182.265 1036.34 Q184.07 1036.69 186.015 1037.39 Z" fill="#000000" fill-rule="evenodd" fill-opacity="1" /><path clip-path="url(#clip200)" d="M 0 0 M196.454 1070.46 L196.454 1066.21 Q198.214 1067.04 200.019 1067.48 Q201.825 1067.92 203.561 1067.92 Q208.19 1067.92 210.621 1064.82 Q213.075 1061.69 213.422 1055.35 Q212.079 1057.34 210.019 1058.4 Q207.959 1059.47 205.459 1059.47 Q200.274 1059.47 197.241 1056.34 Q194.232 1053.2 194.232 1047.76 Q194.232 1042.43 197.38 1039.22 Q200.528 1036 205.76 1036 Q211.755 1036 214.903 1040.6 Q218.075 1045.19 218.075 1053.94 Q218.075 1062.11 214.186 1066.99 Q210.32 1071.85 203.769 1071.85 Q202.01 1071.85 200.204 1071.51 Q198.399 1071.16 196.454 1070.46 M205.76 1055.81 Q208.908 1055.81 210.737 1053.66 Q212.588 1051.51 212.588 1047.76 Q212.588 1044.03 210.737 1041.88 Q208.908 1039.7 205.76 1039.7 Q202.612 1039.7 200.76 1041.88 Q198.931 1044.03 198.931 1047.76 Q198.931 1051.51 200.76 1053.66 Q202.612 1055.81 205.76 1055.81 Z" fill="#000000" fill-rule="evenodd" fill-opacity="1" /><path clip-path="url(#clip200)" d="M 0 0 M226.524 1036.62 L244.88 1036.62 L244.88 1040.56 L230.806 1040.56 L230.806 1049.03 Q231.824 1048.68 232.843 1048.52 Q233.862 1048.34 234.88 1048.34 Q240.667 1048.34 244.047 1051.51 Q247.426 1054.68 247.426 1060.09 Q247.426 1065.67 243.954 1068.78 Q240.482 1071.85 234.162 1071.85 Q231.987 1071.85 229.718 1071.48 Q227.473 1071.11 225.065 1070.37 L225.065 1065.67 Q227.149 1066.81 229.371 1067.36 Q231.593 1067.92 234.07 1067.92 Q238.074 1067.92 240.412 1065.81 Q242.75 1063.71 242.75 1060.09 Q242.75 1056.48 240.412 1054.38 Q238.074 1052.27 234.07 1052.27 Q232.195 1052.27 230.32 1052.69 Q228.468 1053.1 226.524 1053.98 L226.524 1036.62 Z" fill="#000000" fill-rule="evenodd" fill-opacity="1" /><path clip-path="url(#clip200)" d="M 0 0 M266.639 1039.7 Q263.028 1039.7 261.199 1043.27 Q259.394 1046.81 259.394 1053.94 Q259.394 1061.04 261.199 1064.61 Q263.028 1068.15 266.639 1068.15 Q270.273 1068.15 272.079 1064.61 Q273.908 1061.04 273.908 1053.94 Q273.908 1046.81 272.079 1043.27 Q270.273 1039.7 266.639 1039.7 M266.639 1036 Q272.449 1036 275.505 1040.6 Q278.583 1045.19 278.583 1053.94 Q278.583 1062.66 275.505 1067.27 Q272.449 1071.85 266.639 1071.85 Q260.829 1071.85 257.75 1067.27 Q254.695 1062.66 254.695 1053.94 Q254.695 1045.19 257.75 1040.6 Q260.829 1036 266.639 1036 Z" fill="#000000" fill-rule="evenodd" fill-opacity="1" /><path clip-path="url(#clip200)" d="M 0 0 M51.9875 820.099 L81.6633 820.099 L81.6633 824.034 L51.9875 824.034 L51.9875 820.099 Z" fill="#000000" fill-rule="evenodd" fill-opacity="1" /><path clip-path="url(#clip200)" d="M 0 0 M101.756 805.446 Q98.1447 805.446 96.316 809.011 Q94.5104 812.553 94.5104 819.682 Q94.5104 826.789 96.316 830.354 Q98.1447 833.895 101.756 833.895 Q105.39 833.895 107.196 830.354 Q109.024 826.789 109.024 819.682 Q109.024 812.553 107.196 809.011 Q105.39 805.446 101.756 805.446 M101.756 801.743 Q107.566 801.743 110.621 806.349 Q113.7 810.932 113.7 819.682 Q113.7 828.409 110.621 833.016 Q107.566 837.599 101.756 837.599 Q95.9456 837.599 92.8669 833.016 Q89.8114 828.409 89.8114 819.682 Q89.8114 810.932 92.8669 806.349 Q95.9456 801.743 101.756 801.743 Z" fill="#000000" fill-rule="evenodd" fill-opacity="1" /><path clip-path="url(#clip200)" d="M 0 0 M121.918 831.048 L126.802 831.048 L126.802 836.928 L121.918 836.928 L121.918 831.048 Z" fill="#000000" fill-rule="evenodd" fill-opacity="1" /><path clip-path="url(#clip200)" d="M 0 0 M147.566 817.784 Q144.418 817.784 142.566 819.937 Q140.737 822.09 140.737 825.84 Q140.737 829.567 142.566 831.742 Q144.418 833.895 147.566 833.895 Q150.714 833.895 152.543 831.742 Q154.394 829.567 154.394 825.84 Q154.394 822.09 152.543 819.937 Q150.714 817.784 147.566 817.784 M156.848 803.132 L156.848 807.391 Q155.089 806.557 153.283 806.118 Q151.501 805.678 149.742 805.678 Q145.112 805.678 142.658 808.803 Q140.228 811.928 139.881 818.247 Q141.246 816.233 143.306 815.169 Q145.367 814.081 147.843 814.081 Q153.052 814.081 156.061 817.252 Q159.093 820.4 159.093 825.84 Q159.093 831.164 155.945 834.381 Q152.797 837.599 147.566 837.599 Q141.57 837.599 138.399 833.016 Q135.228 828.409 135.228 819.682 Q135.228 811.488 139.117 806.627 Q143.006 801.743 149.556 801.743 Q151.316 801.743 153.098 802.09 Q154.904 802.437 156.848 803.132 Z" fill="#000000" fill-rule="evenodd" fill-opacity="1" /><path clip-path="url(#clip200)" d="M 0 0 M177.728 817.784 Q174.579 817.784 172.728 819.937 Q170.899 822.09 170.899 825.84 Q170.899 829.567 172.728 831.742 Q174.579 833.895 177.728 833.895 Q180.876 833.895 182.704 831.742 Q184.556 829.567 184.556 825.84 Q184.556 822.09 182.704 819.937 Q180.876 817.784 177.728 817.784 M187.01 803.132 L187.01 807.391 Q185.251 806.557 183.445 806.118 Q181.663 805.678 179.903 805.678 Q175.274 805.678 172.82 808.803 Q170.39 811.928 170.042 818.247 Q171.408 816.233 173.468 815.169 Q175.528 814.081 178.005 814.081 Q183.214 814.081 186.223 817.252 Q189.255 820.4 189.255 825.84 Q189.255 831.164 186.107 834.381 Q182.959 837.599 177.728 837.599 Q171.732 837.599 168.561 833.016 Q165.39 828.409 165.39 819.682 Q165.39 811.488 169.279 806.627 Q173.167 801.743 179.718 801.743 Q181.478 801.743 183.26 802.09 Q185.065 802.437 187.01 803.132 Z" fill="#000000" fill-rule="evenodd" fill-opacity="1" /><path clip-path="url(#clip200)" d="M 0 0 M197.45 836.21 L197.45 831.951 Q199.209 832.784 201.014 833.224 Q202.82 833.664 204.556 833.664 Q209.186 833.664 211.616 830.562 Q214.07 827.437 214.417 821.094 Q213.075 823.085 211.014 824.15 Q208.954 825.215 206.454 825.215 Q201.269 825.215 198.237 822.09 Q195.227 818.942 195.227 813.502 Q195.227 808.178 198.376 804.96 Q201.524 801.743 206.755 801.743 Q212.751 801.743 215.899 806.349 Q219.07 810.932 219.07 819.682 Q219.07 827.854 215.181 832.738 Q211.315 837.599 204.764 837.599 Q203.005 837.599 201.2 837.252 Q199.394 836.905 197.45 836.21 M206.755 821.557 Q209.903 821.557 211.732 819.405 Q213.584 817.252 213.584 813.502 Q213.584 809.775 211.732 807.622 Q209.903 805.446 206.755 805.446 Q203.607 805.446 201.755 807.622 Q199.927 809.775 199.927 813.502 Q199.927 817.252 201.755 819.405 Q203.607 821.557 206.755 821.557 Z" fill="#000000" fill-rule="evenodd" fill-opacity="1" /><path clip-path="url(#clip200)" d="M 0 0 M240.32 806.442 L228.514 824.891 L240.32 824.891 L240.32 806.442 M239.093 802.368 L244.973 802.368 L244.973 824.891 L249.903 824.891 L249.903 828.78 L244.973 828.78 L244.973 836.928 L240.32 836.928 L240.32 828.78 L224.718 828.78 L224.718 824.266 L239.093 802.368 Z" fill="#000000" fill-rule="evenodd" fill-opacity="1" /><path clip-path="url(#clip200)" d="M 0 0 M257.681 802.368 L276.037 802.368 L276.037 806.303 L261.963 806.303 L261.963 814.775 Q262.982 814.428 264 814.266 Q265.019 814.081 266.037 814.081 Q271.824 814.081 275.204 817.252 Q278.583 820.423 278.583 825.84 Q278.583 831.418 275.111 834.52 Q271.639 837.599 265.32 837.599 Q263.144 837.599 260.875 837.229 Q258.63 836.858 256.223 836.117 L256.223 831.418 Q258.306 832.553 260.528 833.108 Q262.75 833.664 265.227 833.664 Q269.232 833.664 271.57 831.557 Q273.908 829.451 273.908 825.84 Q273.908 822.229 271.57 820.122 Q269.232 818.016 265.227 818.016 Q263.352 818.016 261.477 818.432 Q259.625 818.849 257.681 819.729 L257.681 802.368 Z" fill="#000000" fill-rule="evenodd" fill-opacity="1" /><path clip-path="url(#clip200)" d="M 0 0 M50.9921 585.844 L80.6679 585.844 L80.6679 589.779 L50.9921 589.779 L50.9921 585.844 Z" fill="#000000" fill-rule="evenodd" fill-opacity="1" /><path clip-path="url(#clip200)" d="M 0 0 M100.76 571.191 Q97.1493 571.191 95.3206 574.756 Q93.515 578.298 93.515 585.427 Q93.515 592.534 95.3206 596.099 Q97.1493 599.64 100.76 599.64 Q104.395 599.64 106.2 596.099 Q108.029 592.534 108.029 585.427 Q108.029 578.298 106.2 574.756 Q104.395 571.191 100.76 571.191 M100.76 567.488 Q106.571 567.488 109.626 572.094 Q112.705 576.678 112.705 585.427 Q112.705 594.154 109.626 598.761 Q106.571 603.344 100.76 603.344 Q94.9502 603.344 91.8715 598.761 Q88.816 594.154 88.816 585.427 Q88.816 576.678 91.8715 572.094 Q94.9502 567.488 100.76 567.488 Z" fill="#000000" fill-rule="evenodd" fill-opacity="1" /><path clip-path="url(#clip200)" d="M 0 0 M120.922 596.793 L125.807 596.793 L125.807 602.673 L120.922 602.673 L120.922 596.793 Z" fill="#000000" fill-rule="evenodd" fill-opacity="1" /><path clip-path="url(#clip200)" d="M 0 0 M146.57 583.529 Q143.422 583.529 141.57 585.682 Q139.742 587.835 139.742 591.585 Q139.742 595.312 141.57 597.488 Q143.422 599.64 146.57 599.64 Q149.718 599.64 151.547 597.488 Q153.399 595.312 153.399 591.585 Q153.399 587.835 151.547 585.682 Q149.718 583.529 146.57 583.529 M155.853 568.877 L155.853 573.136 Q154.093 572.303 152.288 571.863 Q150.505 571.423 148.746 571.423 Q144.117 571.423 141.663 574.548 Q139.232 577.673 138.885 583.992 Q140.251 581.978 142.311 580.914 Q144.371 579.826 146.848 579.826 Q152.056 579.826 155.066 582.997 Q158.098 586.145 158.098 591.585 Q158.098 596.909 154.95 600.126 Q151.802 603.344 146.57 603.344 Q140.575 603.344 137.404 598.761 Q134.232 594.154 134.232 585.427 Q134.232 577.233 138.121 572.372 Q142.01 567.488 148.561 567.488 Q150.32 567.488 152.103 567.835 Q153.908 568.182 155.853 568.877 Z" fill="#000000" fill-rule="evenodd" fill-opacity="1" /><path clip-path="url(#clip200)" d="M 0 0 M176.732 583.529 Q173.584 583.529 171.732 585.682 Q169.904 587.835 169.904 591.585 Q169.904 595.312 171.732 597.488 Q173.584 599.64 176.732 599.64 Q179.88 599.64 181.709 597.488 Q183.561 595.312 183.561 591.585 Q183.561 587.835 181.709 585.682 Q179.88 583.529 176.732 583.529 M186.015 568.877 L186.015 573.136 Q184.255 572.303 182.45 571.863 Q180.667 571.423 178.908 571.423 Q174.279 571.423 171.825 574.548 Q169.394 577.673 169.047 583.992 Q170.413 581.978 172.473 580.914 Q174.533 579.826 177.01 579.826 Q182.218 579.826 185.228 582.997 Q188.26 586.145 188.26 591.585 Q188.26 596.909 185.112 600.126 Q181.964 603.344 176.732 603.344 Q170.737 603.344 167.566 598.761 Q164.394 594.154 164.394 585.427 Q164.394 577.233 168.283 572.372 Q172.172 567.488 178.723 567.488 Q180.482 567.488 182.265 567.835 Q184.07 568.182 186.015 568.877 Z" fill="#000000" fill-rule="evenodd" fill-opacity="1" /><path clip-path="url(#clip200)" d="M 0 0 M196.454 601.955 L196.454 597.696 Q198.214 598.529 200.019 598.969 Q201.825 599.409 203.561 599.409 Q208.19 599.409 210.621 596.307 Q213.075 593.182 213.422 586.839 Q212.079 588.83 210.019 589.895 Q207.959 590.96 205.459 590.96 Q200.274 590.96 197.241 587.835 Q194.232 584.687 194.232 579.247 Q194.232 573.923 197.38 570.705 Q200.528 567.488 205.76 567.488 Q211.755 567.488 214.903 572.094 Q218.075 576.678 218.075 585.427 Q218.075 593.599 214.186 598.483 Q210.32 603.344 203.769 603.344 Q202.01 603.344 200.204 602.997 Q198.399 602.65 196.454 601.955 M205.76 587.302 Q208.908 587.302 210.737 585.15 Q212.588 582.997 212.588 579.247 Q212.588 575.52 210.737 573.367 Q208.908 571.191 205.76 571.191 Q202.612 571.191 200.76 573.367 Q198.931 575.52 198.931 579.247 Q198.931 582.997 200.76 585.15 Q202.612 587.302 205.76 587.302 Z" fill="#000000" fill-rule="evenodd" fill-opacity="1" /><path clip-path="url(#clip200)" d="M 0 0 M239.324 572.187 L227.519 590.636 L239.324 590.636 L239.324 572.187 M238.098 568.113 L243.977 568.113 L243.977 590.636 L248.908 590.636 L248.908 594.525 L243.977 594.525 L243.977 602.673 L239.324 602.673 L239.324 594.525 L223.723 594.525 L223.723 590.011 L238.098 568.113 Z" fill="#000000" fill-rule="evenodd" fill-opacity="1" /><path clip-path="url(#clip200)" d="M 0 0 M266.639 571.191 Q263.028 571.191 261.199 574.756 Q259.394 578.298 259.394 585.427 Q259.394 592.534 261.199 596.099 Q263.028 599.64 266.639 599.64 Q270.273 599.64 272.079 596.099 Q273.908 592.534 273.908 585.427 Q273.908 578.298 272.079 574.756 Q270.273 571.191 266.639 571.191 M266.639 567.488 Q272.449 567.488 275.505 572.094 Q278.583 576.678 278.583 585.427 Q278.583 594.154 275.505 598.761 Q272.449 603.344 266.639 603.344 Q260.829 603.344 257.75 598.761 Q254.695 594.154 254.695 585.427 Q254.695 576.678 257.75 572.094 Q260.829 567.488 266.639 567.488 Z" fill="#000000" fill-rule="evenodd" fill-opacity="1" /><path clip-path="url(#clip200)" d="M 0 0 M51.9875 351.589 L81.6633 351.589 L81.6633 355.524 L51.9875 355.524 L51.9875 351.589 Z" fill="#000000" fill-rule="evenodd" fill-opacity="1" /><path clip-path="url(#clip200)" d="M 0 0 M101.756 336.937 Q98.1447 336.937 96.316 340.501 Q94.5104 344.043 94.5104 351.173 Q94.5104 358.279 96.316 361.844 Q98.1447 365.385 101.756 365.385 Q105.39 365.385 107.196 361.844 Q109.024 358.279 109.024 351.173 Q109.024 344.043 107.196 340.501 Q105.39 336.937 101.756 336.937 M101.756 333.233 Q107.566 333.233 110.621 337.839 Q113.7 342.423 113.7 351.173 Q113.7 359.899 110.621 364.506 Q107.566 369.089 101.756 369.089 Q95.9456 369.089 92.8669 364.506 Q89.8114 359.899 89.8114 351.173 Q89.8114 342.423 92.8669 337.839 Q95.9456 333.233 101.756 333.233 Z" fill="#000000" fill-rule="evenodd" fill-opacity="1" /><path clip-path="url(#clip200)" d="M 0 0 M121.918 362.538 L126.802 362.538 L126.802 368.418 L121.918 368.418 L121.918 362.538 Z" fill="#000000" fill-rule="evenodd" fill-opacity="1" /><path clip-path="url(#clip200)" d="M 0 0 M147.566 349.274 Q144.418 349.274 142.566 351.427 Q140.737 353.58 140.737 357.33 Q140.737 361.057 142.566 363.233 Q144.418 365.385 147.566 365.385 Q150.714 365.385 152.543 363.233 Q154.394 361.057 154.394 357.33 Q154.394 353.58 152.543 351.427 Q150.714 349.274 147.566 349.274 M156.848 334.622 L156.848 338.881 Q155.089 338.048 153.283 337.608 Q151.501 337.168 149.742 337.168 Q145.112 337.168 142.658 340.293 Q140.228 343.418 139.881 349.737 Q141.246 347.724 143.306 346.659 Q145.367 345.571 147.843 345.571 Q153.052 345.571 156.061 348.742 Q159.093 351.89 159.093 357.33 Q159.093 362.654 155.945 365.872 Q152.797 369.089 147.566 369.089 Q141.57 369.089 138.399 364.506 Q135.228 359.899 135.228 351.173 Q135.228 342.978 139.117 338.117 Q143.006 333.233 149.556 333.233 Q151.316 333.233 153.098 333.58 Q154.904 333.927 156.848 334.622 Z" fill="#000000" fill-rule="evenodd" fill-opacity="1" /><path clip-path="url(#clip200)" d="M 0 0 M177.728 349.274 Q174.579 349.274 172.728 351.427 Q170.899 353.58 170.899 357.33 Q170.899 361.057 172.728 363.233 Q174.579 365.385 177.728 365.385 Q180.876 365.385 182.704 363.233 Q184.556 361.057 184.556 357.33 Q184.556 353.58 182.704 351.427 Q180.876 349.274 177.728 349.274 M187.01 334.622 L187.01 338.881 Q185.251 338.048 183.445 337.608 Q181.663 337.168 179.903 337.168 Q175.274 337.168 172.82 340.293 Q170.39 343.418 170.042 349.737 Q171.408 347.724 173.468 346.659 Q175.528 345.571 178.005 345.571 Q183.214 345.571 186.223 348.742 Q189.255 351.89 189.255 357.33 Q189.255 362.654 186.107 365.872 Q182.959 369.089 177.728 369.089 Q171.732 369.089 168.561 364.506 Q165.39 359.899 165.39 351.173 Q165.39 342.978 169.279 338.117 Q173.167 333.233 179.718 333.233 Q181.478 333.233 183.26 333.58 Q185.065 333.927 187.01 334.622 Z" fill="#000000" fill-rule="evenodd" fill-opacity="1" /><path clip-path="url(#clip200)" d="M 0 0 M197.45 367.7 L197.45 363.441 Q199.209 364.274 201.014 364.714 Q202.82 365.154 204.556 365.154 Q209.186 365.154 211.616 362.052 Q214.07 358.927 214.417 352.585 Q213.075 354.575 211.014 355.64 Q208.954 356.705 206.454 356.705 Q201.269 356.705 198.237 353.58 Q195.227 350.432 195.227 344.992 Q195.227 339.668 198.376 336.45 Q201.524 333.233 206.755 333.233 Q212.751 333.233 215.899 337.839 Q219.07 342.423 219.07 351.173 Q219.07 359.344 215.181 364.228 Q211.315 369.089 204.764 369.089 Q203.005 369.089 201.2 368.742 Q199.394 368.395 197.45 367.7 M206.755 353.048 Q209.903 353.048 211.732 350.895 Q213.584 348.742 213.584 344.992 Q213.584 341.265 211.732 339.112 Q209.903 336.937 206.755 336.937 Q203.607 336.937 201.755 339.112 Q199.927 341.265 199.927 344.992 Q199.927 348.742 201.755 350.895 Q203.607 353.048 206.755 353.048 Z" fill="#000000" fill-rule="evenodd" fill-opacity="1" /><path clip-path="url(#clip200)" d="M 0 0 M241.639 349.784 Q244.996 350.501 246.871 352.77 Q248.769 355.038 248.769 358.372 Q248.769 363.487 245.25 366.288 Q241.732 369.089 235.25 369.089 Q233.074 369.089 230.76 368.649 Q228.468 368.233 226.014 367.376 L226.014 362.862 Q227.959 363.997 230.274 364.575 Q232.588 365.154 235.112 365.154 Q239.51 365.154 241.801 363.418 Q244.116 361.682 244.116 358.372 Q244.116 355.316 241.963 353.603 Q239.834 351.867 236.014 351.867 L231.987 351.867 L231.987 348.024 L236.199 348.024 Q239.649 348.024 241.477 346.659 Q243.306 345.27 243.306 342.677 Q243.306 340.015 241.408 338.603 Q239.533 337.168 236.014 337.168 Q234.093 337.168 231.894 337.585 Q229.695 338.001 227.056 338.881 L227.056 334.714 Q229.718 333.974 232.033 333.603 Q234.371 333.233 236.431 333.233 Q241.755 333.233 244.857 335.663 Q247.959 338.071 247.959 342.191 Q247.959 345.061 246.315 347.052 Q244.672 349.02 241.639 349.784 Z" fill="#000000" fill-rule="evenodd" fill-opacity="1" /><path clip-path="url(#clip200)" d="M 0 0 M257.681 333.858 L276.037 333.858 L276.037 337.793 L261.963 337.793 L261.963 346.265 Q262.982 345.918 264 345.756 Q265.019 345.571 266.037 345.571 Q271.824 345.571 275.204 348.742 Q278.583 351.913 278.583 357.33 Q278.583 362.909 275.111 366.01 Q271.639 369.089 265.32 369.089 Q263.144 369.089 260.875 368.719 Q258.63 368.348 256.223 367.608 L256.223 362.909 Q258.306 364.043 260.528 364.598 Q262.75 365.154 265.227 365.154 Q269.232 365.154 271.57 363.047 Q273.908 360.941 273.908 357.33 Q273.908 353.719 271.57 351.612 Q269.232 349.506 265.227 349.506 Q263.352 349.506 261.477 349.923 Q259.625 350.339 257.681 351.219 L257.681 333.858 Z" fill="#000000" fill-rule="evenodd" fill-opacity="1" /><path clip-path="url(#clip200)" d="M 0 0 M1234.71 48.0275 L1234.71 51.6733 L1200.44 51.6733 Q1200.92 59.3701 1205.05 63.421 Q1209.23 67.4314 1216.64 67.4314 Q1220.93 67.4314 1224.94 66.3781 Q1228.99 65.3249 1232.96 63.2184 L1232.96 70.267 Q1228.95 71.9684 1224.74 72.8596 Q1220.53 73.7508 1216.19 73.7508 Q1205.34 73.7508 1198.98 67.4314 Q1192.66 61.1119 1192.66 50.3365 Q1192.66 39.1965 1198.65 32.6746 Q1204.69 26.1121 1214.9 26.1121 Q1224.05 26.1121 1229.36 32.0264 Q1234.71 37.9003 1234.71 48.0275 M1227.25 45.84 Q1227.17 39.7232 1223.81 36.0774 Q1220.49 32.4315 1214.98 32.4315 Q1208.74 32.4315 1204.97 35.9558 Q1201.25 39.4801 1200.68 45.8805 L1227.25 45.84 Z" fill="#000000" fill-rule="evenodd" fill-opacity="1" /><path clip-path="url(#clip200)" d="M 0 0 M1284.65 45.1919 L1284.65 72.576 L1277.2 72.576 L1277.2 45.4349 Q1277.2 38.994 1274.69 35.7938 Q1272.18 32.5936 1267.15 32.5936 Q1261.12 32.5936 1257.63 36.4419 Q1254.15 40.2903 1254.15 46.9338 L1254.15 72.576 L1246.66 72.576 L1246.66 27.2059 L1254.15 27.2059 L1254.15 34.2544 Q1256.82 30.163 1260.43 28.1376 Q1264.08 26.1121 1268.81 26.1121 Q1276.63 26.1121 1280.64 30.9732 Q1284.65 35.7938 1284.65 45.1919 Z" fill="#000000" fill-rule="evenodd" fill-opacity="1" /><path clip-path="url(#clip200)" d="M 0 0 M1338.33 48.0275 L1338.33 51.6733 L1304.06 51.6733 Q1304.54 59.3701 1308.68 63.421 Q1312.85 67.4314 1320.26 67.4314 Q1324.56 67.4314 1328.57 66.3781 Q1332.62 65.3249 1336.59 63.2184 L1336.59 70.267 Q1332.58 71.9684 1328.36 72.8596 Q1324.15 73.7508 1319.82 73.7508 Q1308.96 73.7508 1302.6 67.4314 Q1296.28 61.1119 1296.28 50.3365 Q1296.28 39.1965 1302.28 32.6746 Q1308.31 26.1121 1318.52 26.1121 Q1327.67 26.1121 1332.98 32.0264 Q1338.33 37.9003 1338.33 48.0275 M1330.87 45.84 Q1330.79 39.7232 1327.43 36.0774 Q1324.11 32.4315 1318.6 32.4315 Q1312.36 32.4315 1308.59 35.9558 Q1304.87 39.4801 1304.3 45.8805 L1330.87 45.84 Z" fill="#000000" fill-rule="evenodd" fill-opacity="1" /><path clip-path="url(#clip200)" d="M 0 0 M1376.85 34.1734 Q1375.6 33.4443 1374.1 33.1202 Q1372.64 32.7556 1370.86 32.7556 Q1364.54 32.7556 1361.13 36.8875 Q1357.77 40.9789 1357.77 48.6757 L1357.77 72.576 L1350.28 72.576 L1350.28 27.2059 L1357.77 27.2059 L1357.77 34.2544 Q1360.12 30.1225 1363.89 28.1376 Q1367.66 26.1121 1373.04 26.1121 Q1373.81 26.1121 1374.75 26.2337 Q1375.68 26.3147 1376.81 26.5172 L1376.85 34.1734 Z" fill="#000000" fill-rule="evenodd" fill-opacity="1" /><path clip-path="url(#clip200)" d="M 0 0 M1413.07 49.3643 Q1413.07 41.2625 1409.71 36.8065 Q1406.38 32.3505 1400.35 32.3505 Q1394.35 32.3505 1390.99 36.8065 Q1387.67 41.2625 1387.67 49.3643 Q1387.67 57.4256 1390.99 61.8816 Q1394.35 66.3376 1400.35 66.3376 Q1406.38 66.3376 1409.71 61.8816 Q1413.07 57.4256 1413.07 49.3643 M1420.52 66.9452 Q1420.52 78.5308 1415.38 84.1616 Q1410.23 89.8329 1399.62 89.8329 Q1395.69 89.8329 1392.21 89.2252 Q1388.72 88.6581 1385.44 87.4428 L1385.44 80.1917 Q1388.72 81.9741 1391.92 82.8248 Q1395.12 83.6755 1398.44 83.6755 Q1405.78 83.6755 1409.42 79.8271 Q1413.07 76.0193 1413.07 68.282 L1413.07 64.5957 Q1410.76 68.6061 1407.15 70.5911 Q1403.55 72.576 1398.52 72.576 Q1390.18 72.576 1385.08 66.2161 Q1379.97 59.8562 1379.97 49.3643 Q1379.97 38.832 1385.08 32.472 Q1390.18 26.1121 1398.52 26.1121 Q1403.55 26.1121 1407.15 28.0971 Q1410.76 30.082 1413.07 34.0924 L1413.07 27.2059 L1420.52 27.2059 L1420.52 66.9452 Z" fill="#000000" fill-rule="evenodd" fill-opacity="1" /><path clip-path="url(#clip200)" d="M 0 0 M1454.75 76.7889 Q1451.59 84.8907 1448.59 87.3618 Q1445.6 89.8329 1440.57 89.8329 L1434.62 89.8329 L1434.62 83.5945 L1438.99 83.5945 Q1442.07 83.5945 1443.77 82.1361 Q1445.47 80.6778 1447.54 75.2496 L1448.88 71.8468 L1430.53 27.2059 L1438.43 27.2059 L1452.6 62.6918 L1466.78 27.2059 L1474.68 27.2059 L1454.75 76.7889 Z" fill="#000000" fill-rule="evenodd" fill-opacity="1" /><polyline clip-path="url(#clip202)" style="stroke:#009af9; stroke-width:12; stroke-opacity:1; fill:none" points="
  372.268,1447.87 646.954,991.055 921.64,817.417 1196.33,830.537 1471.01,397.582 1745.7,303.673 2020.39,247.926 2295.07,162.047 
  "/>
<path clip-path="url(#clip200)" d="
M1897.2 289.865 L2284.82 289.865 L2284.82 168.905 L1897.2 168.905  Z
  " fill="#ffffff" fill-rule="evenodd" fill-opacity="1"/>
<polyline clip-path="url(#clip200)" style="stroke:#000000; stroke-width:4; stroke-opacity:1; fill:none" points="
  1897.2,289.865 2284.82,289.865 2284.82,168.905 1897.2,168.905 1897.2,289.865 
  "/>
<polyline clip-path="url(#clip200)" style="stroke:#009af9; stroke-width:4; stroke-opacity:1; fill:none" points="
  1919.84,229.385 2055.72,229.385 
  "/>
<path clip-path="url(#clip200)" d="M 0 0 M2102.4 232.637 L2102.4 234.72 L2082.81 234.72 Q2083.09 239.118 2085.45 241.433 Q2087.84 243.725 2092.07 243.725 Q2094.52 243.725 2096.82 243.123 Q2099.13 242.521 2101.4 241.317 L2101.4 245.345 Q2099.11 246.317 2096.7 246.827 Q2094.29 247.336 2091.82 247.336 Q2085.61 247.336 2081.98 243.725 Q2078.37 240.114 2078.37 233.956 Q2078.37 227.591 2081.79 223.864 Q2085.24 220.114 2091.08 220.114 Q2096.31 220.114 2099.34 223.493 Q2102.4 226.85 2102.4 232.637 M2098.14 231.387 Q2098.09 227.892 2096.17 225.808 Q2094.27 223.725 2091.12 223.725 Q2087.56 223.725 2085.4 225.739 Q2083.27 227.753 2082.95 231.41 L2098.14 231.387 Z" fill="#000000" fill-rule="evenodd" fill-opacity="1" /><path clip-path="url(#clip200)" d="M 0 0 M2130.94 231.017 L2130.94 246.665 L2126.68 246.665 L2126.68 231.155 Q2126.68 227.475 2125.24 225.646 Q2123.81 223.818 2120.94 223.818 Q2117.49 223.818 2115.5 226.017 Q2113.51 228.216 2113.51 232.012 L2113.51 246.665 L2109.22 246.665 L2109.22 220.739 L2113.51 220.739 L2113.51 224.767 Q2115.03 222.429 2117.09 221.271 Q2119.18 220.114 2121.89 220.114 Q2126.35 220.114 2128.65 222.892 Q2130.94 225.646 2130.94 231.017 Z" fill="#000000" fill-rule="evenodd" fill-opacity="1" /><path clip-path="url(#clip200)" d="M 0 0 M2161.61 232.637 L2161.61 234.72 L2142.02 234.72 Q2142.3 239.118 2144.66 241.433 Q2147.05 243.725 2151.28 243.725 Q2153.74 243.725 2156.03 243.123 Q2158.34 242.521 2160.61 241.317 L2160.61 245.345 Q2158.32 246.317 2155.91 246.827 Q2153.51 247.336 2151.03 247.336 Q2144.83 247.336 2141.19 243.725 Q2137.58 240.114 2137.58 233.956 Q2137.58 227.591 2141.01 223.864 Q2144.46 220.114 2150.29 220.114 Q2155.52 220.114 2158.55 223.493 Q2161.61 226.85 2161.61 232.637 M2157.35 231.387 Q2157.3 227.892 2155.38 225.808 Q2153.48 223.725 2150.33 223.725 Q2146.77 223.725 2144.62 225.739 Q2142.49 227.753 2142.16 231.41 L2157.35 231.387 Z" fill="#000000" fill-rule="evenodd" fill-opacity="1" /><path clip-path="url(#clip200)" d="M 0 0 M2183.62 224.72 Q2182.9 224.304 2182.05 224.118 Q2181.21 223.91 2180.2 223.91 Q2176.58 223.91 2174.64 226.271 Q2172.72 228.609 2172.72 233.007 L2172.72 246.665 L2168.44 246.665 L2168.44 220.739 L2172.72 220.739 L2172.72 224.767 Q2174.06 222.406 2176.21 221.271 Q2178.37 220.114 2181.45 220.114 Q2181.89 220.114 2182.42 220.183 Q2182.95 220.23 2183.6 220.345 L2183.62 224.72 Z" fill="#000000" fill-rule="evenodd" fill-opacity="1" /><path clip-path="url(#clip200)" d="M 0 0 M2204.32 233.401 Q2204.32 228.771 2202.39 226.225 Q2200.5 223.679 2197.05 223.679 Q2193.62 223.679 2191.7 226.225 Q2189.8 228.771 2189.8 233.401 Q2189.8 238.007 2191.7 240.554 Q2193.62 243.1 2197.05 243.1 Q2200.5 243.1 2202.39 240.554 Q2204.32 238.007 2204.32 233.401 M2208.58 243.447 Q2208.58 250.067 2205.64 253.285 Q2202.7 256.526 2196.63 256.526 Q2194.39 256.526 2192.39 256.178 Q2190.4 255.854 2188.53 255.16 L2188.53 251.016 Q2190.4 252.035 2192.23 252.521 Q2194.06 253.007 2195.96 253.007 Q2200.15 253.007 2202.23 250.808 Q2204.32 248.632 2204.32 244.211 L2204.32 242.104 Q2203 244.396 2200.94 245.53 Q2198.88 246.665 2196.01 246.665 Q2191.24 246.665 2188.32 243.03 Q2185.4 239.396 2185.4 233.401 Q2185.4 227.382 2188.32 223.748 Q2191.24 220.114 2196.01 220.114 Q2198.88 220.114 2200.94 221.248 Q2203 222.382 2204.32 224.674 L2204.32 220.739 L2208.58 220.739 L2208.58 243.447 Z" fill="#000000" fill-rule="evenodd" fill-opacity="1" /><path clip-path="url(#clip200)" d="M 0 0 M2228.14 249.072 Q2226.33 253.702 2224.62 255.114 Q2222.9 256.526 2220.03 256.526 L2216.63 256.526 L2216.63 252.961 L2219.13 252.961 Q2220.89 252.961 2221.86 252.128 Q2222.83 251.294 2224.01 248.192 L2224.78 246.248 L2214.29 220.739 L2218.81 220.739 L2226.91 241.017 L2235.01 220.739 L2239.52 220.739 L2228.14 249.072 Z" fill="#000000" fill-rule="evenodd" fill-opacity="1" /></svg>
