<?xml version="1.0" encoding="utf-8"?>
<svg xmlns="http://www.w3.org/2000/svg" xmlns:xlink="http://www.w3.org/1999/xlink" width="600" height="400" viewBox="0 0 2400 1600">
<defs>
  <clipPath id="clip510">
    <rect x="0" y="0" width="2400" height="1600"/>
  </clipPath>
</defs>
<path clip-path="url(#clip510)" d="
M0 1600 L2400 1600 L2400 0 L0 0  Z
  " fill="#ffffff" fill-rule="evenodd" fill-opacity="1"/>
<defs>
  <clipPath id="clip511">
    <rect x="480" y="0" width="1681" height="1600"/>
  </clipPath>
</defs>
<path clip-path="url(#clip510)" d="
M463.774 1486.45 L2352.76 1486.45 L2352.76 123.472 L463.774 123.472  Z
  " fill="#ffffff" fill-rule="evenodd" fill-opacity="1"/>
<defs>
  <clipPath id="clip512">
    <rect x="463" y="123" width="1890" height="1364"/>
  </clipPath>
</defs>
<polyline clip-path="url(#clip512)" style="stroke:#000000; stroke-width:2; stroke-opacity:0.1; fill:none" points="
  517.236,1486.45 517.236,123.472 
  "/>
<polyline clip-path="url(#clip512)" style="stroke:#000000; stroke-width:2; stroke-opacity:0.1; fill:none" points="
  1026.4,1486.45 1026.4,123.472 
  "/>
<polyline clip-path="url(#clip512)" style="stroke:#000000; stroke-width:2; stroke-opacity:0.1; fill:none" points="
  1535.55,1486.45 1535.55,123.472 
  "/>
<polyline clip-path="url(#clip512)" style="stroke:#000000; stroke-width:2; stroke-opacity:0.1; fill:none" points="
  2044.71,1486.45 2044.71,123.472 
  "/>
<polyline clip-path="url(#clip510)" style="stroke:#000000; stroke-width:4; stroke-opacity:1; fill:none" points="
  463.774,1486.45 2352.76,1486.45 
  "/>
<polyline clip-path="url(#clip510)" style="stroke:#000000; stroke-width:4; stroke-opacity:1; fill:none" points="
  517.236,1486.45 517.236,1470.09 
  "/>
<polyline clip-path="url(#clip510)" style="stroke:#000000; stroke-width:4; stroke-opacity:1; fill:none" points="
  1026.4,1486.45 1026.4,1470.09 
  "/>
<polyline clip-path="url(#clip510)" style="stroke:#000000; stroke-width:4; stroke-opacity:1; fill:none" points="
  1535.55,1486.45 1535.55,1470.09 
  "/>
<polyline clip-path="url(#clip510)" style="stroke:#000000; stroke-width:4; stroke-opacity:1; fill:none" points="
  2044.71,1486.45 2044.71,1470.09 
  "/>
<path clip-path="url(#clip510)" d="M 0 0 M502.108 1530.71 Q498.775 1530.71 496.854 1532.49 Q494.956 1534.27 494.956 1537.4 Q494.956 1540.52 496.854 1542.31 Q498.775 1544.09 502.108 1544.09 Q505.442 1544.09 507.363 1542.31 Q509.284 1540.5 509.284 1537.4 Q509.284 1534.27 507.363 1532.49 Q505.465 1530.71 502.108 1530.71 M497.433 1528.72 Q494.423 1527.98 492.734 1525.92 Q491.067 1523.86 491.067 1520.89 Q491.067 1516.75 494.007 1514.34 Q496.97 1511.93 502.108 1511.93 Q507.27 1511.93 510.21 1514.34 Q513.15 1516.75 513.15 1520.89 Q513.15 1523.86 511.46 1525.92 Q509.794 1527.98 506.808 1528.72 Q510.187 1529.5 512.062 1531.8 Q513.96 1534.09 513.96 1537.4 Q513.96 1542.42 510.882 1545.11 Q507.826 1547.79 502.108 1547.79 Q496.391 1547.79 493.312 1545.11 Q490.257 1542.42 490.257 1537.4 Q490.257 1534.09 492.155 1531.8 Q494.053 1529.5 497.433 1528.72 M495.72 1521.33 Q495.72 1524.02 497.386 1525.52 Q499.076 1527.03 502.108 1527.03 Q505.118 1527.03 506.808 1525.52 Q508.52 1524.02 508.52 1521.33 Q508.52 1518.65 506.808 1517.14 Q505.118 1515.64 502.108 1515.64 Q499.076 1515.64 497.386 1517.14 Q495.72 1518.65 495.72 1521.33 Z" fill="#000000" fill-rule="evenodd" fill-opacity="1" /><path clip-path="url(#clip510)" d="M 0 0 M532.27 1515.64 Q528.659 1515.64 526.831 1519.2 Q525.025 1522.75 525.025 1529.87 Q525.025 1536.98 526.831 1540.55 Q528.659 1544.09 532.27 1544.09 Q535.905 1544.09 537.71 1540.55 Q539.539 1536.98 539.539 1529.87 Q539.539 1522.75 537.71 1519.2 Q535.905 1515.64 532.27 1515.64 M532.27 1511.93 Q538.081 1511.93 541.136 1516.54 Q544.215 1521.12 544.215 1529.87 Q544.215 1538.6 541.136 1543.21 Q538.081 1547.79 532.27 1547.79 Q526.46 1547.79 523.382 1543.21 Q520.326 1538.6 520.326 1529.87 Q520.326 1521.12 523.382 1516.54 Q526.46 1511.93 532.27 1511.93 Z" fill="#000000" fill-rule="evenodd" fill-opacity="1" /><path clip-path="url(#clip510)" d="M 0 0 M986.002 1543.18 L993.641 1543.18 L993.641 1516.82 L985.331 1518.49 L985.331 1514.23 L993.595 1512.56 L998.27 1512.56 L998.27 1543.18 L1005.91 1543.18 L1005.91 1547.12 L986.002 1547.12 L986.002 1543.18 Z" fill="#000000" fill-rule="evenodd" fill-opacity="1" /><path clip-path="url(#clip510)" d="M 0 0 M1025.35 1515.64 Q1021.74 1515.64 1019.91 1519.2 Q1018.11 1522.75 1018.11 1529.87 Q1018.11 1536.98 1019.91 1540.55 Q1021.74 1544.09 1025.35 1544.09 Q1028.99 1544.09 1030.79 1540.55 Q1032.62 1536.98 1032.62 1529.87 Q1032.62 1522.75 1030.79 1519.2 Q1028.99 1515.64 1025.35 1515.64 M1025.35 1511.93 Q1031.16 1511.93 1034.22 1516.54 Q1037.3 1521.12 1037.3 1529.87 Q1037.3 1538.6 1034.22 1543.21 Q1031.16 1547.79 1025.35 1547.79 Q1019.54 1547.79 1016.46 1543.21 Q1013.41 1538.6 1013.41 1529.87 Q1013.41 1521.12 1016.46 1516.54 Q1019.54 1511.93 1025.35 1511.93 Z" fill="#000000" fill-rule="evenodd" fill-opacity="1" /><path clip-path="url(#clip510)" d="M 0 0 M1055.52 1515.64 Q1051.9 1515.64 1050.08 1519.2 Q1048.27 1522.75 1048.27 1529.87 Q1048.27 1536.98 1050.08 1540.55 Q1051.9 1544.09 1055.52 1544.09 Q1059.15 1544.09 1060.96 1540.55 Q1062.78 1536.98 1062.78 1529.87 Q1062.78 1522.75 1060.96 1519.2 Q1059.15 1515.64 1055.52 1515.64 M1055.52 1511.93 Q1061.33 1511.93 1064.38 1516.54 Q1067.46 1521.12 1067.46 1529.87 Q1067.46 1538.6 1064.38 1543.21 Q1061.33 1547.79 1055.52 1547.79 Q1049.71 1547.79 1046.63 1543.21 Q1043.57 1538.6 1043.57 1529.87 Q1043.57 1521.12 1046.63 1516.54 Q1049.71 1511.93 1055.52 1511.93 Z" fill="#000000" fill-rule="evenodd" fill-opacity="1" /><path clip-path="url(#clip510)" d="M 0 0 M1495.16 1543.18 L1502.8 1543.18 L1502.8 1516.82 L1494.49 1518.49 L1494.49 1514.23 L1502.75 1512.56 L1507.43 1512.56 L1507.43 1543.18 L1515.07 1543.18 L1515.07 1547.12 L1495.16 1547.12 L1495.16 1543.18 Z" fill="#000000" fill-rule="evenodd" fill-opacity="1" /><path clip-path="url(#clip510)" d="M 0 0 M1528.54 1543.18 L1544.86 1543.18 L1544.86 1547.12 L1522.92 1547.12 L1522.92 1543.18 Q1525.58 1540.43 1530.16 1535.8 Q1534.77 1531.15 1535.95 1529.81 Q1538.19 1527.28 1539.07 1525.55 Q1539.98 1523.79 1539.98 1522.1 Q1539.98 1519.34 1538.03 1517.61 Q1536.11 1515.87 1533.01 1515.87 Q1530.81 1515.87 1528.36 1516.63 Q1525.93 1517.4 1523.15 1518.95 L1523.15 1514.23 Q1525.97 1513.09 1528.43 1512.51 Q1530.88 1511.93 1532.92 1511.93 Q1538.29 1511.93 1541.48 1514.62 Q1544.68 1517.31 1544.68 1521.8 Q1544.68 1523.93 1543.86 1525.85 Q1543.08 1527.74 1540.97 1530.34 Q1540.39 1531.01 1537.29 1534.23 Q1534.19 1537.42 1528.54 1543.18 Z" fill="#000000" fill-rule="evenodd" fill-opacity="1" /><path clip-path="url(#clip510)" d="M 0 0 M1564.68 1515.64 Q1561.06 1515.64 1559.24 1519.2 Q1557.43 1522.75 1557.43 1529.87 Q1557.43 1536.98 1559.24 1540.55 Q1561.06 1544.09 1564.68 1544.09 Q1568.31 1544.09 1570.11 1540.55 Q1571.94 1536.98 1571.94 1529.87 Q1571.94 1522.75 1570.11 1519.2 Q1568.31 1515.64 1564.68 1515.64 M1564.68 1511.93 Q1570.49 1511.93 1573.54 1516.54 Q1576.62 1521.12 1576.62 1529.87 Q1576.62 1538.6 1573.54 1543.21 Q1570.49 1547.79 1564.68 1547.79 Q1558.86 1547.79 1555.79 1543.21 Q1552.73 1538.6 1552.73 1529.87 Q1552.73 1521.12 1555.79 1516.54 Q1558.86 1511.93 1564.68 1511.93 Z" fill="#000000" fill-rule="evenodd" fill-opacity="1" /><path clip-path="url(#clip510)" d="M 0 0 M2004.32 1543.18 L2011.96 1543.18 L2011.96 1516.82 L2003.65 1518.49 L2003.65 1514.23 L2011.91 1512.56 L2016.59 1512.56 L2016.59 1543.18 L2024.23 1543.18 L2024.23 1547.12 L2004.32 1547.12 L2004.32 1543.18 Z" fill="#000000" fill-rule="evenodd" fill-opacity="1" /><path clip-path="url(#clip510)" d="M 0 0 M2046.52 1516.63 L2034.71 1535.08 L2046.52 1535.08 L2046.52 1516.63 M2045.29 1512.56 L2051.17 1512.56 L2051.17 1535.08 L2056.1 1535.08 L2056.1 1538.97 L2051.17 1538.97 L2051.17 1547.12 L2046.52 1547.12 L2046.52 1538.97 L2030.92 1538.97 L2030.92 1534.46 L2045.29 1512.56 Z" fill="#000000" fill-rule="evenodd" fill-opacity="1" /><path clip-path="url(#clip510)" d="M 0 0 M2073.83 1515.64 Q2070.22 1515.64 2068.39 1519.2 Q2066.59 1522.75 2066.59 1529.87 Q2066.59 1536.98 2068.39 1540.55 Q2070.22 1544.09 2073.83 1544.09 Q2077.47 1544.09 2079.27 1540.55 Q2081.1 1536.98 2081.1 1529.87 Q2081.1 1522.75 2079.27 1519.2 Q2077.47 1515.64 2073.83 1515.64 M2073.83 1511.93 Q2079.64 1511.93 2082.7 1516.54 Q2085.78 1521.12 2085.78 1529.87 Q2085.78 1538.6 2082.7 1543.21 Q2079.64 1547.79 2073.83 1547.79 Q2068.02 1547.79 2064.95 1543.21 Q2061.89 1538.6 2061.89 1529.87 Q2061.89 1521.12 2064.95 1516.54 Q2068.02 1511.93 2073.83 1511.93 Z" fill="#000000" fill-rule="evenodd" fill-opacity="1" /><polyline clip-path="url(#clip512)" style="stroke:#000000; stroke-width:2; stroke-opacity:0.1; fill:none" points="
  463.774,1379.38 2352.76,1379.38 
  "/>
<polyline clip-path="url(#clip512)" style="stroke:#000000; stroke-width:2; stroke-opacity:0.1; fill:none" points="
  463.774,1171.64 2352.76,1171.64 
  "/>
<polyline clip-path="url(#clip512)" style="stroke:#000000; stroke-width:2; stroke-opacity:0.1; fill:none" points="
  463.774,963.892 2352.76,963.892 
  "/>
<polyline clip-path="url(#clip512)" style="stroke:#000000; stroke-width:2; stroke-opacity:0.1; fill:none" points="
  463.774,756.149 2352.76,756.149 
  "/>
<polyline clip-path="url(#clip512)" style="stroke:#000000; stroke-width:2; stroke-opacity:0.1; fill:none" points="
  463.774,548.405 2352.76,548.405 
  "/>
<polyline clip-path="url(#clip512)" style="stroke:#000000; stroke-width:2; stroke-opacity:0.1; fill:none" points="
  463.774,340.662 2352.76,340.662 
  "/>
<polyline clip-path="url(#clip512)" style="stroke:#000000; stroke-width:2; stroke-opacity:0.1; fill:none" points="
  463.774,132.919 2352.76,132.919 
  "/>
<polyline clip-path="url(#clip510)" style="stroke:#000000; stroke-width:4; stroke-opacity:1; fill:none" points="
  463.774,1486.45 463.774,123.472 
  "/>
<polyline clip-path="url(#clip510)" style="stroke:#000000; stroke-width:4; stroke-opacity:1; fill:none" points="
  463.774,1379.38 486.442,1379.38 
  "/>
<polyline clip-path="url(#clip510)" style="stroke:#000000; stroke-width:4; stroke-opacity:1; fill:none" points="
  463.774,1171.64 486.442,1171.64 
  "/>
<polyline clip-path="url(#clip510)" style="stroke:#000000; stroke-width:4; stroke-opacity:1; fill:none" points="
  463.774,963.892 486.442,963.892 
  "/>
<polyline clip-path="url(#clip510)" style="stroke:#000000; stroke-width:4; stroke-opacity:1; fill:none" points="
  463.774,756.149 486.442,756.149 
  "/>
<polyline clip-path="url(#clip510)" style="stroke:#000000; stroke-width:4; stroke-opacity:1; fill:none" points="
  463.774,548.405 486.442,548.405 
  "/>
<polyline clip-path="url(#clip510)" style="stroke:#000000; stroke-width:4; stroke-opacity:1; fill:none" points="
  463.774,340.662 486.442,340.662 
  "/>
<polyline clip-path="url(#clip510)" style="stroke:#000000; stroke-width:4; stroke-opacity:1; fill:none" points="
  463.774,132.919 486.442,132.919 
  "/>
<path clip-path="url(#clip510)" d="M 0 0 M50.9921 1386.28 L80.6679 1386.28 L80.6679 1390.21 L50.9921 1390.21 L50.9921 1386.28 Z" fill="#000000" fill-rule="evenodd" fill-opacity="1" /><path clip-path="url(#clip510)" d="M 0 0 M101.339 1383.96 Q98.1909 1383.96 96.3391 1386.12 Q94.5104 1388.27 94.5104 1392.02 Q94.5104 1395.75 96.3391 1397.92 Q98.1909 1400.07 101.339 1400.07 Q104.487 1400.07 106.316 1397.92 Q108.168 1395.75 108.168 1392.02 Q108.168 1388.27 106.316 1386.12 Q104.487 1383.96 101.339 1383.96 M110.621 1369.31 L110.621 1373.57 Q108.862 1372.74 107.057 1372.3 Q105.274 1371.86 103.515 1371.86 Q98.8854 1371.86 96.4317 1374.98 Q94.0012 1378.11 93.6539 1384.43 Q95.0197 1382.41 97.0798 1381.35 Q99.14 1380.26 101.617 1380.26 Q106.825 1380.26 109.834 1383.43 Q112.867 1386.58 112.867 1392.02 Q112.867 1397.34 109.719 1400.56 Q106.571 1403.78 101.339 1403.78 Q95.3437 1403.78 92.1725 1399.19 Q89.0012 1394.59 89.0012 1385.86 Q89.0012 1377.67 92.89 1372.81 Q96.7789 1367.92 103.33 1367.92 Q105.089 1367.92 106.871 1368.27 Q108.677 1368.62 110.621 1369.31 Z" fill="#000000" fill-rule="evenodd" fill-opacity="1" /><path clip-path="url(#clip510)" d="M 0 0 M120.922 1397.23 L125.807 1397.23 L125.807 1403.11 L120.922 1403.11 L120.922 1397.23 Z" fill="#000000" fill-rule="evenodd" fill-opacity="1" /><path clip-path="url(#clip510)" d="M 0 0 M146.57 1383.96 Q143.422 1383.96 141.57 1386.12 Q139.742 1388.27 139.742 1392.02 Q139.742 1395.75 141.57 1397.92 Q143.422 1400.07 146.57 1400.07 Q149.718 1400.07 151.547 1397.92 Q153.399 1395.75 153.399 1392.02 Q153.399 1388.27 151.547 1386.12 Q149.718 1383.96 146.57 1383.96 M155.853 1369.31 L155.853 1373.57 Q154.093 1372.74 152.288 1372.3 Q150.505 1371.86 148.746 1371.86 Q144.117 1371.86 141.663 1374.98 Q139.232 1378.11 138.885 1384.43 Q140.251 1382.41 142.311 1381.35 Q144.371 1380.26 146.848 1380.26 Q152.056 1380.26 155.066 1383.43 Q158.098 1386.58 158.098 1392.02 Q158.098 1397.34 154.95 1400.56 Q151.802 1403.78 146.57 1403.78 Q140.575 1403.78 137.404 1399.19 Q134.232 1394.59 134.232 1385.86 Q134.232 1377.67 138.121 1372.81 Q142.01 1367.92 148.561 1367.92 Q150.32 1367.92 152.103 1368.27 Q153.908 1368.62 155.853 1369.31 Z" fill="#000000" fill-rule="evenodd" fill-opacity="1" /><path clip-path="url(#clip510)" d="M 0 0 M166.292 1402.39 L166.292 1398.13 Q168.052 1398.96 169.857 1399.4 Q171.663 1399.84 173.399 1399.84 Q178.028 1399.84 180.459 1396.74 Q182.913 1393.62 183.26 1387.27 Q181.917 1389.26 179.857 1390.33 Q177.797 1391.39 175.297 1391.39 Q170.112 1391.39 167.079 1388.27 Q164.07 1385.12 164.07 1379.68 Q164.07 1374.36 167.218 1371.14 Q170.366 1367.92 175.598 1367.92 Q181.593 1367.92 184.741 1372.53 Q187.913 1377.11 187.913 1385.86 Q187.913 1394.03 184.024 1398.92 Q180.158 1403.78 173.607 1403.78 Q171.848 1403.78 170.042 1403.43 Q168.237 1403.08 166.292 1402.39 M175.598 1387.74 Q178.746 1387.74 180.575 1385.58 Q182.427 1383.43 182.427 1379.68 Q182.427 1375.95 180.575 1373.8 Q178.746 1371.62 175.598 1371.62 Q172.45 1371.62 170.598 1373.8 Q168.769 1375.95 168.769 1379.68 Q168.769 1383.43 170.598 1385.58 Q172.45 1387.74 175.598 1387.74 Z" fill="#000000" fill-rule="evenodd" fill-opacity="1" /><path clip-path="url(#clip510)" d="M 0 0 M209.163 1372.62 L197.357 1391.07 L209.163 1391.07 L209.163 1372.62 M207.936 1368.55 L213.815 1368.55 L213.815 1391.07 L218.746 1391.07 L218.746 1394.96 L213.815 1394.96 L213.815 1403.11 L209.163 1403.11 L209.163 1394.96 L193.561 1394.96 L193.561 1390.44 L207.936 1368.55 Z" fill="#000000" fill-rule="evenodd" fill-opacity="1" /><path clip-path="url(#clip510)" d="M 0 0 M237.056 1383.96 Q233.908 1383.96 232.056 1386.12 Q230.227 1388.27 230.227 1392.02 Q230.227 1395.75 232.056 1397.92 Q233.908 1400.07 237.056 1400.07 Q240.204 1400.07 242.033 1397.92 Q243.885 1395.75 243.885 1392.02 Q243.885 1388.27 242.033 1386.12 Q240.204 1383.96 237.056 1383.96 M246.338 1369.31 L246.338 1373.57 Q244.579 1372.74 242.774 1372.3 Q240.991 1371.86 239.232 1371.86 Q234.602 1371.86 232.149 1374.98 Q229.718 1378.11 229.371 1384.43 Q230.737 1382.41 232.797 1381.35 Q234.857 1380.26 237.334 1380.26 Q242.542 1380.26 245.551 1383.43 Q248.584 1386.58 248.584 1392.02 Q248.584 1397.34 245.436 1400.56 Q242.287 1403.78 237.056 1403.78 Q231.061 1403.78 227.889 1399.19 Q224.718 1394.59 224.718 1385.86 Q224.718 1377.67 228.607 1372.81 Q232.496 1367.92 239.047 1367.92 Q240.806 1367.92 242.588 1368.27 Q244.394 1368.62 246.338 1369.31 Z" fill="#000000" fill-rule="evenodd" fill-opacity="1" /><path clip-path="url(#clip510)" d="M 0 0 M266.639 1371.62 Q263.028 1371.62 261.199 1375.19 Q259.394 1378.73 259.394 1385.86 Q259.394 1392.97 261.199 1396.53 Q263.028 1400.07 266.639 1400.07 Q270.273 1400.07 272.079 1396.53 Q273.908 1392.97 273.908 1385.86 Q273.908 1378.73 272.079 1375.19 Q270.273 1371.62 266.639 1371.62 M266.639 1367.92 Q272.449 1367.92 275.505 1372.53 Q278.583 1377.11 278.583 1385.86 Q278.583 1394.59 275.505 1399.19 Q272.449 1403.78 266.639 1403.78 Q260.829 1403.78 257.75 1399.19 Q254.695 1394.59 254.695 1385.86 Q254.695 1377.11 257.75 1372.53 Q260.829 1367.92 266.639 1367.92 Z" fill="#000000" fill-rule="evenodd" fill-opacity="1" /><path clip-path="url(#clip510)" d="M 0 0 M314.972 1377.64 L304.394 1388.27 L314.972 1398.85 L312.218 1401.65 L301.593 1391.02 L290.968 1401.65 L288.236 1398.85 L298.792 1388.27 L288.236 1377.64 L290.968 1374.84 L301.593 1385.47 L312.218 1374.84 L314.972 1377.64 Z" fill="#000000" fill-rule="evenodd" fill-opacity="1" /><path clip-path="url(#clip510)" d="M 0 0 M327.333 1399.17 L334.972 1399.17 L334.972 1372.81 L326.662 1374.47 L326.662 1370.21 L334.926 1368.55 L339.602 1368.55 L339.602 1399.17 L347.241 1399.17 L347.241 1403.11 L327.333 1403.11 L327.333 1399.17 Z" fill="#000000" fill-rule="evenodd" fill-opacity="1" /><path clip-path="url(#clip510)" d="M 0 0 M366.685 1371.62 Q363.074 1371.62 361.245 1375.19 Q359.44 1378.73 359.44 1385.86 Q359.44 1392.97 361.245 1396.53 Q363.074 1400.07 366.685 1400.07 Q370.319 1400.07 372.125 1396.53 Q373.953 1392.97 373.953 1385.86 Q373.953 1378.73 372.125 1375.19 Q370.319 1371.62 366.685 1371.62 M366.685 1367.92 Q372.495 1367.92 375.551 1372.53 Q378.629 1377.11 378.629 1385.86 Q378.629 1394.59 375.551 1399.19 Q372.495 1403.78 366.685 1403.78 Q360.875 1403.78 357.796 1399.19 Q354.74 1394.59 354.74 1385.86 Q354.74 1377.11 357.796 1372.53 Q360.875 1367.92 366.685 1367.92 Z" fill="#000000" fill-rule="evenodd" fill-opacity="1" /><path clip-path="url(#clip510)" d="M 0 0 M378.629 1362.02 L402.741 1362.02 L402.741 1365.22 L378.629 1365.22 L378.629 1362.02 Z" fill="#000000" fill-rule="evenodd" fill-opacity="1" /><path clip-path="url(#clip510)" d="M 0 0 M411.599 1372.5 L417.806 1372.5 L417.806 1351.08 L411.054 1352.43 L411.054 1348.97 L417.768 1347.62 L421.567 1347.62 L421.567 1372.5 L427.774 1372.5 L427.774 1375.7 L411.599 1375.7 L411.599 1372.5 Z" fill="#000000" fill-rule="evenodd" fill-opacity="1" /><path clip-path="url(#clip510)" d="M 0 0 M50.9921 1178.53 L80.6679 1178.53 L80.6679 1182.47 L50.9921 1182.47 L50.9921 1178.53 Z" fill="#000000" fill-rule="evenodd" fill-opacity="1" /><path clip-path="url(#clip510)" d="M 0 0 M101.339 1176.22 Q98.1909 1176.22 96.3391 1178.37 Q94.5104 1180.52 94.5104 1184.27 Q94.5104 1188 96.3391 1190.18 Q98.1909 1192.33 101.339 1192.33 Q104.487 1192.33 106.316 1190.18 Q108.168 1188 108.168 1184.27 Q108.168 1180.52 106.316 1178.37 Q104.487 1176.22 101.339 1176.22 M110.621 1161.57 L110.621 1165.83 Q108.862 1164.99 107.057 1164.55 Q105.274 1164.11 103.515 1164.11 Q98.8854 1164.11 96.4317 1167.24 Q94.0012 1170.36 93.6539 1176.68 Q95.0197 1174.67 97.0798 1173.6 Q99.14 1172.52 101.617 1172.52 Q106.825 1172.52 109.834 1175.69 Q112.867 1178.84 112.867 1184.27 Q112.867 1189.6 109.719 1192.82 Q106.571 1196.03 101.339 1196.03 Q95.3437 1196.03 92.1725 1191.45 Q89.0012 1186.84 89.0012 1178.12 Q89.0012 1169.92 92.89 1165.06 Q96.7789 1160.18 103.33 1160.18 Q105.089 1160.18 106.871 1160.53 Q108.677 1160.87 110.621 1161.57 Z" fill="#000000" fill-rule="evenodd" fill-opacity="1" /><path clip-path="url(#clip510)" d="M 0 0 M120.922 1189.48 L125.807 1189.48 L125.807 1195.36 L120.922 1195.36 L120.922 1189.48 Z" fill="#000000" fill-rule="evenodd" fill-opacity="1" /><path clip-path="url(#clip510)" d="M 0 0 M146.57 1176.22 Q143.422 1176.22 141.57 1178.37 Q139.742 1180.52 139.742 1184.27 Q139.742 1188 141.57 1190.18 Q143.422 1192.33 146.57 1192.33 Q149.718 1192.33 151.547 1190.18 Q153.399 1188 153.399 1184.27 Q153.399 1180.52 151.547 1178.37 Q149.718 1176.22 146.57 1176.22 M155.853 1161.57 L155.853 1165.83 Q154.093 1164.99 152.288 1164.55 Q150.505 1164.11 148.746 1164.11 Q144.117 1164.11 141.663 1167.24 Q139.232 1170.36 138.885 1176.68 Q140.251 1174.67 142.311 1173.6 Q144.371 1172.52 146.848 1172.52 Q152.056 1172.52 155.066 1175.69 Q158.098 1178.84 158.098 1184.27 Q158.098 1189.6 154.95 1192.82 Q151.802 1196.03 146.57 1196.03 Q140.575 1196.03 137.404 1191.45 Q134.232 1186.84 134.232 1178.12 Q134.232 1169.92 138.121 1165.06 Q142.01 1160.18 148.561 1160.18 Q150.32 1160.18 152.103 1160.53 Q153.908 1160.87 155.853 1161.57 Z" fill="#000000" fill-rule="evenodd" fill-opacity="1" /><path clip-path="url(#clip510)" d="M 0 0 M166.292 1194.65 L166.292 1190.39 Q168.052 1191.22 169.857 1191.66 Q171.663 1192.1 173.399 1192.1 Q178.028 1192.1 180.459 1189 Q182.913 1185.87 183.26 1179.53 Q181.917 1181.52 179.857 1182.59 Q177.797 1183.65 175.297 1183.65 Q170.112 1183.65 167.079 1180.52 Q164.07 1177.38 164.07 1171.94 Q164.07 1166.61 167.218 1163.4 Q170.366 1160.18 175.598 1160.18 Q181.593 1160.18 184.741 1164.78 Q187.913 1169.37 187.913 1178.12 Q187.913 1186.29 184.024 1191.17 Q180.158 1196.03 173.607 1196.03 Q171.848 1196.03 170.042 1195.69 Q168.237 1195.34 166.292 1194.65 M175.598 1179.99 Q178.746 1179.99 180.575 1177.84 Q182.427 1175.69 182.427 1171.94 Q182.427 1168.21 180.575 1166.06 Q178.746 1163.88 175.598 1163.88 Q172.45 1163.88 170.598 1166.06 Q168.769 1168.21 168.769 1171.94 Q168.769 1175.69 170.598 1177.84 Q172.45 1179.99 175.598 1179.99 Z" fill="#000000" fill-rule="evenodd" fill-opacity="1" /><path clip-path="url(#clip510)" d="M 0 0 M209.163 1164.88 L197.357 1183.33 L209.163 1183.33 L209.163 1164.88 M207.936 1160.8 L213.815 1160.8 L213.815 1183.33 L218.746 1183.33 L218.746 1187.21 L213.815 1187.21 L213.815 1195.36 L209.163 1195.36 L209.163 1187.21 L193.561 1187.21 L193.561 1182.7 L207.936 1160.8 Z" fill="#000000" fill-rule="evenodd" fill-opacity="1" /><path clip-path="url(#clip510)" d="M 0 0 M226.524 1160.8 L244.88 1160.8 L244.88 1164.74 L230.806 1164.74 L230.806 1173.21 Q231.824 1172.86 232.843 1172.7 Q233.862 1172.52 234.88 1172.52 Q240.667 1172.52 244.047 1175.69 Q247.426 1178.86 247.426 1184.27 Q247.426 1189.85 243.954 1192.96 Q240.482 1196.03 234.162 1196.03 Q231.987 1196.03 229.718 1195.66 Q227.473 1195.29 225.065 1194.55 L225.065 1189.85 Q227.149 1190.99 229.371 1191.54 Q231.593 1192.1 234.07 1192.1 Q238.074 1192.1 240.412 1189.99 Q242.75 1187.89 242.75 1184.27 Q242.75 1180.66 240.412 1178.56 Q238.074 1176.45 234.07 1176.45 Q232.195 1176.45 230.32 1176.87 Q228.468 1177.28 226.524 1178.16 L226.524 1160.8 Z" fill="#000000" fill-rule="evenodd" fill-opacity="1" /><path clip-path="url(#clip510)" d="M 0 0 M266.639 1163.88 Q263.028 1163.88 261.199 1167.45 Q259.394 1170.99 259.394 1178.12 Q259.394 1185.22 261.199 1188.79 Q263.028 1192.33 266.639 1192.33 Q270.273 1192.33 272.079 1188.79 Q273.908 1185.22 273.908 1178.12 Q273.908 1170.99 272.079 1167.45 Q270.273 1163.88 266.639 1163.88 M266.639 1160.18 Q272.449 1160.18 275.505 1164.78 Q278.583 1169.37 278.583 1178.12 Q278.583 1186.84 275.505 1191.45 Q272.449 1196.03 266.639 1196.03 Q260.829 1196.03 257.75 1191.45 Q254.695 1186.84 254.695 1178.12 Q254.695 1169.37 257.75 1164.78 Q260.829 1160.18 266.639 1160.18 Z" fill="#000000" fill-rule="evenodd" fill-opacity="1" /><path clip-path="url(#clip510)" d="M 0 0 M314.972 1169.9 L304.394 1180.52 L314.972 1191.1 L312.218 1193.9 L301.593 1183.28 L290.968 1193.9 L288.236 1191.1 L298.792 1180.52 L288.236 1169.9 L290.968 1167.1 L301.593 1177.72 L312.218 1167.1 L314.972 1169.9 Z" fill="#000000" fill-rule="evenodd" fill-opacity="1" /><path clip-path="url(#clip510)" d="M 0 0 M327.333 1191.43 L334.972 1191.43 L334.972 1165.06 L326.662 1166.73 L326.662 1162.47 L334.926 1160.8 L339.602 1160.8 L339.602 1191.43 L347.241 1191.43 L347.241 1195.36 L327.333 1195.36 L327.333 1191.43 Z" fill="#000000" fill-rule="evenodd" fill-opacity="1" /><path clip-path="url(#clip510)" d="M 0 0 M366.685 1163.88 Q363.074 1163.88 361.245 1167.45 Q359.44 1170.99 359.44 1178.12 Q359.44 1185.22 361.245 1188.79 Q363.074 1192.33 366.685 1192.33 Q370.319 1192.33 372.125 1188.79 Q373.953 1185.22 373.953 1178.12 Q373.953 1170.99 372.125 1167.45 Q370.319 1163.88 366.685 1163.88 M366.685 1160.18 Q372.495 1160.18 375.551 1164.78 Q378.629 1169.37 378.629 1178.12 Q378.629 1186.84 375.551 1191.45 Q372.495 1196.03 366.685 1196.03 Q360.875 1196.03 357.796 1191.45 Q354.74 1186.84 354.74 1178.12 Q354.74 1169.37 357.796 1164.78 Q360.875 1160.18 366.685 1160.18 Z" fill="#000000" fill-rule="evenodd" fill-opacity="1" /><path clip-path="url(#clip510)" d="M 0 0 M378.629 1154.28 L402.741 1154.28 L402.741 1157.48 L378.629 1157.48 L378.629 1154.28 Z" fill="#000000" fill-rule="evenodd" fill-opacity="1" /><path clip-path="url(#clip510)" d="M 0 0 M411.599 1164.76 L417.806 1164.76 L417.806 1143.33 L411.054 1144.69 L411.054 1141.23 L417.768 1139.87 L421.567 1139.87 L421.567 1164.76 L427.774 1164.76 L427.774 1167.95 L411.599 1167.95 L411.599 1164.76 Z" fill="#000000" fill-rule="evenodd" fill-opacity="1" /><path clip-path="url(#clip510)" d="M 0 0 M50.9921 970.791 L80.6679 970.791 L80.6679 974.726 L50.9921 974.726 L50.9921 970.791 Z" fill="#000000" fill-rule="evenodd" fill-opacity="1" /><path clip-path="url(#clip510)" d="M 0 0 M101.339 968.476 Q98.1909 968.476 96.3391 970.629 Q94.5104 972.782 94.5104 976.532 Q94.5104 980.258 96.3391 982.434 Q98.1909 984.587 101.339 984.587 Q104.487 984.587 106.316 982.434 Q108.168 980.258 108.168 976.532 Q108.168 972.782 106.316 970.629 Q104.487 968.476 101.339 968.476 M110.621 953.823 L110.621 958.083 Q108.862 957.249 107.057 956.81 Q105.274 956.37 103.515 956.37 Q98.8854 956.37 96.4317 959.495 Q94.0012 962.62 93.6539 968.939 Q95.0197 966.925 97.0798 965.86 Q99.14 964.772 101.617 964.772 Q106.825 964.772 109.834 967.944 Q112.867 971.092 112.867 976.532 Q112.867 981.856 109.719 985.073 Q106.571 988.291 101.339 988.291 Q95.3437 988.291 92.1725 983.708 Q89.0012 979.101 89.0012 970.374 Q89.0012 962.18 92.89 957.319 Q96.7789 952.435 103.33 952.435 Q105.089 952.435 106.871 952.782 Q108.677 953.129 110.621 953.823 Z" fill="#000000" fill-rule="evenodd" fill-opacity="1" /><path clip-path="url(#clip510)" d="M 0 0 M120.922 981.74 L125.807 981.74 L125.807 987.62 L120.922 987.62 L120.922 981.74 Z" fill="#000000" fill-rule="evenodd" fill-opacity="1" /><path clip-path="url(#clip510)" d="M 0 0 M146.57 968.476 Q143.422 968.476 141.57 970.629 Q139.742 972.782 139.742 976.532 Q139.742 980.258 141.57 982.434 Q143.422 984.587 146.57 984.587 Q149.718 984.587 151.547 982.434 Q153.399 980.258 153.399 976.532 Q153.399 972.782 151.547 970.629 Q149.718 968.476 146.57 968.476 M155.853 953.823 L155.853 958.083 Q154.093 957.249 152.288 956.81 Q150.505 956.37 148.746 956.37 Q144.117 956.37 141.663 959.495 Q139.232 962.62 138.885 968.939 Q140.251 966.925 142.311 965.86 Q144.371 964.772 146.848 964.772 Q152.056 964.772 155.066 967.944 Q158.098 971.092 158.098 976.532 Q158.098 981.856 154.95 985.073 Q151.802 988.291 146.57 988.291 Q140.575 988.291 137.404 983.708 Q134.232 979.101 134.232 970.374 Q134.232 962.18 138.121 957.319 Q142.01 952.435 148.561 952.435 Q150.32 952.435 152.103 952.782 Q153.908 953.129 155.853 953.823 Z" fill="#000000" fill-rule="evenodd" fill-opacity="1" /><path clip-path="url(#clip510)" d="M 0 0 M166.292 986.902 L166.292 982.643 Q168.052 983.476 169.857 983.916 Q171.663 984.356 173.399 984.356 Q178.028 984.356 180.459 981.254 Q182.913 978.129 183.26 971.786 Q181.917 973.777 179.857 974.842 Q177.797 975.907 175.297 975.907 Q170.112 975.907 167.079 972.782 Q164.07 969.634 164.07 964.194 Q164.07 958.87 167.218 955.652 Q170.366 952.435 175.598 952.435 Q181.593 952.435 184.741 957.041 Q187.913 961.624 187.913 970.374 Q187.913 978.546 184.024 983.43 Q180.158 988.291 173.607 988.291 Q171.848 988.291 170.042 987.944 Q168.237 987.596 166.292 986.902 M175.598 972.249 Q178.746 972.249 180.575 970.097 Q182.427 967.944 182.427 964.194 Q182.427 960.467 180.575 958.314 Q178.746 956.138 175.598 956.138 Q172.45 956.138 170.598 958.314 Q168.769 960.467 168.769 964.194 Q168.769 967.944 170.598 970.097 Q172.45 972.249 175.598 972.249 Z" fill="#000000" fill-rule="evenodd" fill-opacity="1" /><path clip-path="url(#clip510)" d="M 0 0 M209.163 957.134 L197.357 975.583 L209.163 975.583 L209.163 957.134 M207.936 953.06 L213.815 953.06 L213.815 975.583 L218.746 975.583 L218.746 979.471 L213.815 979.471 L213.815 987.62 L209.163 987.62 L209.163 979.471 L193.561 979.471 L193.561 974.958 L207.936 953.06 Z" fill="#000000" fill-rule="evenodd" fill-opacity="1" /><path clip-path="url(#clip510)" d="M 0 0 M239.324 957.134 L227.519 975.583 L239.324 975.583 L239.324 957.134 M238.098 953.06 L243.977 953.06 L243.977 975.583 L248.908 975.583 L248.908 979.471 L243.977 979.471 L243.977 987.62 L239.324 987.62 L239.324 979.471 L223.723 979.471 L223.723 974.958 L238.098 953.06 Z" fill="#000000" fill-rule="evenodd" fill-opacity="1" /><path clip-path="url(#clip510)" d="M 0 0 M266.639 956.138 Q263.028 956.138 261.199 959.703 Q259.394 963.245 259.394 970.374 Q259.394 977.481 261.199 981.046 Q263.028 984.587 266.639 984.587 Q270.273 984.587 272.079 981.046 Q273.908 977.481 273.908 970.374 Q273.908 963.245 272.079 959.703 Q270.273 956.138 266.639 956.138 M266.639 952.435 Q272.449 952.435 275.505 957.041 Q278.583 961.624 278.583 970.374 Q278.583 979.101 275.505 983.708 Q272.449 988.291 266.639 988.291 Q260.829 988.291 257.75 983.708 Q254.695 979.101 254.695 970.374 Q254.695 961.624 257.75 957.041 Q260.829 952.435 266.639 952.435 Z" fill="#000000" fill-rule="evenodd" fill-opacity="1" /><path clip-path="url(#clip510)" d="M 0 0 M314.972 962.157 L304.394 972.782 L314.972 983.36 L312.218 986.161 L301.593 975.536 L290.968 986.161 L288.236 983.36 L298.792 972.782 L288.236 962.157 L290.968 959.356 L301.593 969.981 L312.218 959.356 L314.972 962.157 Z" fill="#000000" fill-rule="evenodd" fill-opacity="1" /><path clip-path="url(#clip510)" d="M 0 0 M327.333 983.684 L334.972 983.684 L334.972 957.319 L326.662 958.985 L326.662 954.726 L334.926 953.06 L339.602 953.06 L339.602 983.684 L347.241 983.684 L347.241 987.62 L327.333 987.62 L327.333 983.684 Z" fill="#000000" fill-rule="evenodd" fill-opacity="1" /><path clip-path="url(#clip510)" d="M 0 0 M366.685 956.138 Q363.074 956.138 361.245 959.703 Q359.44 963.245 359.44 970.374 Q359.44 977.481 361.245 981.046 Q363.074 984.587 366.685 984.587 Q370.319 984.587 372.125 981.046 Q373.953 977.481 373.953 970.374 Q373.953 963.245 372.125 959.703 Q370.319 956.138 366.685 956.138 M366.685 952.435 Q372.495 952.435 375.551 957.041 Q378.629 961.624 378.629 970.374 Q378.629 979.101 375.551 983.708 Q372.495 988.291 366.685 988.291 Q360.875 988.291 357.796 983.708 Q354.74 979.101 354.74 970.374 Q354.74 961.624 357.796 957.041 Q360.875 952.435 366.685 952.435 Z" fill="#000000" fill-rule="evenodd" fill-opacity="1" /><path clip-path="url(#clip510)" d="M 0 0 M378.629 946.536 L402.741 946.536 L402.741 949.733 L378.629 949.733 L378.629 946.536 Z" fill="#000000" fill-rule="evenodd" fill-opacity="1" /><path clip-path="url(#clip510)" d="M 0 0 M411.599 957.012 L417.806 957.012 L417.806 935.59 L411.054 936.944 L411.054 933.483 L417.768 932.129 L421.567 932.129 L421.567 957.012 L427.774 957.012 L427.774 960.209 L411.599 960.209 L411.599 957.012 Z" fill="#000000" fill-rule="evenodd" fill-opacity="1" /><path clip-path="url(#clip510)" d="M 0 0 M50.9921 763.048 L80.6679 763.048 L80.6679 766.983 L50.9921 766.983 L50.9921 763.048 Z" fill="#000000" fill-rule="evenodd" fill-opacity="1" /><path clip-path="url(#clip510)" d="M 0 0 M101.339 760.733 Q98.1909 760.733 96.3391 762.886 Q94.5104 765.038 94.5104 768.788 Q94.5104 772.515 96.3391 774.691 Q98.1909 776.844 101.339 776.844 Q104.487 776.844 106.316 774.691 Q108.168 772.515 108.168 768.788 Q108.168 765.038 106.316 762.886 Q104.487 760.733 101.339 760.733 M110.621 746.08 L110.621 750.339 Q108.862 749.506 107.057 749.066 Q105.274 748.626 103.515 748.626 Q98.8854 748.626 96.4317 751.751 Q94.0012 754.876 93.6539 761.196 Q95.0197 759.182 97.0798 758.117 Q99.14 757.029 101.617 757.029 Q106.825 757.029 109.834 760.2 Q112.867 763.349 112.867 768.788 Q112.867 774.112 109.719 777.33 Q106.571 780.548 101.339 780.548 Q95.3437 780.548 92.1725 775.964 Q89.0012 771.358 89.0012 762.631 Q89.0012 754.437 92.89 749.575 Q96.7789 744.691 103.33 744.691 Q105.089 744.691 106.871 745.038 Q108.677 745.386 110.621 746.08 Z" fill="#000000" fill-rule="evenodd" fill-opacity="1" /><path clip-path="url(#clip510)" d="M 0 0 M120.922 773.997 L125.807 773.997 L125.807 779.876 L120.922 779.876 L120.922 773.997 Z" fill="#000000" fill-rule="evenodd" fill-opacity="1" /><path clip-path="url(#clip510)" d="M 0 0 M146.57 760.733 Q143.422 760.733 141.57 762.886 Q139.742 765.038 139.742 768.788 Q139.742 772.515 141.57 774.691 Q143.422 776.844 146.57 776.844 Q149.718 776.844 151.547 774.691 Q153.399 772.515 153.399 768.788 Q153.399 765.038 151.547 762.886 Q149.718 760.733 146.57 760.733 M155.853 746.08 L155.853 750.339 Q154.093 749.506 152.288 749.066 Q150.505 748.626 148.746 748.626 Q144.117 748.626 141.663 751.751 Q139.232 754.876 138.885 761.196 Q140.251 759.182 142.311 758.117 Q144.371 757.029 146.848 757.029 Q152.056 757.029 155.066 760.2 Q158.098 763.349 158.098 768.788 Q158.098 774.112 154.95 777.33 Q151.802 780.548 146.57 780.548 Q140.575 780.548 137.404 775.964 Q134.232 771.358 134.232 762.631 Q134.232 754.437 138.121 749.575 Q142.01 744.691 148.561 744.691 Q150.32 744.691 152.103 745.038 Q153.908 745.386 155.853 746.08 Z" fill="#000000" fill-rule="evenodd" fill-opacity="1" /><path clip-path="url(#clip510)" d="M 0 0 M166.292 779.159 L166.292 774.899 Q168.052 775.733 169.857 776.173 Q171.663 776.612 173.399 776.612 Q178.028 776.612 180.459 773.511 Q182.913 770.386 183.26 764.043 Q181.917 766.034 179.857 767.099 Q177.797 768.163 175.297 768.163 Q170.112 768.163 167.079 765.038 Q164.07 761.89 164.07 756.45 Q164.07 751.126 167.218 747.909 Q170.366 744.691 175.598 744.691 Q181.593 744.691 184.741 749.298 Q187.913 753.881 187.913 762.631 Q187.913 770.802 184.024 775.686 Q180.158 780.548 173.607 780.548 Q171.848 780.548 170.042 780.2 Q168.237 779.853 166.292 779.159 M175.598 764.506 Q178.746 764.506 180.575 762.353 Q182.427 760.2 182.427 756.45 Q182.427 752.724 180.575 750.571 Q178.746 748.395 175.598 748.395 Q172.45 748.395 170.598 750.571 Q168.769 752.724 168.769 756.45 Q168.769 760.2 170.598 762.353 Q172.45 764.506 175.598 764.506 Z" fill="#000000" fill-rule="evenodd" fill-opacity="1" /><path clip-path="url(#clip510)" d="M 0 0 M209.163 749.39 L197.357 767.839 L209.163 767.839 L209.163 749.39 M207.936 745.316 L213.815 745.316 L213.815 767.839 L218.746 767.839 L218.746 771.728 L213.815 771.728 L213.815 779.876 L209.163 779.876 L209.163 771.728 L193.561 771.728 L193.561 767.214 L207.936 745.316 Z" fill="#000000" fill-rule="evenodd" fill-opacity="1" /><path clip-path="url(#clip510)" d="M 0 0 M240.644 761.242 Q244 761.96 245.875 764.228 Q247.773 766.497 247.773 769.83 Q247.773 774.946 244.255 777.747 Q240.736 780.548 234.255 780.548 Q232.079 780.548 229.764 780.108 Q227.473 779.691 225.019 778.835 L225.019 774.321 Q226.963 775.455 229.278 776.034 Q231.593 776.612 234.116 776.612 Q238.514 776.612 240.806 774.876 Q243.121 773.14 243.121 769.83 Q243.121 766.774 240.968 765.062 Q238.838 763.325 235.019 763.325 L230.991 763.325 L230.991 759.483 L235.204 759.483 Q238.653 759.483 240.482 758.117 Q242.311 756.728 242.311 754.136 Q242.311 751.474 240.412 750.062 Q238.537 748.626 235.019 748.626 Q233.098 748.626 230.899 749.043 Q228.7 749.46 226.061 750.339 L226.061 746.173 Q228.723 745.432 231.037 745.062 Q233.375 744.691 235.436 744.691 Q240.76 744.691 243.861 747.122 Q246.963 749.529 246.963 753.65 Q246.963 756.52 245.32 758.511 Q243.676 760.478 240.644 761.242 Z" fill="#000000" fill-rule="evenodd" fill-opacity="1" /><path clip-path="url(#clip510)" d="M 0 0 M266.639 748.395 Q263.028 748.395 261.199 751.96 Q259.394 755.501 259.394 762.631 Q259.394 769.737 261.199 773.302 Q263.028 776.844 266.639 776.844 Q270.273 776.844 272.079 773.302 Q273.908 769.737 273.908 762.631 Q273.908 755.501 272.079 751.96 Q270.273 748.395 266.639 748.395 M266.639 744.691 Q272.449 744.691 275.505 749.298 Q278.583 753.881 278.583 762.631 Q278.583 771.358 275.505 775.964 Q272.449 780.548 266.639 780.548 Q260.829 780.548 257.75 775.964 Q254.695 771.358 254.695 762.631 Q254.695 753.881 257.75 749.298 Q260.829 744.691 266.639 744.691 Z" fill="#000000" fill-rule="evenodd" fill-opacity="1" /><path clip-path="url(#clip510)" d="M 0 0 M314.972 754.413 L304.394 765.038 L314.972 775.617 L312.218 778.418 L301.593 767.793 L290.968 778.418 L288.236 775.617 L298.792 765.038 L288.236 754.413 L290.968 751.613 L301.593 762.237 L312.218 751.613 L314.972 754.413 Z" fill="#000000" fill-rule="evenodd" fill-opacity="1" /><path clip-path="url(#clip510)" d="M 0 0 M327.333 775.941 L334.972 775.941 L334.972 749.575 L326.662 751.242 L326.662 746.983 L334.926 745.316 L339.602 745.316 L339.602 775.941 L347.241 775.941 L347.241 779.876 L327.333 779.876 L327.333 775.941 Z" fill="#000000" fill-rule="evenodd" fill-opacity="1" /><path clip-path="url(#clip510)" d="M 0 0 M366.685 748.395 Q363.074 748.395 361.245 751.96 Q359.44 755.501 359.44 762.631 Q359.44 769.737 361.245 773.302 Q363.074 776.844 366.685 776.844 Q370.319 776.844 372.125 773.302 Q373.953 769.737 373.953 762.631 Q373.953 755.501 372.125 751.96 Q370.319 748.395 366.685 748.395 M366.685 744.691 Q372.495 744.691 375.551 749.298 Q378.629 753.881 378.629 762.631 Q378.629 771.358 375.551 775.964 Q372.495 780.548 366.685 780.548 Q360.875 780.548 357.796 775.964 Q354.74 771.358 354.74 762.631 Q354.74 753.881 357.796 749.298 Q360.875 744.691 366.685 744.691 Z" fill="#000000" fill-rule="evenodd" fill-opacity="1" /><path clip-path="url(#clip510)" d="M 0 0 M378.629 738.793 L402.741 738.793 L402.741 741.99 L378.629 741.99 L378.629 738.793 Z" fill="#000000" fill-rule="evenodd" fill-opacity="1" /><path clip-path="url(#clip510)" d="M 0 0 M411.599 749.269 L417.806 749.269 L417.806 727.846 L411.054 729.201 L411.054 725.74 L417.768 724.386 L421.567 724.386 L421.567 749.269 L427.774 749.269 L427.774 752.466 L411.599 752.466 L411.599 749.269 Z" fill="#000000" fill-rule="evenodd" fill-opacity="1" /><path clip-path="url(#clip510)" d="M 0 0 M50.9921 555.304 L80.6679 555.304 L80.6679 559.239 L50.9921 559.239 L50.9921 555.304 Z" fill="#000000" fill-rule="evenodd" fill-opacity="1" /><path clip-path="url(#clip510)" d="M 0 0 M101.339 552.99 Q98.1909 552.99 96.3391 555.142 Q94.5104 557.295 94.5104 561.045 Q94.5104 564.772 96.3391 566.948 Q98.1909 569.101 101.339 569.101 Q104.487 569.101 106.316 566.948 Q108.168 564.772 108.168 561.045 Q108.168 557.295 106.316 555.142 Q104.487 552.99 101.339 552.99 M110.621 538.337 L110.621 542.596 Q108.862 541.763 107.057 541.323 Q105.274 540.883 103.515 540.883 Q98.8854 540.883 96.4317 544.008 Q94.0012 547.133 93.6539 553.452 Q95.0197 551.439 97.0798 550.374 Q99.14 549.286 101.617 549.286 Q106.825 549.286 109.834 552.457 Q112.867 555.605 112.867 561.045 Q112.867 566.369 109.719 569.587 Q106.571 572.804 101.339 572.804 Q95.3437 572.804 92.1725 568.221 Q89.0012 563.614 89.0012 554.888 Q89.0012 546.693 92.89 541.832 Q96.7789 536.948 103.33 536.948 Q105.089 536.948 106.871 537.295 Q108.677 537.642 110.621 538.337 Z" fill="#000000" fill-rule="evenodd" fill-opacity="1" /><path clip-path="url(#clip510)" d="M 0 0 M120.922 566.253 L125.807 566.253 L125.807 572.133 L120.922 572.133 L120.922 566.253 Z" fill="#000000" fill-rule="evenodd" fill-opacity="1" /><path clip-path="url(#clip510)" d="M 0 0 M146.57 552.99 Q143.422 552.99 141.57 555.142 Q139.742 557.295 139.742 561.045 Q139.742 564.772 141.57 566.948 Q143.422 569.101 146.57 569.101 Q149.718 569.101 151.547 566.948 Q153.399 564.772 153.399 561.045 Q153.399 557.295 151.547 555.142 Q149.718 552.99 146.57 552.99 M155.853 538.337 L155.853 542.596 Q154.093 541.763 152.288 541.323 Q150.505 540.883 148.746 540.883 Q144.117 540.883 141.663 544.008 Q139.232 547.133 138.885 553.452 Q140.251 551.439 142.311 550.374 Q144.371 549.286 146.848 549.286 Q152.056 549.286 155.066 552.457 Q158.098 555.605 158.098 561.045 Q158.098 566.369 154.95 569.587 Q151.802 572.804 146.57 572.804 Q140.575 572.804 137.404 568.221 Q134.232 563.614 134.232 554.888 Q134.232 546.693 138.121 541.832 Q142.01 536.948 148.561 536.948 Q150.32 536.948 152.103 537.295 Q153.908 537.642 155.853 538.337 Z" fill="#000000" fill-rule="evenodd" fill-opacity="1" /><path clip-path="url(#clip510)" d="M 0 0 M166.292 571.415 L166.292 567.156 Q168.052 567.989 169.857 568.429 Q171.663 568.869 173.399 568.869 Q178.028 568.869 180.459 565.767 Q182.913 562.642 183.26 556.3 Q181.917 558.29 179.857 559.355 Q177.797 560.42 175.297 560.42 Q170.112 560.42 167.079 557.295 Q164.07 554.147 164.07 548.707 Q164.07 543.383 167.218 540.166 Q170.366 536.948 175.598 536.948 Q181.593 536.948 184.741 541.554 Q187.913 546.138 187.913 554.888 Q187.913 563.059 184.024 567.943 Q180.158 572.804 173.607 572.804 Q171.848 572.804 170.042 572.457 Q168.237 572.11 166.292 571.415 M175.598 556.763 Q178.746 556.763 180.575 554.61 Q182.427 552.457 182.427 548.707 Q182.427 544.98 180.575 542.828 Q178.746 540.652 175.598 540.652 Q172.45 540.652 170.598 542.828 Q168.769 544.98 168.769 548.707 Q168.769 552.457 170.598 554.61 Q172.45 556.763 175.598 556.763 Z" fill="#000000" fill-rule="evenodd" fill-opacity="1" /><path clip-path="url(#clip510)" d="M 0 0 M209.163 541.647 L197.357 560.096 L209.163 560.096 L209.163 541.647 M207.936 537.573 L213.815 537.573 L213.815 560.096 L218.746 560.096 L218.746 563.985 L213.815 563.985 L213.815 572.133 L209.163 572.133 L209.163 563.985 L193.561 563.985 L193.561 559.471 L207.936 537.573 Z" fill="#000000" fill-rule="evenodd" fill-opacity="1" /><path clip-path="url(#clip510)" d="M 0 0 M230.505 568.198 L246.824 568.198 L246.824 572.133 L224.88 572.133 L224.88 568.198 Q227.542 565.443 232.125 560.814 Q236.732 556.161 237.912 554.818 Q240.158 552.295 241.037 550.559 Q241.94 548.8 241.94 547.11 Q241.94 544.355 239.996 542.619 Q238.074 540.883 234.973 540.883 Q232.774 540.883 230.32 541.647 Q227.889 542.411 225.112 543.962 L225.112 539.24 Q227.936 538.105 230.389 537.527 Q232.843 536.948 234.88 536.948 Q240.25 536.948 243.445 539.633 Q246.639 542.318 246.639 546.809 Q246.639 548.939 245.829 550.86 Q245.042 552.758 242.936 555.351 Q242.357 556.022 239.255 559.239 Q236.153 562.434 230.505 568.198 Z" fill="#000000" fill-rule="evenodd" fill-opacity="1" /><path clip-path="url(#clip510)" d="M 0 0 M266.639 540.652 Q263.028 540.652 261.199 544.216 Q259.394 547.758 259.394 554.888 Q259.394 561.994 261.199 565.559 Q263.028 569.101 266.639 569.101 Q270.273 569.101 272.079 565.559 Q273.908 561.994 273.908 554.888 Q273.908 547.758 272.079 544.216 Q270.273 540.652 266.639 540.652 M266.639 536.948 Q272.449 536.948 275.505 541.554 Q278.583 546.138 278.583 554.888 Q278.583 563.614 275.505 568.221 Q272.449 572.804 266.639 572.804 Q260.829 572.804 257.75 568.221 Q254.695 563.614 254.695 554.888 Q254.695 546.138 257.75 541.554 Q260.829 536.948 266.639 536.948 Z" fill="#000000" fill-rule="evenodd" fill-opacity="1" /><path clip-path="url(#clip510)" d="M 0 0 M314.972 546.67 L304.394 557.295 L314.972 567.874 L312.218 570.675 L301.593 560.05 L290.968 570.675 L288.236 567.874 L298.792 557.295 L288.236 546.67 L290.968 543.869 L301.593 554.494 L312.218 543.869 L314.972 546.67 Z" fill="#000000" fill-rule="evenodd" fill-opacity="1" /><path clip-path="url(#clip510)" d="M 0 0 M327.333 568.198 L334.972 568.198 L334.972 541.832 L326.662 543.499 L326.662 539.24 L334.926 537.573 L339.602 537.573 L339.602 568.198 L347.241 568.198 L347.241 572.133 L327.333 572.133 L327.333 568.198 Z" fill="#000000" fill-rule="evenodd" fill-opacity="1" /><path clip-path="url(#clip510)" d="M 0 0 M366.685 540.652 Q363.074 540.652 361.245 544.216 Q359.44 547.758 359.44 554.888 Q359.44 561.994 361.245 565.559 Q363.074 569.101 366.685 569.101 Q370.319 569.101 372.125 565.559 Q373.953 561.994 373.953 554.888 Q373.953 547.758 372.125 544.216 Q370.319 540.652 366.685 540.652 M366.685 536.948 Q372.495 536.948 375.551 541.554 Q378.629 546.138 378.629 554.888 Q378.629 563.614 375.551 568.221 Q372.495 572.804 366.685 572.804 Q360.875 572.804 357.796 568.221 Q354.74 563.614 354.74 554.888 Q354.74 546.138 357.796 541.554 Q360.875 536.948 366.685 536.948 Z" fill="#000000" fill-rule="evenodd" fill-opacity="1" /><path clip-path="url(#clip510)" d="M 0 0 M378.629 531.049 L402.741 531.049 L402.741 534.247 L378.629 534.247 L378.629 531.049 Z" fill="#000000" fill-rule="evenodd" fill-opacity="1" /><path clip-path="url(#clip510)" d="M 0 0 M411.599 541.525 L417.806 541.525 L417.806 520.103 L411.054 521.457 L411.054 517.997 L417.768 516.643 L421.567 516.643 L421.567 541.525 L427.774 541.525 L427.774 544.723 L411.599 544.723 L411.599 541.525 Z" fill="#000000" fill-rule="evenodd" fill-opacity="1" /><path clip-path="url(#clip510)" d="M 0 0 M50.9921 347.561 L80.6679 347.561 L80.6679 351.496 L50.9921 351.496 L50.9921 347.561 Z" fill="#000000" fill-rule="evenodd" fill-opacity="1" /><path clip-path="url(#clip510)" d="M 0 0 M101.339 345.246 Q98.1909 345.246 96.3391 347.399 Q94.5104 349.552 94.5104 353.302 Q94.5104 357.029 96.3391 359.204 Q98.1909 361.357 101.339 361.357 Q104.487 361.357 106.316 359.204 Q108.168 357.029 108.168 353.302 Q108.168 349.552 106.316 347.399 Q104.487 345.246 101.339 345.246 M110.621 330.594 L110.621 334.853 Q108.862 334.019 107.057 333.58 Q105.274 333.14 103.515 333.14 Q98.8854 333.14 96.4317 336.265 Q94.0012 339.39 93.6539 345.709 Q95.0197 343.695 97.0798 342.63 Q99.14 341.543 101.617 341.543 Q106.825 341.543 109.834 344.714 Q112.867 347.862 112.867 353.302 Q112.867 358.626 109.719 361.843 Q106.571 365.061 101.339 365.061 Q95.3437 365.061 92.1725 360.478 Q89.0012 355.871 89.0012 347.144 Q89.0012 338.95 92.89 334.089 Q96.7789 329.205 103.33 329.205 Q105.089 329.205 106.871 329.552 Q108.677 329.899 110.621 330.594 Z" fill="#000000" fill-rule="evenodd" fill-opacity="1" /><path clip-path="url(#clip510)" d="M 0 0 M120.922 358.51 L125.807 358.51 L125.807 364.39 L120.922 364.39 L120.922 358.51 Z" fill="#000000" fill-rule="evenodd" fill-opacity="1" /><path clip-path="url(#clip510)" d="M 0 0 M146.57 345.246 Q143.422 345.246 141.57 347.399 Q139.742 349.552 139.742 353.302 Q139.742 357.029 141.57 359.204 Q143.422 361.357 146.57 361.357 Q149.718 361.357 151.547 359.204 Q153.399 357.029 153.399 353.302 Q153.399 349.552 151.547 347.399 Q149.718 345.246 146.57 345.246 M155.853 330.594 L155.853 334.853 Q154.093 334.019 152.288 333.58 Q150.505 333.14 148.746 333.14 Q144.117 333.14 141.663 336.265 Q139.232 339.39 138.885 345.709 Q140.251 343.695 142.311 342.63 Q144.371 341.543 146.848 341.543 Q152.056 341.543 155.066 344.714 Q158.098 347.862 158.098 353.302 Q158.098 358.626 154.95 361.843 Q151.802 365.061 146.57 365.061 Q140.575 365.061 137.404 360.478 Q134.232 355.871 134.232 347.144 Q134.232 338.95 138.121 334.089 Q142.01 329.205 148.561 329.205 Q150.32 329.205 152.103 329.552 Q153.908 329.899 155.853 330.594 Z" fill="#000000" fill-rule="evenodd" fill-opacity="1" /><path clip-path="url(#clip510)" d="M 0 0 M166.292 363.672 L166.292 359.413 Q168.052 360.246 169.857 360.686 Q171.663 361.126 173.399 361.126 Q178.028 361.126 180.459 358.024 Q182.913 354.899 183.26 348.556 Q181.917 350.547 179.857 351.612 Q177.797 352.677 175.297 352.677 Q170.112 352.677 167.079 349.552 Q164.07 346.404 164.07 340.964 Q164.07 335.64 167.218 332.422 Q170.366 329.205 175.598 329.205 Q181.593 329.205 184.741 333.811 Q187.913 338.394 187.913 347.144 Q187.913 355.316 184.024 360.2 Q180.158 365.061 173.607 365.061 Q171.848 365.061 170.042 364.714 Q168.237 364.366 166.292 363.672 M175.598 349.019 Q178.746 349.019 180.575 346.867 Q182.427 344.714 182.427 340.964 Q182.427 337.237 180.575 335.084 Q178.746 332.908 175.598 332.908 Q172.45 332.908 170.598 335.084 Q168.769 337.237 168.769 340.964 Q168.769 344.714 170.598 346.867 Q172.45 349.019 175.598 349.019 Z" fill="#000000" fill-rule="evenodd" fill-opacity="1" /><path clip-path="url(#clip510)" d="M 0 0 M209.163 333.904 L197.357 352.353 L209.163 352.353 L209.163 333.904 M207.936 329.83 L213.815 329.83 L213.815 352.353 L218.746 352.353 L218.746 356.242 L213.815 356.242 L213.815 364.39 L209.163 364.39 L209.163 356.242 L193.561 356.242 L193.561 351.728 L207.936 329.83 Z" fill="#000000" fill-rule="evenodd" fill-opacity="1" /><path clip-path="url(#clip510)" d="M 0 0 M227.287 360.454 L234.926 360.454 L234.926 334.089 L226.616 335.756 L226.616 331.496 L234.88 329.83 L239.556 329.83 L239.556 360.454 L247.195 360.454 L247.195 364.39 L227.287 364.39 L227.287 360.454 Z" fill="#000000" fill-rule="evenodd" fill-opacity="1" /><path clip-path="url(#clip510)" d="M 0 0 M266.639 332.908 Q263.028 332.908 261.199 336.473 Q259.394 340.015 259.394 347.144 Q259.394 354.251 261.199 357.816 Q263.028 361.357 266.639 361.357 Q270.273 361.357 272.079 357.816 Q273.908 354.251 273.908 347.144 Q273.908 340.015 272.079 336.473 Q270.273 332.908 266.639 332.908 M266.639 329.205 Q272.449 329.205 275.505 333.811 Q278.583 338.394 278.583 347.144 Q278.583 355.871 275.505 360.478 Q272.449 365.061 266.639 365.061 Q260.829 365.061 257.75 360.478 Q254.695 355.871 254.695 347.144 Q254.695 338.394 257.75 333.811 Q260.829 329.205 266.639 329.205 Z" fill="#000000" fill-rule="evenodd" fill-opacity="1" /><path clip-path="url(#clip510)" d="M 0 0 M314.972 338.927 L304.394 349.552 L314.972 360.13 L312.218 362.931 L301.593 352.306 L290.968 362.931 L288.236 360.13 L298.792 349.552 L288.236 338.927 L290.968 336.126 L301.593 346.751 L312.218 336.126 L314.972 338.927 Z" fill="#000000" fill-rule="evenodd" fill-opacity="1" /><path clip-path="url(#clip510)" d="M 0 0 M327.333 360.454 L334.972 360.454 L334.972 334.089 L326.662 335.756 L326.662 331.496 L334.926 329.83 L339.602 329.83 L339.602 360.454 L347.241 360.454 L347.241 364.39 L327.333 364.39 L327.333 360.454 Z" fill="#000000" fill-rule="evenodd" fill-opacity="1" /><path clip-path="url(#clip510)" d="M 0 0 M366.685 332.908 Q363.074 332.908 361.245 336.473 Q359.44 340.015 359.44 347.144 Q359.44 354.251 361.245 357.816 Q363.074 361.357 366.685 361.357 Q370.319 361.357 372.125 357.816 Q373.953 354.251 373.953 347.144 Q373.953 340.015 372.125 336.473 Q370.319 332.908 366.685 332.908 M366.685 329.205 Q372.495 329.205 375.551 333.811 Q378.629 338.394 378.629 347.144 Q378.629 355.871 375.551 360.478 Q372.495 365.061 366.685 365.061 Q360.875 365.061 357.796 360.478 Q354.74 355.871 354.74 347.144 Q354.74 338.394 357.796 333.811 Q360.875 329.205 366.685 329.205 Z" fill="#000000" fill-rule="evenodd" fill-opacity="1" /><path clip-path="url(#clip510)" d="M 0 0 M378.629 323.306 L402.741 323.306 L402.741 326.503 L378.629 326.503 L378.629 323.306 Z" fill="#000000" fill-rule="evenodd" fill-opacity="1" /><path clip-path="url(#clip510)" d="M 0 0 M411.599 333.782 L417.806 333.782 L417.806 312.36 L411.054 313.714 L411.054 310.253 L417.768 308.899 L421.567 308.899 L421.567 333.782 L427.774 333.782 L427.774 336.979 L411.599 336.979 L411.599 333.782 Z" fill="#000000" fill-rule="evenodd" fill-opacity="1" /><path clip-path="url(#clip510)" d="M 0 0 M50.9921 139.818 L80.6679 139.818 L80.6679 143.753 L50.9921 143.753 L50.9921 139.818 Z" fill="#000000" fill-rule="evenodd" fill-opacity="1" /><path clip-path="url(#clip510)" d="M 0 0 M101.339 137.503 Q98.1909 137.503 96.3391 139.656 Q94.5104 141.808 94.5104 145.558 Q94.5104 149.285 96.3391 151.461 Q98.1909 153.614 101.339 153.614 Q104.487 153.614 106.316 151.461 Q108.168 149.285 108.168 145.558 Q108.168 141.808 106.316 139.656 Q104.487 137.503 101.339 137.503 M110.621 122.85 L110.621 127.109 Q108.862 126.276 107.057 125.836 Q105.274 125.396 103.515 125.396 Q98.8854 125.396 96.4317 128.521 Q94.0012 131.646 93.6539 137.966 Q95.0197 135.952 97.0798 134.887 Q99.14 133.799 101.617 133.799 Q106.825 133.799 109.834 136.97 Q112.867 140.119 112.867 145.558 Q112.867 150.882 109.719 154.1 Q106.571 157.318 101.339 157.318 Q95.3437 157.318 92.1725 152.734 Q89.0012 148.128 89.0012 139.401 Q89.0012 131.207 92.89 126.346 Q96.7789 121.461 103.33 121.461 Q105.089 121.461 106.871 121.809 Q108.677 122.156 110.621 122.85 Z" fill="#000000" fill-rule="evenodd" fill-opacity="1" /><path clip-path="url(#clip510)" d="M 0 0 M120.922 150.767 L125.807 150.767 L125.807 156.646 L120.922 156.646 L120.922 150.767 Z" fill="#000000" fill-rule="evenodd" fill-opacity="1" /><path clip-path="url(#clip510)" d="M 0 0 M146.57 137.503 Q143.422 137.503 141.57 139.656 Q139.742 141.808 139.742 145.558 Q139.742 149.285 141.57 151.461 Q143.422 153.614 146.57 153.614 Q149.718 153.614 151.547 151.461 Q153.399 149.285 153.399 145.558 Q153.399 141.808 151.547 139.656 Q149.718 137.503 146.57 137.503 M155.853 122.85 L155.853 127.109 Q154.093 126.276 152.288 125.836 Q150.505 125.396 148.746 125.396 Q144.117 125.396 141.663 128.521 Q139.232 131.646 138.885 137.966 Q140.251 135.952 142.311 134.887 Q144.371 133.799 146.848 133.799 Q152.056 133.799 155.066 136.97 Q158.098 140.119 158.098 145.558 Q158.098 150.882 154.95 154.1 Q151.802 157.318 146.57 157.318 Q140.575 157.318 137.404 152.734 Q134.232 148.128 134.232 139.401 Q134.232 131.207 138.121 126.346 Q142.01 121.461 148.561 121.461 Q150.32 121.461 152.103 121.809 Q153.908 122.156 155.853 122.85 Z" fill="#000000" fill-rule="evenodd" fill-opacity="1" /><path clip-path="url(#clip510)" d="M 0 0 M166.292 155.929 L166.292 151.669 Q168.052 152.503 169.857 152.943 Q171.663 153.382 173.399 153.382 Q178.028 153.382 180.459 150.281 Q182.913 147.156 183.26 140.813 Q181.917 142.804 179.857 143.869 Q177.797 144.933 175.297 144.933 Q170.112 144.933 167.079 141.808 Q164.07 138.66 164.07 133.221 Q164.07 127.896 167.218 124.679 Q170.366 121.461 175.598 121.461 Q181.593 121.461 184.741 126.068 Q187.913 130.651 187.913 139.401 Q187.913 147.572 184.024 152.457 Q180.158 157.318 173.607 157.318 Q171.848 157.318 170.042 156.97 Q168.237 156.623 166.292 155.929 M175.598 141.276 Q178.746 141.276 180.575 139.123 Q182.427 136.97 182.427 133.221 Q182.427 129.494 180.575 127.341 Q178.746 125.165 175.598 125.165 Q172.45 125.165 170.598 127.341 Q168.769 129.494 168.769 133.221 Q168.769 136.97 170.598 139.123 Q172.45 141.276 175.598 141.276 Z" fill="#000000" fill-rule="evenodd" fill-opacity="1" /><path clip-path="url(#clip510)" d="M 0 0 M209.163 126.16 L197.357 144.609 L209.163 144.609 L209.163 126.16 M207.936 122.086 L213.815 122.086 L213.815 144.609 L218.746 144.609 L218.746 148.498 L213.815 148.498 L213.815 156.646 L209.163 156.646 L209.163 148.498 L193.561 148.498 L193.561 143.984 L207.936 122.086 Z" fill="#000000" fill-rule="evenodd" fill-opacity="1" /><path clip-path="url(#clip510)" d="M 0 0 M236.477 125.165 Q232.866 125.165 231.037 128.73 Q229.232 132.271 229.232 139.401 Q229.232 146.507 231.037 150.072 Q232.866 153.614 236.477 153.614 Q240.111 153.614 241.917 150.072 Q243.746 146.507 243.746 139.401 Q243.746 132.271 241.917 128.73 Q240.111 125.165 236.477 125.165 M236.477 121.461 Q242.287 121.461 245.343 126.068 Q248.422 130.651 248.422 139.401 Q248.422 148.128 245.343 152.734 Q242.287 157.318 236.477 157.318 Q230.667 157.318 227.588 152.734 Q224.533 148.128 224.533 139.401 Q224.533 130.651 227.588 126.068 Q230.667 121.461 236.477 121.461 Z" fill="#000000" fill-rule="evenodd" fill-opacity="1" /><path clip-path="url(#clip510)" d="M 0 0 M266.639 125.165 Q263.028 125.165 261.199 128.73 Q259.394 132.271 259.394 139.401 Q259.394 146.507 261.199 150.072 Q263.028 153.614 266.639 153.614 Q270.273 153.614 272.079 150.072 Q273.908 146.507 273.908 139.401 Q273.908 132.271 272.079 128.73 Q270.273 125.165 266.639 125.165 M266.639 121.461 Q272.449 121.461 275.505 126.068 Q278.583 130.651 278.583 139.401 Q278.583 148.128 275.505 152.734 Q272.449 157.318 266.639 157.318 Q260.829 157.318 257.75 152.734 Q254.695 148.128 254.695 139.401 Q254.695 130.651 257.75 126.068 Q260.829 121.461 266.639 121.461 Z" fill="#000000" fill-rule="evenodd" fill-opacity="1" /><path clip-path="url(#clip510)" d="M 0 0 M314.972 131.183 L304.394 141.808 L314.972 152.387 L312.218 155.188 L301.593 144.563 L290.968 155.188 L288.236 152.387 L298.792 141.808 L288.236 131.183 L290.968 128.383 L301.593 139.008 L312.218 128.383 L314.972 131.183 Z" fill="#000000" fill-rule="evenodd" fill-opacity="1" /><path clip-path="url(#clip510)" d="M 0 0 M327.333 152.711 L334.972 152.711 L334.972 126.346 L326.662 128.012 L326.662 123.753 L334.926 122.086 L339.602 122.086 L339.602 152.711 L347.241 152.711 L347.241 156.646 L327.333 156.646 L327.333 152.711 Z" fill="#000000" fill-rule="evenodd" fill-opacity="1" /><path clip-path="url(#clip510)" d="M 0 0 M366.685 125.165 Q363.074 125.165 361.245 128.73 Q359.44 132.271 359.44 139.401 Q359.44 146.507 361.245 150.072 Q363.074 153.614 366.685 153.614 Q370.319 153.614 372.125 150.072 Q373.953 146.507 373.953 139.401 Q373.953 132.271 372.125 128.73 Q370.319 125.165 366.685 125.165 M366.685 121.461 Q372.495 121.461 375.551 126.068 Q378.629 130.651 378.629 139.401 Q378.629 148.128 375.551 152.734 Q372.495 157.318 366.685 157.318 Q360.875 157.318 357.796 152.734 Q354.74 148.128 354.74 139.401 Q354.74 130.651 357.796 126.068 Q360.875 121.461 366.685 121.461 Z" fill="#000000" fill-rule="evenodd" fill-opacity="1" /><path clip-path="url(#clip510)" d="M 0 0 M378.629 115.563 L402.741 115.563 L402.741 118.76 L378.629 118.76 L378.629 115.563 Z" fill="#000000" fill-rule="evenodd" fill-opacity="1" /><path clip-path="url(#clip510)" d="M 0 0 M411.599 126.039 L417.806 126.039 L417.806 104.617 L411.054 105.971 L411.054 102.51 L417.768 101.156 L421.567 101.156 L421.567 126.039 L427.774 126.039 L427.774 129.236 L411.599 129.236 L411.599 126.039 Z" fill="#000000" fill-rule="evenodd" fill-opacity="1" /><path clip-path="url(#clip510)" d="M 0 0 M1309.3 48.0275 L1309.3 51.6733 L1275.03 51.6733 Q1275.52 59.3701 1279.65 63.421 Q1283.82 67.4314 1291.23 67.4314 Q1295.53 67.4314 1299.54 66.3781 Q1303.59 65.3249 1307.56 63.2184 L1307.56 70.267 Q1303.55 71.9684 1299.34 72.8596 Q1295.12 73.7508 1290.79 73.7508 Q1279.93 73.7508 1273.57 67.4314 Q1267.25 61.1119 1267.25 50.3365 Q1267.25 39.1965 1273.25 32.6746 Q1279.28 26.1121 1289.49 26.1121 Q1298.65 26.1121 1303.95 32.0264 Q1309.3 37.9003 1309.3 48.0275 M1301.85 45.84 Q1301.77 39.7232 1298.4 36.0774 Q1295.08 32.4315 1289.57 32.4315 Q1283.34 32.4315 1279.57 35.9558 Q1275.84 39.4801 1275.27 45.8805 L1301.85 45.84 Z" fill="#000000" fill-rule="evenodd" fill-opacity="1" /><path clip-path="url(#clip510)" d="M 0 0 M1359.25 45.1919 L1359.25 72.576 L1351.8 72.576 L1351.8 45.4349 Q1351.8 38.994 1349.28 35.7938 Q1346.77 32.5936 1341.75 32.5936 Q1335.71 32.5936 1332.23 36.4419 Q1328.75 40.2903 1328.75 46.9338 L1328.75 72.576 L1321.25 72.576 L1321.25 27.2059 L1328.75 27.2059 L1328.75 34.2544 Q1331.42 30.163 1335.02 28.1376 Q1338.67 26.1121 1343.41 26.1121 Q1351.23 26.1121 1355.24 30.9732 Q1359.25 35.7938 1359.25 45.1919 Z" fill="#000000" fill-rule="evenodd" fill-opacity="1" /><path clip-path="url(#clip510)" d="M 0 0 M1412.92 48.0275 L1412.92 51.6733 L1378.65 51.6733 Q1379.14 59.3701 1383.27 63.421 Q1387.44 67.4314 1394.86 67.4314 Q1399.15 67.4314 1403.16 66.3781 Q1407.21 65.3249 1411.18 63.2184 L1411.18 70.267 Q1407.17 71.9684 1402.96 72.8596 Q1398.75 73.7508 1394.41 73.7508 Q1383.55 73.7508 1377.19 67.4314 Q1370.88 61.1119 1370.88 50.3365 Q1370.88 39.1965 1376.87 32.6746 Q1382.91 26.1121 1393.11 26.1121 Q1402.27 26.1121 1407.58 32.0264 Q1412.92 37.9003 1412.92 48.0275 M1405.47 45.84 Q1405.39 39.7232 1402.03 36.0774 Q1398.7 32.4315 1393.2 32.4315 Q1386.96 32.4315 1383.19 35.9558 Q1379.46 39.4801 1378.9 45.8805 L1405.47 45.84 Z" fill="#000000" fill-rule="evenodd" fill-opacity="1" /><path clip-path="url(#clip510)" d="M 0 0 M1451.45 34.1734 Q1450.19 33.4443 1448.69 33.1202 Q1447.23 32.7556 1445.45 32.7556 Q1439.13 32.7556 1435.73 36.8875 Q1432.37 40.9789 1432.37 48.6757 L1432.37 72.576 L1424.87 72.576 L1424.87 27.2059 L1432.37 27.2059 L1432.37 34.2544 Q1434.72 30.1225 1438.48 28.1376 Q1442.25 26.1121 1447.64 26.1121 Q1448.41 26.1121 1449.34 26.2337 Q1450.27 26.3147 1451.41 26.5172 L1451.45 34.1734 Z" fill="#000000" fill-rule="evenodd" fill-opacity="1" /><path clip-path="url(#clip510)" d="M 0 0 M1487.66 49.3643 Q1487.66 41.2625 1484.3 36.8065 Q1480.98 32.3505 1474.94 32.3505 Q1468.95 32.3505 1465.59 36.8065 Q1462.26 41.2625 1462.26 49.3643 Q1462.26 57.4256 1465.59 61.8816 Q1468.95 66.3376 1474.94 66.3376 Q1480.98 66.3376 1484.3 61.8816 Q1487.66 57.4256 1487.66 49.3643 M1495.12 66.9452 Q1495.12 78.5308 1489.97 84.1616 Q1484.83 89.8329 1474.21 89.8329 Q1470.28 89.8329 1466.8 89.2252 Q1463.32 88.6581 1460.04 87.4428 L1460.04 80.1917 Q1463.32 81.9741 1466.52 82.8248 Q1469.72 83.6755 1473.04 83.6755 Q1480.37 83.6755 1484.02 79.8271 Q1487.66 76.0193 1487.66 68.282 L1487.66 64.5957 Q1485.35 68.6061 1481.75 70.5911 Q1478.14 72.576 1473.12 72.576 Q1464.78 72.576 1459.67 66.2161 Q1454.57 59.8562 1454.57 49.3643 Q1454.57 38.832 1459.67 32.472 Q1464.78 26.1121 1473.12 26.1121 Q1478.14 26.1121 1481.75 28.0971 Q1485.35 30.082 1487.66 34.0924 L1487.66 27.2059 L1495.12 27.2059 L1495.12 66.9452 Z" fill="#000000" fill-rule="evenodd" fill-opacity="1" /><path clip-path="url(#clip510)" d="M 0 0 M1529.35 76.7889 Q1526.19 84.8907 1523.19 87.3618 Q1520.19 89.8329 1515.17 89.8329 L1509.21 89.8329 L1509.21 83.5945 L1513.59 83.5945 Q1516.67 83.5945 1518.37 82.1361 Q1520.07 80.6778 1522.14 75.2496 L1523.47 71.8468 L1505.12 27.2059 L1513.02 27.2059 L1527.2 62.6918 L1541.38 27.2059 L1549.28 27.2059 L1529.35 76.7889 Z" fill="#000000" fill-rule="evenodd" fill-opacity="1" /><polyline clip-path="url(#clip512)" style="stroke:#009af9; stroke-width:12; stroke-opacity:1; fill:none" points="
  517.236,162.047 771.815,1187.18 1026.4,1447.87 1280.98,1054.21 1535.55,1133.23 1790.13,1155.47 2044.71,1105 2299.29,926.392 
  "/>
<path clip-path="url(#clip510)" d="
M1918.75 289.865 L2289.79 289.865 L2289.79 168.905 L1918.75 168.905  Z
  " fill="#ffffff" fill-rule="evenodd" fill-opacity="1"/>
<polyline clip-path="url(#clip510)" style="stroke:#000000; stroke-width:4; stroke-opacity:1; fill:none" points="
  1918.75,289.865 2289.79,289.865 2289.79,168.905 1918.75,168.905 1918.75,289.865 
  "/>
<polyline clip-path="url(#clip510)" style="stroke:#009af9; stroke-width:4; stroke-opacity:1; fill:none" points="
  1939.74,229.385 2065.67,229.385 
  "/>
<path clip-path="url(#clip510)" d="M 0 0 M2110.68 232.637 L2110.68 234.72 L2091.1 234.72 Q2091.38 239.118 2093.74 241.433 Q2096.12 243.725 2100.36 243.725 Q2102.81 243.725 2105.1 243.123 Q2107.42 242.521 2109.69 241.317 L2109.69 245.345 Q2107.4 246.317 2104.99 246.827 Q2102.58 247.336 2100.1 247.336 Q2093.9 247.336 2090.27 243.725 Q2086.66 240.114 2086.66 233.956 Q2086.66 227.591 2090.08 223.864 Q2093.53 220.114 2099.36 220.114 Q2104.6 220.114 2107.63 223.493 Q2110.68 226.85 2110.68 232.637 M2106.42 231.387 Q2106.38 227.892 2104.46 225.808 Q2102.56 223.725 2099.41 223.725 Q2095.85 223.725 2093.69 225.739 Q2091.56 227.753 2091.24 231.41 L2106.42 231.387 Z" fill="#000000" fill-rule="evenodd" fill-opacity="1" /><path clip-path="url(#clip510)" d="M 0 0 M2139.23 231.017 L2139.23 246.665 L2134.97 246.665 L2134.97 231.155 Q2134.97 227.475 2133.53 225.646 Q2132.1 223.818 2129.23 223.818 Q2125.78 223.818 2123.79 226.017 Q2121.79 228.216 2121.79 232.012 L2121.79 246.665 L2117.51 246.665 L2117.51 220.739 L2121.79 220.739 L2121.79 224.767 Q2123.32 222.429 2125.38 221.271 Q2127.47 220.114 2130.17 220.114 Q2134.64 220.114 2136.93 222.892 Q2139.23 225.646 2139.23 231.017 Z" fill="#000000" fill-rule="evenodd" fill-opacity="1" /><path clip-path="url(#clip510)" d="M 0 0 M2169.9 232.637 L2169.9 234.72 L2150.31 234.72 Q2150.59 239.118 2152.95 241.433 Q2155.34 243.725 2159.57 243.725 Q2162.03 243.725 2164.32 243.123 Q2166.63 242.521 2168.9 241.317 L2168.9 245.345 Q2166.61 246.317 2164.2 246.827 Q2161.79 247.336 2159.32 247.336 Q2153.11 247.336 2149.48 243.725 Q2145.87 240.114 2145.87 233.956 Q2145.87 227.591 2149.29 223.864 Q2152.74 220.114 2158.58 220.114 Q2163.81 220.114 2166.84 223.493 Q2169.9 226.85 2169.9 232.637 M2165.64 231.387 Q2165.59 227.892 2163.67 225.808 Q2161.77 223.725 2158.62 223.725 Q2155.06 223.725 2152.91 225.739 Q2150.78 227.753 2150.45 231.41 L2165.64 231.387 Z" fill="#000000" fill-rule="evenodd" fill-opacity="1" /><path clip-path="url(#clip510)" d="M 0 0 M2191.91 224.72 Q2191.19 224.304 2190.34 224.118 Q2189.5 223.91 2188.48 223.91 Q2184.87 223.91 2182.93 226.271 Q2181.01 228.609 2181.01 233.007 L2181.01 246.665 L2176.72 246.665 L2176.72 220.739 L2181.01 220.739 L2181.01 224.767 Q2182.35 222.406 2184.5 221.271 Q2186.66 220.114 2189.73 220.114 Q2190.17 220.114 2190.71 220.183 Q2191.24 220.23 2191.89 220.345 L2191.91 224.72 Z" fill="#000000" fill-rule="evenodd" fill-opacity="1" /><path clip-path="url(#clip510)" d="M 0 0 M2212.6 233.401 Q2212.6 228.771 2210.68 226.225 Q2208.78 223.679 2205.34 223.679 Q2201.91 223.679 2199.99 226.225 Q2198.09 228.771 2198.09 233.401 Q2198.09 238.007 2199.99 240.554 Q2201.91 243.1 2205.34 243.1 Q2208.78 243.1 2210.68 240.554 Q2212.6 238.007 2212.6 233.401 M2216.86 243.447 Q2216.86 250.067 2213.92 253.285 Q2210.98 256.526 2204.92 256.526 Q2202.67 256.526 2200.68 256.178 Q2198.69 255.854 2196.82 255.16 L2196.82 251.016 Q2198.69 252.035 2200.52 252.521 Q2202.35 253.007 2204.25 253.007 Q2208.44 253.007 2210.52 250.808 Q2212.6 248.632 2212.6 244.211 L2212.6 242.104 Q2211.28 244.396 2209.22 245.53 Q2207.16 246.665 2204.29 246.665 Q2199.53 246.665 2196.61 243.03 Q2193.69 239.396 2193.69 233.401 Q2193.69 227.382 2196.61 223.748 Q2199.53 220.114 2204.29 220.114 Q2207.16 220.114 2209.22 221.248 Q2211.28 222.382 2212.6 224.674 L2212.6 220.739 L2216.86 220.739 L2216.86 243.447 Z" fill="#000000" fill-rule="evenodd" fill-opacity="1" /><path clip-path="url(#clip510)" d="M 0 0 M2236.42 249.072 Q2234.62 253.702 2232.91 255.114 Q2231.19 256.526 2228.32 256.526 L2224.92 256.526 L2224.92 252.961 L2227.42 252.961 Q2229.18 252.961 2230.15 252.128 Q2231.12 251.294 2232.3 248.192 L2233.07 246.248 L2222.58 220.739 L2227.09 220.739 L2235.2 241.017 L2243.3 220.739 L2247.81 220.739 L2236.42 249.072 Z" fill="#000000" fill-rule="evenodd" fill-opacity="1" /></svg>
