<?xml version="1.0" encoding="utf-8"?>
<svg xmlns="http://www.w3.org/2000/svg" xmlns:xlink="http://www.w3.org/1999/xlink" width="600" height="400" viewBox="0 0 2400 1600">
<defs>
  <clipPath id="clip540">
    <rect x="0" y="0" width="2400" height="1600"/>
  </clipPath>
</defs>
<path clip-path="url(#clip540)" d="
M0 1600 L2400 1600 L2400 0 L0 0  Z
  " fill="#ffffff" fill-rule="evenodd" fill-opacity="1"/>
<defs>
  <clipPath id="clip541">
    <rect x="480" y="0" width="1681" height="1600"/>
  </clipPath>
</defs>
<path clip-path="url(#clip540)" d="
M314.583 1486.45 L2352.76 1486.45 L2352.76 123.472 L314.583 123.472  Z
  " fill="#ffffff" fill-rule="evenodd" fill-opacity="1"/>
<defs>
  <clipPath id="clip542">
    <rect x="314" y="123" width="2039" height="1364"/>
  </clipPath>
</defs>
<polyline clip-path="url(#clip542)" style="stroke:#000000; stroke-width:2; stroke-opacity:0.1; fill:none" points="
  372.268,1486.45 372.268,123.472 
  "/>
<polyline clip-path="url(#clip542)" style="stroke:#000000; stroke-width:2; stroke-opacity:0.1; fill:none" points="
  692.735,1486.45 692.735,123.472 
  "/>
<polyline clip-path="url(#clip542)" style="stroke:#000000; stroke-width:2; stroke-opacity:0.1; fill:none" points="
  1013.2,1486.45 1013.2,123.472 
  "/>
<polyline clip-path="url(#clip542)" style="stroke:#000000; stroke-width:2; stroke-opacity:0.1; fill:none" points="
  1333.67,1486.45 1333.67,123.472 
  "/>
<polyline clip-path="url(#clip542)" style="stroke:#000000; stroke-width:2; stroke-opacity:0.1; fill:none" points="
  1654.14,1486.45 1654.14,123.472 
  "/>
<polyline clip-path="url(#clip542)" style="stroke:#000000; stroke-width:2; stroke-opacity:0.1; fill:none" points="
  1974.6,1486.45 1974.6,123.472 
  "/>
<polyline clip-path="url(#clip542)" style="stroke:#000000; stroke-width:2; stroke-opacity:0.1; fill:none" points="
  2295.07,1486.45 2295.07,123.472 
  "/>
<polyline clip-path="url(#clip540)" style="stroke:#000000; stroke-width:4; stroke-opacity:1; fill:none" points="
  314.583,1486.45 2352.76,1486.45 
  "/>
<polyline clip-path="url(#clip540)" style="stroke:#000000; stroke-width:4; stroke-opacity:1; fill:none" points="
  372.268,1486.45 372.268,1470.09 
  "/>
<polyline clip-path="url(#clip540)" style="stroke:#000000; stroke-width:4; stroke-opacity:1; fill:none" points="
  692.735,1486.45 692.735,1470.09 
  "/>
<polyline clip-path="url(#clip540)" style="stroke:#000000; stroke-width:4; stroke-opacity:1; fill:none" points="
  1013.2,1486.45 1013.2,1470.09 
  "/>
<polyline clip-path="url(#clip540)" style="stroke:#000000; stroke-width:4; stroke-opacity:1; fill:none" points="
  1333.67,1486.45 1333.67,1470.09 
  "/>
<polyline clip-path="url(#clip540)" style="stroke:#000000; stroke-width:4; stroke-opacity:1; fill:none" points="
  1654.14,1486.45 1654.14,1470.09 
  "/>
<polyline clip-path="url(#clip540)" style="stroke:#000000; stroke-width:4; stroke-opacity:1; fill:none" points="
  1974.6,1486.45 1974.6,1470.09 
  "/>
<polyline clip-path="url(#clip540)" style="stroke:#000000; stroke-width:4; stroke-opacity:1; fill:none" points="
  2295.07,1486.45 2295.07,1470.09 
  "/>
<path clip-path="url(#clip540)" d="M 0 0 M331.874 1543.18 L339.513 1543.18 L339.513 1516.82 L331.203 1518.49 L331.203 1514.23 L339.467 1512.56 L344.143 1512.56 L344.143 1543.18 L351.782 1543.18 L351.782 1547.12 L331.874 1547.12 L331.874 1543.18 Z" fill="#000000" fill-rule="evenodd" fill-opacity="1" /><path clip-path="url(#clip540)" d="M 0 0 M365.254 1543.18 L381.573 1543.18 L381.573 1547.12 L359.629 1547.12 L359.629 1543.18 Q362.291 1540.43 366.874 1535.8 Q371.481 1531.15 372.661 1529.81 Q374.906 1527.28 375.786 1525.55 Q376.689 1523.79 376.689 1522.1 Q376.689 1519.34 374.744 1517.61 Q372.823 1515.87 369.721 1515.87 Q367.522 1515.87 365.069 1516.63 Q362.638 1517.4 359.86 1518.95 L359.86 1514.23 Q362.684 1513.09 365.138 1512.51 Q367.592 1511.93 369.629 1511.93 Q374.999 1511.93 378.194 1514.62 Q381.388 1517.31 381.388 1521.8 Q381.388 1523.93 380.578 1525.85 Q379.791 1527.74 377.684 1530.34 Q377.106 1531.01 374.004 1534.23 Q370.902 1537.42 365.254 1543.18 Z" fill="#000000" fill-rule="evenodd" fill-opacity="1" /><path clip-path="url(#clip540)" d="M 0 0 M401.388 1515.64 Q397.777 1515.64 395.948 1519.2 Q394.143 1522.75 394.143 1529.87 Q394.143 1536.98 395.948 1540.55 Q397.777 1544.09 401.388 1544.09 Q405.022 1544.09 406.828 1540.55 Q408.656 1536.98 408.656 1529.87 Q408.656 1522.75 406.828 1519.2 Q405.022 1515.64 401.388 1515.64 M401.388 1511.93 Q407.198 1511.93 410.254 1516.54 Q413.332 1521.12 413.332 1529.87 Q413.332 1538.6 410.254 1543.21 Q407.198 1547.79 401.388 1547.79 Q395.578 1547.79 392.499 1543.21 Q389.443 1538.6 389.443 1529.87 Q389.443 1521.12 392.499 1516.54 Q395.578 1511.93 401.388 1511.93 Z" fill="#000000" fill-rule="evenodd" fill-opacity="1" /><path clip-path="url(#clip540)" d="M 0 0 M652.342 1543.18 L659.981 1543.18 L659.981 1516.82 L651.67 1518.49 L651.67 1514.23 L659.934 1512.56 L664.61 1512.56 L664.61 1543.18 L672.249 1543.18 L672.249 1547.12 L652.342 1547.12 L652.342 1543.18 Z" fill="#000000" fill-rule="evenodd" fill-opacity="1" /><path clip-path="url(#clip540)" d="M 0 0 M695.86 1528.49 Q699.216 1529.2 701.091 1531.47 Q702.99 1533.74 702.99 1537.07 Q702.99 1542.19 699.471 1544.99 Q695.953 1547.79 689.471 1547.79 Q687.295 1547.79 684.98 1547.35 Q682.689 1546.93 680.235 1546.08 L680.235 1541.56 Q682.179 1542.7 684.494 1543.28 Q686.809 1543.86 689.332 1543.86 Q693.73 1543.86 696.022 1542.12 Q698.337 1540.38 698.337 1537.07 Q698.337 1534.02 696.184 1532.31 Q694.054 1530.57 690.235 1530.57 L686.207 1530.57 L686.207 1526.73 L690.42 1526.73 Q693.869 1526.73 695.698 1525.36 Q697.527 1523.97 697.527 1521.38 Q697.527 1518.72 695.628 1517.31 Q693.753 1515.87 690.235 1515.87 Q688.314 1515.87 686.115 1516.29 Q683.916 1516.7 681.277 1517.58 L681.277 1513.42 Q683.939 1512.68 686.254 1512.31 Q688.591 1511.93 690.652 1511.93 Q695.976 1511.93 699.078 1514.37 Q702.179 1516.77 702.179 1520.89 Q702.179 1523.76 700.536 1525.75 Q698.892 1527.72 695.86 1528.49 Z" fill="#000000" fill-rule="evenodd" fill-opacity="1" /><path clip-path="url(#clip540)" d="M 0 0 M721.855 1515.64 Q718.244 1515.64 716.415 1519.2 Q714.61 1522.75 714.61 1529.87 Q714.61 1536.98 716.415 1540.55 Q718.244 1544.09 721.855 1544.09 Q725.489 1544.09 727.295 1540.55 Q729.124 1536.98 729.124 1529.87 Q729.124 1522.75 727.295 1519.2 Q725.489 1515.64 721.855 1515.64 M721.855 1511.93 Q727.665 1511.93 730.721 1516.54 Q733.8 1521.12 733.8 1529.87 Q733.8 1538.6 730.721 1543.21 Q727.665 1547.79 721.855 1547.79 Q716.045 1547.79 712.966 1543.21 Q709.911 1538.6 709.911 1529.87 Q709.911 1521.12 712.966 1516.54 Q716.045 1511.93 721.855 1511.93 Z" fill="#000000" fill-rule="evenodd" fill-opacity="1" /><path clip-path="url(#clip540)" d="M 0 0 M972.809 1543.18 L980.448 1543.18 L980.448 1516.82 L972.138 1518.49 L972.138 1514.23 L980.402 1512.56 L985.077 1512.56 L985.077 1543.18 L992.716 1543.18 L992.716 1547.12 L972.809 1547.12 L972.809 1543.18 Z" fill="#000000" fill-rule="evenodd" fill-opacity="1" /><path clip-path="url(#clip540)" d="M 0 0 M1015.01 1516.63 L1003.2 1535.08 L1015.01 1535.08 L1015.01 1516.63 M1013.78 1512.56 L1019.66 1512.56 L1019.66 1535.08 L1024.59 1535.08 L1024.59 1538.97 L1019.66 1538.97 L1019.66 1547.12 L1015.01 1547.12 L1015.01 1538.97 L999.406 1538.97 L999.406 1534.46 L1013.78 1512.56 Z" fill="#000000" fill-rule="evenodd" fill-opacity="1" /><path clip-path="url(#clip540)" d="M 0 0 M1042.32 1515.64 Q1038.71 1515.64 1036.88 1519.2 Q1035.08 1522.75 1035.08 1529.87 Q1035.08 1536.98 1036.88 1540.55 Q1038.71 1544.09 1042.32 1544.09 Q1045.96 1544.09 1047.76 1540.55 Q1049.59 1536.98 1049.59 1529.87 Q1049.59 1522.75 1047.76 1519.2 Q1045.96 1515.64 1042.32 1515.64 M1042.32 1511.93 Q1048.13 1511.93 1051.19 1516.54 Q1054.27 1521.12 1054.27 1529.87 Q1054.27 1538.6 1051.19 1543.21 Q1048.13 1547.79 1042.32 1547.79 Q1036.51 1547.79 1033.43 1543.21 Q1030.38 1538.6 1030.38 1529.87 Q1030.38 1521.12 1033.43 1516.54 Q1036.51 1511.93 1042.32 1511.93 Z" fill="#000000" fill-rule="evenodd" fill-opacity="1" /><path clip-path="url(#clip540)" d="M 0 0 M1293.28 1543.18 L1300.92 1543.18 L1300.92 1516.82 L1292.61 1518.49 L1292.61 1514.23 L1300.87 1512.56 L1305.54 1512.56 L1305.54 1543.18 L1313.18 1543.18 L1313.18 1547.12 L1293.28 1547.12 L1293.28 1543.18 Z" fill="#000000" fill-rule="evenodd" fill-opacity="1" /><path clip-path="url(#clip540)" d="M 0 0 M1322.67 1512.56 L1341.03 1512.56 L1341.03 1516.5 L1326.96 1516.5 L1326.96 1524.97 Q1327.98 1524.62 1328.99 1524.46 Q1330.01 1524.27 1331.03 1524.27 Q1336.82 1524.27 1340.2 1527.44 Q1343.58 1530.62 1343.58 1536.03 Q1343.58 1541.61 1340.1 1544.71 Q1336.63 1547.79 1330.31 1547.79 Q1328.14 1547.79 1325.87 1547.42 Q1323.62 1547.05 1321.22 1546.31 L1321.22 1541.61 Q1323.3 1542.74 1325.52 1543.3 Q1327.74 1543.86 1330.22 1543.86 Q1334.23 1543.86 1336.56 1541.75 Q1338.9 1539.64 1338.9 1536.03 Q1338.9 1532.42 1336.56 1530.31 Q1334.23 1528.21 1330.22 1528.21 Q1328.35 1528.21 1326.47 1528.62 Q1324.62 1529.04 1322.67 1529.92 L1322.67 1512.56 Z" fill="#000000" fill-rule="evenodd" fill-opacity="1" /><path clip-path="url(#clip540)" d="M 0 0 M1362.79 1515.64 Q1359.18 1515.64 1357.35 1519.2 Q1355.54 1522.75 1355.54 1529.87 Q1355.54 1536.98 1357.35 1540.55 Q1359.18 1544.09 1362.79 1544.09 Q1366.42 1544.09 1368.23 1540.55 Q1370.06 1536.98 1370.06 1529.87 Q1370.06 1522.75 1368.23 1519.2 Q1366.42 1515.64 1362.79 1515.64 M1362.79 1511.93 Q1368.6 1511.93 1371.66 1516.54 Q1374.73 1521.12 1374.73 1529.87 Q1374.73 1538.6 1371.66 1543.21 Q1368.6 1547.79 1362.79 1547.79 Q1356.98 1547.79 1353.9 1543.21 Q1350.85 1538.6 1350.85 1529.87 Q1350.85 1521.12 1353.9 1516.54 Q1356.98 1511.93 1362.79 1511.93 Z" fill="#000000" fill-rule="evenodd" fill-opacity="1" /><path clip-path="url(#clip540)" d="M 0 0 M1613.74 1543.18 L1621.38 1543.18 L1621.38 1516.82 L1613.07 1518.49 L1613.07 1514.23 L1621.34 1512.56 L1626.01 1512.56 L1626.01 1543.18 L1633.65 1543.18 L1633.65 1547.12 L1613.74 1547.12 L1613.74 1543.18 Z" fill="#000000" fill-rule="evenodd" fill-opacity="1" /><path clip-path="url(#clip540)" d="M 0 0 M1653.67 1527.98 Q1650.53 1527.98 1648.67 1530.13 Q1646.85 1532.28 1646.85 1536.03 Q1646.85 1539.76 1648.67 1541.93 Q1650.53 1544.09 1653.67 1544.09 Q1656.82 1544.09 1658.65 1541.93 Q1660.5 1539.76 1660.5 1536.03 Q1660.5 1532.28 1658.65 1530.13 Q1656.82 1527.98 1653.67 1527.98 M1662.96 1513.32 L1662.96 1517.58 Q1661.2 1516.75 1659.39 1516.31 Q1657.61 1515.87 1655.85 1515.87 Q1651.22 1515.87 1648.77 1519 Q1646.34 1522.12 1645.99 1528.44 Q1647.35 1526.43 1649.41 1525.36 Q1651.48 1524.27 1653.95 1524.27 Q1659.16 1524.27 1662.17 1527.44 Q1665.2 1530.59 1665.2 1536.03 Q1665.2 1541.36 1662.05 1544.57 Q1658.91 1547.79 1653.67 1547.79 Q1647.68 1547.79 1644.51 1543.21 Q1641.34 1538.6 1641.34 1529.87 Q1641.34 1521.68 1645.23 1516.82 Q1649.11 1511.93 1655.66 1511.93 Q1657.42 1511.93 1659.21 1512.28 Q1661.01 1512.63 1662.96 1513.32 Z" fill="#000000" fill-rule="evenodd" fill-opacity="1" /><path clip-path="url(#clip540)" d="M 0 0 M1683.26 1515.64 Q1679.65 1515.64 1677.82 1519.2 Q1676.01 1522.75 1676.01 1529.87 Q1676.01 1536.98 1677.82 1540.55 Q1679.65 1544.09 1683.26 1544.09 Q1686.89 1544.09 1688.7 1540.55 Q1690.53 1536.98 1690.53 1529.87 Q1690.53 1522.75 1688.7 1519.2 Q1686.89 1515.64 1683.26 1515.64 M1683.26 1511.93 Q1689.07 1511.93 1692.12 1516.54 Q1695.2 1521.12 1695.2 1529.87 Q1695.2 1538.6 1692.12 1543.21 Q1689.07 1547.79 1683.26 1547.79 Q1677.45 1547.79 1674.37 1543.21 Q1671.31 1538.6 1671.31 1529.87 Q1671.31 1521.12 1674.37 1516.54 Q1677.45 1511.93 1683.26 1511.93 Z" fill="#000000" fill-rule="evenodd" fill-opacity="1" /><path clip-path="url(#clip540)" d="M 0 0 M1934.21 1543.18 L1941.85 1543.18 L1941.85 1516.82 L1933.54 1518.49 L1933.54 1514.23 L1941.8 1512.56 L1946.48 1512.56 L1946.48 1543.18 L1954.12 1543.18 L1954.12 1547.12 L1934.21 1547.12 L1934.21 1543.18 Z" fill="#000000" fill-rule="evenodd" fill-opacity="1" /><path clip-path="url(#clip540)" d="M 0 0 M1962.38 1512.56 L1984.6 1512.56 L1984.6 1514.55 L1972.06 1547.12 L1967.17 1547.12 L1978.98 1516.5 L1962.38 1516.5 L1962.38 1512.56 Z" fill="#000000" fill-rule="evenodd" fill-opacity="1" /><path clip-path="url(#clip540)" d="M 0 0 M2003.72 1515.64 Q2000.11 1515.64 1998.28 1519.2 Q1996.48 1522.75 1996.48 1529.87 Q1996.48 1536.98 1998.28 1540.55 Q2000.11 1544.09 2003.72 1544.09 Q2007.36 1544.09 2009.16 1540.55 Q2010.99 1536.98 2010.99 1529.87 Q2010.99 1522.75 2009.16 1519.2 Q2007.36 1515.64 2003.72 1515.64 M2003.72 1511.93 Q2009.53 1511.93 2012.59 1516.54 Q2015.67 1521.12 2015.67 1529.87 Q2015.67 1538.6 2012.59 1543.21 Q2009.53 1547.79 2003.72 1547.79 Q1997.91 1547.79 1994.84 1543.21 Q1991.78 1538.6 1991.78 1529.87 Q1991.78 1521.12 1994.84 1516.54 Q1997.91 1511.93 2003.72 1511.93 Z" fill="#000000" fill-rule="evenodd" fill-opacity="1" /><path clip-path="url(#clip540)" d="M 0 0 M2254.68 1543.18 L2262.32 1543.18 L2262.32 1516.82 L2254.01 1518.49 L2254.01 1514.23 L2262.27 1512.56 L2266.95 1512.56 L2266.95 1543.18 L2274.59 1543.18 L2274.59 1547.12 L2254.68 1547.12 L2254.68 1543.18 Z" fill="#000000" fill-rule="evenodd" fill-opacity="1" /><path clip-path="url(#clip540)" d="M 0 0 M2294.03 1530.71 Q2290.7 1530.71 2288.78 1532.49 Q2286.88 1534.27 2286.88 1537.4 Q2286.88 1540.52 2288.78 1542.31 Q2290.7 1544.09 2294.03 1544.09 Q2297.36 1544.09 2299.28 1542.31 Q2301.21 1540.5 2301.21 1537.4 Q2301.21 1534.27 2299.28 1532.49 Q2297.39 1530.71 2294.03 1530.71 M2289.35 1528.72 Q2286.34 1527.98 2284.66 1525.92 Q2282.99 1523.86 2282.99 1520.89 Q2282.99 1516.75 2285.93 1514.34 Q2288.89 1511.93 2294.03 1511.93 Q2299.19 1511.93 2302.13 1514.34 Q2305.07 1516.75 2305.07 1520.89 Q2305.07 1523.86 2303.38 1525.92 Q2301.72 1527.98 2298.73 1528.72 Q2302.11 1529.5 2303.98 1531.8 Q2305.88 1534.09 2305.88 1537.4 Q2305.88 1542.42 2302.8 1545.11 Q2299.75 1547.79 2294.03 1547.79 Q2288.31 1547.79 2285.23 1545.11 Q2282.18 1542.42 2282.18 1537.4 Q2282.18 1534.09 2284.08 1531.8 Q2285.97 1529.5 2289.35 1528.72 M2287.64 1521.33 Q2287.64 1524.02 2289.31 1525.52 Q2291 1527.03 2294.03 1527.03 Q2297.04 1527.03 2298.73 1525.52 Q2300.44 1524.02 2300.44 1521.33 Q2300.44 1518.65 2298.73 1517.14 Q2297.04 1515.64 2294.03 1515.64 Q2291 1515.64 2289.31 1517.14 Q2287.64 1518.65 2287.64 1521.33 Z" fill="#000000" fill-rule="evenodd" fill-opacity="1" /><path clip-path="url(#clip540)" d="M 0 0 M2324.19 1515.64 Q2320.58 1515.64 2318.75 1519.2 Q2316.95 1522.75 2316.95 1529.87 Q2316.95 1536.98 2318.75 1540.55 Q2320.58 1544.09 2324.19 1544.09 Q2327.83 1544.09 2329.63 1540.55 Q2331.46 1536.98 2331.46 1529.87 Q2331.46 1522.75 2329.63 1519.2 Q2327.83 1515.64 2324.19 1515.64 M2324.19 1511.93 Q2330 1511.93 2333.06 1516.54 Q2336.14 1521.12 2336.14 1529.87 Q2336.14 1538.6 2333.06 1543.21 Q2330 1547.79 2324.19 1547.79 Q2318.38 1547.79 2315.3 1543.21 Q2312.25 1538.6 2312.25 1529.87 Q2312.25 1521.12 2315.3 1516.54 Q2318.38 1511.93 2324.19 1511.93 Z" fill="#000000" fill-rule="evenodd" fill-opacity="1" /><polyline clip-path="url(#clip542)" style="stroke:#000000; stroke-width:2; stroke-opacity:0.1; fill:none" points="
  314.583,1317.52 2352.76,1317.52 
  "/>
<polyline clip-path="url(#clip542)" style="stroke:#000000; stroke-width:2; stroke-opacity:0.1; fill:none" points="
  314.583,1006.84 2352.76,1006.84 
  "/>
<polyline clip-path="url(#clip542)" style="stroke:#000000; stroke-width:2; stroke-opacity:0.1; fill:none" points="
  314.583,696.147 2352.76,696.147 
  "/>
<polyline clip-path="url(#clip542)" style="stroke:#000000; stroke-width:2; stroke-opacity:0.1; fill:none" points="
  314.583,385.459 2352.76,385.459 
  "/>
<polyline clip-path="url(#clip540)" style="stroke:#000000; stroke-width:4; stroke-opacity:1; fill:none" points="
  314.583,1486.45 314.583,123.472 
  "/>
<polyline clip-path="url(#clip540)" style="stroke:#000000; stroke-width:4; stroke-opacity:1; fill:none" points="
  314.583,1317.52 339.042,1317.52 
  "/>
<polyline clip-path="url(#clip540)" style="stroke:#000000; stroke-width:4; stroke-opacity:1; fill:none" points="
  314.583,1006.84 339.042,1006.84 
  "/>
<polyline clip-path="url(#clip540)" style="stroke:#000000; stroke-width:4; stroke-opacity:1; fill:none" points="
  314.583,696.147 339.042,696.147 
  "/>
<polyline clip-path="url(#clip540)" style="stroke:#000000; stroke-width:4; stroke-opacity:1; fill:none" points="
  314.583,385.459 339.042,385.459 
  "/>
<path clip-path="url(#clip540)" d="M 0 0 M51.9875 1317.98 L81.6633 1317.98 L81.6633 1321.91 L51.9875 1321.91 L51.9875 1317.98 Z" fill="#000000" fill-rule="evenodd" fill-opacity="1" /><path clip-path="url(#clip540)" d="M 0 0 M101.756 1303.32 Q98.1447 1303.32 96.316 1306.89 Q94.5104 1310.43 94.5104 1317.56 Q94.5104 1324.67 96.316 1328.23 Q98.1447 1331.77 101.756 1331.77 Q105.39 1331.77 107.196 1328.23 Q109.024 1324.67 109.024 1317.56 Q109.024 1310.43 107.196 1306.89 Q105.39 1303.32 101.756 1303.32 M101.756 1299.62 Q107.566 1299.62 110.621 1304.23 Q113.7 1308.81 113.7 1317.56 Q113.7 1326.29 110.621 1330.89 Q107.566 1335.48 101.756 1335.48 Q95.9456 1335.48 92.8669 1330.89 Q89.8114 1326.29 89.8114 1317.56 Q89.8114 1308.81 92.8669 1304.23 Q95.9456 1299.62 101.756 1299.62 Z" fill="#000000" fill-rule="evenodd" fill-opacity="1" /><path clip-path="url(#clip540)" d="M 0 0 M121.918 1328.92 L126.802 1328.92 L126.802 1334.8 L121.918 1334.8 L121.918 1328.92 Z" fill="#000000" fill-rule="evenodd" fill-opacity="1" /><path clip-path="url(#clip540)" d="M 0 0 M147.566 1315.66 Q144.418 1315.66 142.566 1317.81 Q140.737 1319.97 140.737 1323.72 Q140.737 1327.44 142.566 1329.62 Q144.418 1331.77 147.566 1331.77 Q150.714 1331.77 152.543 1329.62 Q154.394 1327.44 154.394 1323.72 Q154.394 1319.97 152.543 1317.81 Q150.714 1315.66 147.566 1315.66 M156.848 1301.01 L156.848 1305.27 Q155.089 1304.43 153.283 1303.99 Q151.501 1303.55 149.742 1303.55 Q145.112 1303.55 142.658 1306.68 Q140.228 1309.8 139.881 1316.12 Q141.246 1314.11 143.306 1313.04 Q145.367 1311.96 147.843 1311.96 Q153.052 1311.96 156.061 1315.13 Q159.093 1318.28 159.093 1323.72 Q159.093 1329.04 155.945 1332.26 Q152.797 1335.48 147.566 1335.48 Q141.57 1335.48 138.399 1330.89 Q135.228 1326.29 135.228 1317.56 Q135.228 1309.36 139.117 1304.5 Q143.006 1299.62 149.556 1299.62 Q151.316 1299.62 153.098 1299.97 Q154.904 1300.31 156.848 1301.01 Z" fill="#000000" fill-rule="evenodd" fill-opacity="1" /><path clip-path="url(#clip540)" d="M 0 0 M177.728 1315.66 Q174.579 1315.66 172.728 1317.81 Q170.899 1319.97 170.899 1323.72 Q170.899 1327.44 172.728 1329.62 Q174.579 1331.77 177.728 1331.77 Q180.876 1331.77 182.704 1329.62 Q184.556 1327.44 184.556 1323.72 Q184.556 1319.97 182.704 1317.81 Q180.876 1315.66 177.728 1315.66 M187.01 1301.01 L187.01 1305.27 Q185.251 1304.43 183.445 1303.99 Q181.663 1303.55 179.903 1303.55 Q175.274 1303.55 172.82 1306.68 Q170.39 1309.8 170.042 1316.12 Q171.408 1314.11 173.468 1313.04 Q175.528 1311.96 178.005 1311.96 Q183.214 1311.96 186.223 1315.13 Q189.255 1318.28 189.255 1323.72 Q189.255 1329.04 186.107 1332.26 Q182.959 1335.48 177.728 1335.48 Q171.732 1335.48 168.561 1330.89 Q165.39 1326.29 165.39 1317.56 Q165.39 1309.36 169.279 1304.5 Q173.167 1299.62 179.718 1299.62 Q181.478 1299.62 183.26 1299.97 Q185.065 1300.31 187.01 1301.01 Z" fill="#000000" fill-rule="evenodd" fill-opacity="1" /><path clip-path="url(#clip540)" d="M 0 0 M197.45 1334.09 L197.45 1329.83 Q199.209 1330.66 201.014 1331.1 Q202.82 1331.54 204.556 1331.54 Q209.186 1331.54 211.616 1328.44 Q214.07 1325.31 214.417 1318.97 Q213.075 1320.96 211.014 1322.03 Q208.954 1323.09 206.454 1323.09 Q201.269 1323.09 198.237 1319.97 Q195.227 1316.82 195.227 1311.38 Q195.227 1306.05 198.376 1302.84 Q201.524 1299.62 206.755 1299.62 Q212.751 1299.62 215.899 1304.23 Q219.07 1308.81 219.07 1317.56 Q219.07 1325.73 215.181 1330.61 Q211.315 1335.48 204.764 1335.48 Q203.005 1335.48 201.2 1335.13 Q199.394 1334.78 197.45 1334.09 M206.755 1319.43 Q209.903 1319.43 211.732 1317.28 Q213.584 1315.13 213.584 1311.38 Q213.584 1307.65 211.732 1305.5 Q209.903 1303.32 206.755 1303.32 Q203.607 1303.32 201.755 1305.5 Q199.927 1307.65 199.927 1311.38 Q199.927 1315.13 201.755 1317.28 Q203.607 1319.43 206.755 1319.43 Z" fill="#000000" fill-rule="evenodd" fill-opacity="1" /><path clip-path="url(#clip540)" d="M 0 0 M241.639 1316.17 Q244.996 1316.89 246.871 1319.16 Q248.769 1321.42 248.769 1324.76 Q248.769 1329.87 245.25 1332.67 Q241.732 1335.48 235.25 1335.48 Q233.074 1335.48 230.76 1335.04 Q228.468 1334.62 226.014 1333.76 L226.014 1329.25 Q227.959 1330.38 230.274 1330.96 Q232.588 1331.54 235.112 1331.54 Q239.51 1331.54 241.801 1329.8 Q244.116 1328.07 244.116 1324.76 Q244.116 1321.7 241.963 1319.99 Q239.834 1318.25 236.014 1318.25 L231.987 1318.25 L231.987 1314.41 L236.199 1314.41 Q239.649 1314.41 241.477 1313.04 Q243.306 1311.66 243.306 1309.06 Q243.306 1306.4 241.408 1304.99 Q239.533 1303.55 236.014 1303.55 Q234.093 1303.55 231.894 1303.97 Q229.695 1304.39 227.056 1305.27 L227.056 1301.1 Q229.718 1300.36 232.033 1299.99 Q234.371 1299.62 236.431 1299.62 Q241.755 1299.62 244.857 1302.05 Q247.959 1304.46 247.959 1308.58 Q247.959 1311.45 246.315 1313.44 Q244.672 1315.41 241.639 1316.17 Z" fill="#000000" fill-rule="evenodd" fill-opacity="1" /><path clip-path="url(#clip540)" d="M 0 0 M257.681 1300.24 L276.037 1300.24 L276.037 1304.18 L261.963 1304.18 L261.963 1312.65 Q262.982 1312.3 264 1312.14 Q265.019 1311.96 266.037 1311.96 Q271.824 1311.96 275.204 1315.13 Q278.583 1318.3 278.583 1323.72 Q278.583 1329.29 275.111 1332.4 Q271.639 1335.48 265.32 1335.48 Q263.144 1335.48 260.875 1335.11 Q258.63 1334.73 256.223 1333.99 L256.223 1329.29 Q258.306 1330.43 260.528 1330.98 Q262.75 1331.54 265.227 1331.54 Q269.232 1331.54 271.57 1329.43 Q273.908 1327.33 273.908 1323.72 Q273.908 1320.11 271.57 1318 Q269.232 1315.89 265.227 1315.89 Q263.352 1315.89 261.477 1316.31 Q259.625 1316.73 257.681 1317.61 L257.681 1300.24 Z" fill="#000000" fill-rule="evenodd" fill-opacity="1" /><path clip-path="url(#clip540)" d="M 0 0 M50.9921 1007.29 L80.6679 1007.29 L80.6679 1011.22 L50.9921 1011.22 L50.9921 1007.29 Z" fill="#000000" fill-rule="evenodd" fill-opacity="1" /><path clip-path="url(#clip540)" d="M 0 0 M100.76 992.634 Q97.1493 992.634 95.3206 996.199 Q93.515 999.741 93.515 1006.87 Q93.515 1013.98 95.3206 1017.54 Q97.1493 1021.08 100.76 1021.08 Q104.395 1021.08 106.2 1017.54 Q108.029 1013.98 108.029 1006.87 Q108.029 999.741 106.2 996.199 Q104.395 992.634 100.76 992.634 M100.76 988.931 Q106.571 988.931 109.626 993.537 Q112.705 998.12 112.705 1006.87 Q112.705 1015.6 109.626 1020.2 Q106.571 1024.79 100.76 1024.79 Q94.9502 1024.79 91.8715 1020.2 Q88.816 1015.6 88.816 1006.87 Q88.816 998.12 91.8715 993.537 Q94.9502 988.931 100.76 988.931 Z" fill="#000000" fill-rule="evenodd" fill-opacity="1" /><path clip-path="url(#clip540)" d="M 0 0 M120.922 1018.24 L125.807 1018.24 L125.807 1024.12 L120.922 1024.12 L120.922 1018.24 Z" fill="#000000" fill-rule="evenodd" fill-opacity="1" /><path clip-path="url(#clip540)" d="M 0 0 M146.57 1004.97 Q143.422 1004.97 141.57 1007.12 Q139.742 1009.28 139.742 1013.03 Q139.742 1016.75 141.57 1018.93 Q143.422 1021.08 146.57 1021.08 Q149.718 1021.08 151.547 1018.93 Q153.399 1016.75 153.399 1013.03 Q153.399 1009.28 151.547 1007.12 Q149.718 1004.97 146.57 1004.97 M155.853 990.319 L155.853 994.579 Q154.093 993.745 152.288 993.306 Q150.505 992.866 148.746 992.866 Q144.117 992.866 141.663 995.991 Q139.232 999.116 138.885 1005.44 Q140.251 1003.42 142.311 1002.36 Q144.371 1001.27 146.848 1001.27 Q152.056 1001.27 155.066 1004.44 Q158.098 1007.59 158.098 1013.03 Q158.098 1018.35 154.95 1021.57 Q151.802 1024.79 146.57 1024.79 Q140.575 1024.79 137.404 1020.2 Q134.232 1015.6 134.232 1006.87 Q134.232 998.676 138.121 993.815 Q142.01 988.931 148.561 988.931 Q150.32 988.931 152.103 989.278 Q153.908 989.625 155.853 990.319 Z" fill="#000000" fill-rule="evenodd" fill-opacity="1" /><path clip-path="url(#clip540)" d="M 0 0 M176.732 1004.97 Q173.584 1004.97 171.732 1007.12 Q169.904 1009.28 169.904 1013.03 Q169.904 1016.75 171.732 1018.93 Q173.584 1021.08 176.732 1021.08 Q179.88 1021.08 181.709 1018.93 Q183.561 1016.75 183.561 1013.03 Q183.561 1009.28 181.709 1007.12 Q179.88 1004.97 176.732 1004.97 M186.015 990.319 L186.015 994.579 Q184.255 993.745 182.45 993.306 Q180.667 992.866 178.908 992.866 Q174.279 992.866 171.825 995.991 Q169.394 999.116 169.047 1005.44 Q170.413 1003.42 172.473 1002.36 Q174.533 1001.27 177.01 1001.27 Q182.218 1001.27 185.228 1004.44 Q188.26 1007.59 188.26 1013.03 Q188.26 1018.35 185.112 1021.57 Q181.964 1024.79 176.732 1024.79 Q170.737 1024.79 167.566 1020.2 Q164.394 1015.6 164.394 1006.87 Q164.394 998.676 168.283 993.815 Q172.172 988.931 178.723 988.931 Q180.482 988.931 182.265 989.278 Q184.07 989.625 186.015 990.319 Z" fill="#000000" fill-rule="evenodd" fill-opacity="1" /><path clip-path="url(#clip540)" d="M 0 0 M196.454 1023.4 L196.454 1019.14 Q198.214 1019.97 200.019 1020.41 Q201.825 1020.85 203.561 1020.85 Q208.19 1020.85 210.621 1017.75 Q213.075 1014.62 213.422 1008.28 Q212.079 1010.27 210.019 1011.34 Q207.959 1012.4 205.459 1012.4 Q200.274 1012.4 197.241 1009.28 Q194.232 1006.13 194.232 1000.69 Q194.232 995.366 197.38 992.148 Q200.528 988.931 205.76 988.931 Q211.755 988.931 214.903 993.537 Q218.075 998.12 218.075 1006.87 Q218.075 1015.04 214.186 1019.93 Q210.32 1024.79 203.769 1024.79 Q202.01 1024.79 200.204 1024.44 Q198.399 1024.09 196.454 1023.4 M205.76 1008.75 Q208.908 1008.75 210.737 1006.59 Q212.588 1004.44 212.588 1000.69 Q212.588 996.963 210.737 994.81 Q208.908 992.634 205.76 992.634 Q202.612 992.634 200.76 994.81 Q198.931 996.963 198.931 1000.69 Q198.931 1004.44 200.76 1006.59 Q202.612 1008.75 205.76 1008.75 Z" fill="#000000" fill-rule="evenodd" fill-opacity="1" /><path clip-path="url(#clip540)" d="M 0 0 M240.644 1005.48 Q244 1006.2 245.875 1008.47 Q247.773 1010.74 247.773 1014.07 Q247.773 1019.19 244.255 1021.99 Q240.736 1024.79 234.255 1024.79 Q232.079 1024.79 229.764 1024.35 Q227.473 1023.93 225.019 1023.07 L225.019 1018.56 Q226.963 1019.69 229.278 1020.27 Q231.593 1020.85 234.116 1020.85 Q238.514 1020.85 240.806 1019.12 Q243.121 1017.38 243.121 1014.07 Q243.121 1011.01 240.968 1009.3 Q238.838 1007.56 235.019 1007.56 L230.991 1007.56 L230.991 1003.72 L235.204 1003.72 Q238.653 1003.72 240.482 1002.36 Q242.311 1000.97 242.311 998.375 Q242.311 995.713 240.412 994.301 Q238.537 992.866 235.019 992.866 Q233.098 992.866 230.899 993.282 Q228.7 993.699 226.061 994.579 L226.061 990.412 Q228.723 989.671 231.037 989.301 Q233.375 988.931 235.436 988.931 Q240.76 988.931 243.861 991.361 Q246.963 993.769 246.963 997.889 Q246.963 1000.76 245.32 1002.75 Q243.676 1004.72 240.644 1005.48 Z" fill="#000000" fill-rule="evenodd" fill-opacity="1" /><path clip-path="url(#clip540)" d="M 0 0 M266.639 992.634 Q263.028 992.634 261.199 996.199 Q259.394 999.741 259.394 1006.87 Q259.394 1013.98 261.199 1017.54 Q263.028 1021.08 266.639 1021.08 Q270.273 1021.08 272.079 1017.54 Q273.908 1013.98 273.908 1006.87 Q273.908 999.741 272.079 996.199 Q270.273 992.634 266.639 992.634 M266.639 988.931 Q272.449 988.931 275.505 993.537 Q278.583 998.12 278.583 1006.87 Q278.583 1015.6 275.505 1020.2 Q272.449 1024.79 266.639 1024.79 Q260.829 1024.79 257.75 1020.2 Q254.695 1015.6 254.695 1006.87 Q254.695 998.12 257.75 993.537 Q260.829 988.931 266.639 988.931 Z" fill="#000000" fill-rule="evenodd" fill-opacity="1" /><path clip-path="url(#clip540)" d="M 0 0 M51.9875 696.598 L81.6633 696.598 L81.6633 700.534 L51.9875 700.534 L51.9875 696.598 Z" fill="#000000" fill-rule="evenodd" fill-opacity="1" /><path clip-path="url(#clip540)" d="M 0 0 M101.756 681.946 Q98.1447 681.946 96.316 685.511 Q94.5104 689.052 94.5104 696.182 Q94.5104 703.288 96.316 706.853 Q98.1447 710.395 101.756 710.395 Q105.39 710.395 107.196 706.853 Q109.024 703.288 109.024 696.182 Q109.024 689.052 107.196 685.511 Q105.39 681.946 101.756 681.946 M101.756 678.242 Q107.566 678.242 110.621 682.849 Q113.7 687.432 113.7 696.182 Q113.7 704.909 110.621 709.515 Q107.566 714.098 101.756 714.098 Q95.9456 714.098 92.8669 709.515 Q89.8114 704.909 89.8114 696.182 Q89.8114 687.432 92.8669 682.849 Q95.9456 678.242 101.756 678.242 Z" fill="#000000" fill-rule="evenodd" fill-opacity="1" /><path clip-path="url(#clip540)" d="M 0 0 M121.918 707.547 L126.802 707.547 L126.802 713.427 L121.918 713.427 L121.918 707.547 Z" fill="#000000" fill-rule="evenodd" fill-opacity="1" /><path clip-path="url(#clip540)" d="M 0 0 M147.566 694.284 Q144.418 694.284 142.566 696.436 Q140.737 698.589 140.737 702.339 Q140.737 706.066 142.566 708.242 Q144.418 710.395 147.566 710.395 Q150.714 710.395 152.543 708.242 Q154.394 706.066 154.394 702.339 Q154.394 698.589 152.543 696.436 Q150.714 694.284 147.566 694.284 M156.848 679.631 L156.848 683.89 Q155.089 683.057 153.283 682.617 Q151.501 682.177 149.742 682.177 Q145.112 682.177 142.658 685.302 Q140.228 688.427 139.881 694.747 Q141.246 692.733 143.306 691.668 Q145.367 690.58 147.843 690.58 Q153.052 690.58 156.061 693.751 Q159.093 696.899 159.093 702.339 Q159.093 707.663 155.945 710.881 Q152.797 714.098 147.566 714.098 Q141.57 714.098 138.399 709.515 Q135.228 704.909 135.228 696.182 Q135.228 687.987 139.117 683.126 Q143.006 678.242 149.556 678.242 Q151.316 678.242 153.098 678.589 Q154.904 678.936 156.848 679.631 Z" fill="#000000" fill-rule="evenodd" fill-opacity="1" /><path clip-path="url(#clip540)" d="M 0 0 M177.728 694.284 Q174.579 694.284 172.728 696.436 Q170.899 698.589 170.899 702.339 Q170.899 706.066 172.728 708.242 Q174.579 710.395 177.728 710.395 Q180.876 710.395 182.704 708.242 Q184.556 706.066 184.556 702.339 Q184.556 698.589 182.704 696.436 Q180.876 694.284 177.728 694.284 M187.01 679.631 L187.01 683.89 Q185.251 683.057 183.445 682.617 Q181.663 682.177 179.903 682.177 Q175.274 682.177 172.82 685.302 Q170.39 688.427 170.042 694.747 Q171.408 692.733 173.468 691.668 Q175.528 690.58 178.005 690.58 Q183.214 690.58 186.223 693.751 Q189.255 696.899 189.255 702.339 Q189.255 707.663 186.107 710.881 Q182.959 714.098 177.728 714.098 Q171.732 714.098 168.561 709.515 Q165.39 704.909 165.39 696.182 Q165.39 687.987 169.279 683.126 Q173.167 678.242 179.718 678.242 Q181.478 678.242 183.26 678.589 Q185.065 678.936 187.01 679.631 Z" fill="#000000" fill-rule="evenodd" fill-opacity="1" /><path clip-path="url(#clip540)" d="M 0 0 M197.45 712.709 L197.45 708.45 Q199.209 709.284 201.014 709.723 Q202.82 710.163 204.556 710.163 Q209.186 710.163 211.616 707.061 Q214.07 703.936 214.417 697.594 Q213.075 699.585 211.014 700.649 Q208.954 701.714 206.454 701.714 Q201.269 701.714 198.237 698.589 Q195.227 695.441 195.227 690.001 Q195.227 684.677 198.376 681.46 Q201.524 678.242 206.755 678.242 Q212.751 678.242 215.899 682.849 Q219.07 687.432 219.07 696.182 Q219.07 704.353 215.181 709.237 Q211.315 714.098 204.764 714.098 Q203.005 714.098 201.2 713.751 Q199.394 713.404 197.45 712.709 M206.755 698.057 Q209.903 698.057 211.732 695.904 Q213.584 693.751 213.584 690.001 Q213.584 686.274 211.732 684.122 Q209.903 681.946 206.755 681.946 Q203.607 681.946 201.755 684.122 Q199.927 686.274 199.927 690.001 Q199.927 693.751 201.755 695.904 Q203.607 698.057 206.755 698.057 Z" fill="#000000" fill-rule="evenodd" fill-opacity="1" /><path clip-path="url(#clip540)" d="M 0 0 M231.5 709.492 L247.82 709.492 L247.82 713.427 L225.875 713.427 L225.875 709.492 Q228.537 706.737 233.121 702.108 Q237.727 697.455 238.908 696.112 Q241.153 693.589 242.033 691.853 Q242.936 690.094 242.936 688.404 Q242.936 685.649 240.991 683.913 Q239.07 682.177 235.968 682.177 Q233.769 682.177 231.315 682.941 Q228.885 683.705 226.107 685.256 L226.107 680.534 Q228.931 679.399 231.385 678.821 Q233.838 678.242 235.875 678.242 Q241.246 678.242 244.44 680.927 Q247.635 683.612 247.635 688.103 Q247.635 690.233 246.824 692.154 Q246.037 694.052 243.931 696.645 Q243.352 697.316 240.25 700.534 Q237.149 703.728 231.5 709.492 Z" fill="#000000" fill-rule="evenodd" fill-opacity="1" /><path clip-path="url(#clip540)" d="M 0 0 M257.681 678.867 L276.037 678.867 L276.037 682.802 L261.963 682.802 L261.963 691.274 Q262.982 690.927 264 690.765 Q265.019 690.58 266.037 690.58 Q271.824 690.58 275.204 693.751 Q278.583 696.923 278.583 702.339 Q278.583 707.918 275.111 711.02 Q271.639 714.098 265.32 714.098 Q263.144 714.098 260.875 713.728 Q258.63 713.358 256.223 712.617 L256.223 707.918 Q258.306 709.052 260.528 709.608 Q262.75 710.163 265.227 710.163 Q269.232 710.163 271.57 708.057 Q273.908 705.95 273.908 702.339 Q273.908 698.728 271.57 696.622 Q269.232 694.515 265.227 694.515 Q263.352 694.515 261.477 694.932 Q259.625 695.348 257.681 696.228 L257.681 678.867 Z" fill="#000000" fill-rule="evenodd" fill-opacity="1" /><path clip-path="url(#clip540)" d="M 0 0 M50.9921 385.91 L80.6679 385.91 L80.6679 389.845 L50.9921 389.845 L50.9921 385.91 Z" fill="#000000" fill-rule="evenodd" fill-opacity="1" /><path clip-path="url(#clip540)" d="M 0 0 M100.76 371.257 Q97.1493 371.257 95.3206 374.822 Q93.515 378.364 93.515 385.493 Q93.515 392.6 95.3206 396.164 Q97.1493 399.706 100.76 399.706 Q104.395 399.706 106.2 396.164 Q108.029 392.6 108.029 385.493 Q108.029 378.364 106.2 374.822 Q104.395 371.257 100.76 371.257 M100.76 367.554 Q106.571 367.554 109.626 372.16 Q112.705 376.743 112.705 385.493 Q112.705 394.22 109.626 398.826 Q106.571 403.41 100.76 403.41 Q94.9502 403.41 91.8715 398.826 Q88.816 394.22 88.816 385.493 Q88.816 376.743 91.8715 372.16 Q94.9502 367.554 100.76 367.554 Z" fill="#000000" fill-rule="evenodd" fill-opacity="1" /><path clip-path="url(#clip540)" d="M 0 0 M120.922 396.859 L125.807 396.859 L125.807 402.739 L120.922 402.739 L120.922 396.859 Z" fill="#000000" fill-rule="evenodd" fill-opacity="1" /><path clip-path="url(#clip540)" d="M 0 0 M146.57 383.595 Q143.422 383.595 141.57 385.748 Q139.742 387.901 139.742 391.651 Q139.742 395.377 141.57 397.553 Q143.422 399.706 146.57 399.706 Q149.718 399.706 151.547 397.553 Q153.399 395.377 153.399 391.651 Q153.399 387.901 151.547 385.748 Q149.718 383.595 146.57 383.595 M155.853 368.942 L155.853 373.202 Q154.093 372.368 152.288 371.928 Q150.505 371.489 148.746 371.489 Q144.117 371.489 141.663 374.614 Q139.232 377.739 138.885 384.058 Q140.251 382.044 142.311 380.979 Q144.371 379.891 146.848 379.891 Q152.056 379.891 155.066 383.063 Q158.098 386.211 158.098 391.651 Q158.098 396.975 154.95 400.192 Q151.802 403.41 146.57 403.41 Q140.575 403.41 137.404 398.826 Q134.232 394.22 134.232 385.493 Q134.232 377.299 138.121 372.438 Q142.01 367.554 148.561 367.554 Q150.32 367.554 152.103 367.901 Q153.908 368.248 155.853 368.942 Z" fill="#000000" fill-rule="evenodd" fill-opacity="1" /><path clip-path="url(#clip540)" d="M 0 0 M176.732 383.595 Q173.584 383.595 171.732 385.748 Q169.904 387.901 169.904 391.651 Q169.904 395.377 171.732 397.553 Q173.584 399.706 176.732 399.706 Q179.88 399.706 181.709 397.553 Q183.561 395.377 183.561 391.651 Q183.561 387.901 181.709 385.748 Q179.88 383.595 176.732 383.595 M186.015 368.942 L186.015 373.202 Q184.255 372.368 182.45 371.928 Q180.667 371.489 178.908 371.489 Q174.279 371.489 171.825 374.614 Q169.394 377.739 169.047 384.058 Q170.413 382.044 172.473 380.979 Q174.533 379.891 177.01 379.891 Q182.218 379.891 185.228 383.063 Q188.26 386.211 188.26 391.651 Q188.26 396.975 185.112 400.192 Q181.964 403.41 176.732 403.41 Q170.737 403.41 167.566 398.826 Q164.394 394.22 164.394 385.493 Q164.394 377.299 168.283 372.438 Q172.172 367.554 178.723 367.554 Q180.482 367.554 182.265 367.901 Q184.07 368.248 186.015 368.942 Z" fill="#000000" fill-rule="evenodd" fill-opacity="1" /><path clip-path="url(#clip540)" d="M 0 0 M196.454 402.021 L196.454 397.762 Q198.214 398.595 200.019 399.035 Q201.825 399.475 203.561 399.475 Q208.19 399.475 210.621 396.373 Q213.075 393.248 213.422 386.905 Q212.079 388.896 210.019 389.961 Q207.959 391.026 205.459 391.026 Q200.274 391.026 197.241 387.901 Q194.232 384.753 194.232 379.313 Q194.232 373.989 197.38 370.771 Q200.528 367.554 205.76 367.554 Q211.755 367.554 214.903 372.16 Q218.075 376.743 218.075 385.493 Q218.075 393.664 214.186 398.549 Q210.32 403.41 203.769 403.41 Q202.01 403.41 200.204 403.063 Q198.399 402.715 196.454 402.021 M205.76 387.368 Q208.908 387.368 210.737 385.215 Q212.588 383.063 212.588 379.313 Q212.588 375.586 210.737 373.433 Q208.908 371.257 205.76 371.257 Q202.612 371.257 200.76 373.433 Q198.931 375.586 198.931 379.313 Q198.931 383.063 200.76 385.215 Q202.612 387.368 205.76 387.368 Z" fill="#000000" fill-rule="evenodd" fill-opacity="1" /><path clip-path="url(#clip540)" d="M 0 0 M230.505 398.803 L246.824 398.803 L246.824 402.739 L224.88 402.739 L224.88 398.803 Q227.542 396.049 232.125 391.419 Q236.732 386.766 237.912 385.424 Q240.158 382.901 241.037 381.165 Q241.94 379.405 241.94 377.716 Q241.94 374.961 239.996 373.225 Q238.074 371.489 234.973 371.489 Q232.774 371.489 230.32 372.253 Q227.889 373.016 225.112 374.567 L225.112 369.845 Q227.936 368.711 230.389 368.132 Q232.843 367.554 234.88 367.554 Q240.25 367.554 243.445 370.239 Q246.639 372.924 246.639 377.415 Q246.639 379.544 245.829 381.465 Q245.042 383.364 242.936 385.956 Q242.357 386.627 239.255 389.845 Q236.153 393.039 230.505 398.803 Z" fill="#000000" fill-rule="evenodd" fill-opacity="1" /><path clip-path="url(#clip540)" d="M 0 0 M266.639 371.257 Q263.028 371.257 261.199 374.822 Q259.394 378.364 259.394 385.493 Q259.394 392.6 261.199 396.164 Q263.028 399.706 266.639 399.706 Q270.273 399.706 272.079 396.164 Q273.908 392.6 273.908 385.493 Q273.908 378.364 272.079 374.822 Q270.273 371.257 266.639 371.257 M266.639 367.554 Q272.449 367.554 275.505 372.16 Q278.583 376.743 278.583 385.493 Q278.583 394.22 275.505 398.826 Q272.449 403.41 266.639 403.41 Q260.829 403.41 257.75 398.826 Q254.695 394.22 254.695 385.493 Q254.695 376.743 257.75 372.16 Q260.829 367.554 266.639 367.554 Z" fill="#000000" fill-rule="evenodd" fill-opacity="1" /><path clip-path="url(#clip540)" d="M 0 0 M1234.71 48.0275 L1234.71 51.6733 L1200.44 51.6733 Q1200.92 59.3701 1205.05 63.421 Q1209.23 67.4314 1216.64 67.4314 Q1220.93 67.4314 1224.94 66.3781 Q1228.99 65.3249 1232.96 63.2184 L1232.96 70.267 Q1228.95 71.9684 1224.74 72.8596 Q1220.53 73.7508 1216.19 73.7508 Q1205.34 73.7508 1198.98 67.4314 Q1192.66 61.1119 1192.66 50.3365 Q1192.66 39.1965 1198.65 32.6746 Q1204.69 26.1121 1214.9 26.1121 Q1224.05 26.1121 1229.36 32.0264 Q1234.71 37.9003 1234.71 48.0275 M1227.25 45.84 Q1227.17 39.7232 1223.81 36.0774 Q1220.49 32.4315 1214.98 32.4315 Q1208.74 32.4315 1204.97 35.9558 Q1201.25 39.4801 1200.68 45.8805 L1227.25 45.84 Z" fill="#000000" fill-rule="evenodd" fill-opacity="1" /><path clip-path="url(#clip540)" d="M 0 0 M1284.65 45.1919 L1284.65 72.576 L1277.2 72.576 L1277.2 45.4349 Q1277.2 38.994 1274.69 35.7938 Q1272.18 32.5936 1267.15 32.5936 Q1261.12 32.5936 1257.63 36.4419 Q1254.15 40.2903 1254.15 46.9338 L1254.15 72.576 L1246.66 72.576 L1246.66 27.2059 L1254.15 27.2059 L1254.15 34.2544 Q1256.82 30.163 1260.43 28.1376 Q1264.08 26.1121 1268.81 26.1121 Q1276.63 26.1121 1280.64 30.9732 Q1284.65 35.7938 1284.65 45.1919 Z" fill="#000000" fill-rule="evenodd" fill-opacity="1" /><path clip-path="url(#clip540)" d="M 0 0 M1338.33 48.0275 L1338.33 51.6733 L1304.06 51.6733 Q1304.54 59.3701 1308.68 63.421 Q1312.85 67.4314 1320.26 67.4314 Q1324.56 67.4314 1328.57 66.3781 Q1332.62 65.3249 1336.59 63.2184 L1336.59 70.267 Q1332.58 71.9684 1328.36 72.8596 Q1324.15 73.7508 1319.82 73.7508 Q1308.96 73.7508 1302.6 67.4314 Q1296.28 61.1119 1296.28 50.3365 Q1296.28 39.1965 1302.28 32.6746 Q1308.31 26.1121 1318.52 26.1121 Q1327.67 26.1121 1332.98 32.0264 Q1338.33 37.9003 1338.33 48.0275 M1330.87 45.84 Q1330.79 39.7232 1327.43 36.0774 Q1324.11 32.4315 1318.6 32.4315 Q1312.36 32.4315 1308.59 35.9558 Q1304.87 39.4801 1304.3 45.8805 L1330.87 45.84 Z" fill="#000000" fill-rule="evenodd" fill-opacity="1" /><path clip-path="url(#clip540)" d="M 0 0 M1376.85 34.1734 Q1375.6 33.4443 1374.1 33.1202 Q1372.64 32.7556 1370.86 32.7556 Q1364.54 32.7556 1361.13 36.8875 Q1357.77 40.9789 1357.77 48.6757 L1357.77 72.576 L1350.28 72.576 L1350.28 27.2059 L1357.77 27.2059 L1357.77 34.2544 Q1360.12 30.1225 1363.89 28.1376 Q1367.66 26.1121 1373.04 26.1121 Q1373.81 26.1121 1374.75 26.2337 Q1375.68 26.3147 1376.81 26.5172 L1376.85 34.1734 Z" fill="#000000" fill-rule="evenodd" fill-opacity="1" /><path clip-path="url(#clip540)" d="M 0 0 M1413.07 49.3643 Q1413.07 41.2625 1409.71 36.8065 Q1406.38 32.3505 1400.35 32.3505 Q1394.35 32.3505 1390.99 36.8065 Q1387.67 41.2625 1387.67 49.3643 Q1387.67 57.4256 1390.99 61.8816 Q1394.35 66.3376 1400.35 66.3376 Q1406.38 66.3376 1409.71 61.8816 Q1413.07 57.4256 1413.07 49.3643 M1420.52 66.9452 Q1420.52 78.5308 1415.38 84.1616 Q1410.23 89.8329 1399.62 89.8329 Q1395.69 89.8329 1392.21 89.2252 Q1388.72 88.6581 1385.44 87.4428 L1385.44 80.1917 Q1388.72 81.9741 1391.92 82.8248 Q1395.12 83.6755 1398.44 83.6755 Q1405.78 83.6755 1409.42 79.8271 Q1413.07 76.0193 1413.07 68.282 L1413.07 64.5957 Q1410.76 68.6061 1407.15 70.5911 Q1403.55 72.576 1398.52 72.576 Q1390.18 72.576 1385.08 66.2161 Q1379.97 59.8562 1379.97 49.3643 Q1379.97 38.832 1385.08 32.472 Q1390.18 26.1121 1398.52 26.1121 Q1403.55 26.1121 1407.15 28.0971 Q1410.76 30.082 1413.07 34.0924 L1413.07 27.2059 L1420.52 27.2059 L1420.52 66.9452 Z" fill="#000000" fill-rule="evenodd" fill-opacity="1" /><path clip-path="url(#clip540)" d="M 0 0 M1454.75 76.7889 Q1451.59 84.8907 1448.59 87.3618 Q1445.6 89.8329 1440.57 89.8329 L1434.62 89.8329 L1434.62 83.5945 L1438.99 83.5945 Q1442.07 83.5945 1443.77 82.1361 Q1445.47 80.6778 1447.54 75.2496 L1448.88 71.8468 L1430.53 27.2059 L1438.43 27.2059 L1452.6 62.6918 L1466.78 27.2059 L1474.68 27.2059 L1454.75 76.7889 Z" fill="#000000" fill-rule="evenodd" fill-opacity="1" /><polyline clip-path="url(#clip542)" style="stroke:#009af9; stroke-width:12; stroke-opacity:1; fill:none" points="
  372.268,1447.87 692.735,1125.66 1013.2,162.047 1333.67,842.813 1654.14,766.646 1974.6,954.306 2295.07,1079.3 
  "/>
<path clip-path="url(#clip540)" d="
M1897.2 289.865 L2284.82 289.865 L2284.82 168.905 L1897.2 168.905  Z
  " fill="#ffffff" fill-rule="evenodd" fill-opacity="1"/>
<polyline clip-path="url(#clip540)" style="stroke:#000000; stroke-width:4; stroke-opacity:1; fill:none" points="
  1897.2,289.865 2284.82,289.865 2284.82,168.905 1897.2,168.905 1897.2,289.865 
  "/>
<polyline clip-path="url(#clip540)" style="stroke:#009af9; stroke-width:4; stroke-opacity:1; fill:none" points="
  1919.84,229.385 2055.72,229.385 
  "/>
<path clip-path="url(#clip540)" d="M 0 0 M2102.4 232.637 L2102.4 234.72 L2082.81 234.72 Q2083.09 239.118 2085.45 241.433 Q2087.84 243.725 2092.07 243.725 Q2094.52 243.725 2096.82 243.123 Q2099.13 242.521 2101.4 241.317 L2101.4 245.345 Q2099.11 246.317 2096.7 246.827 Q2094.29 247.336 2091.82 247.336 Q2085.61 247.336 2081.98 243.725 Q2078.37 240.114 2078.37 233.956 Q2078.37 227.591 2081.79 223.864 Q2085.24 220.114 2091.08 220.114 Q2096.31 220.114 2099.34 223.493 Q2102.4 226.85 2102.4 232.637 M2098.14 231.387 Q2098.09 227.892 2096.17 225.808 Q2094.27 223.725 2091.12 223.725 Q2087.56 223.725 2085.4 225.739 Q2083.27 227.753 2082.95 231.41 L2098.14 231.387 Z" fill="#000000" fill-rule="evenodd" fill-opacity="1" /><path clip-path="url(#clip540)" d="M 0 0 M2130.94 231.017 L2130.94 246.665 L2126.68 246.665 L2126.68 231.155 Q2126.68 227.475 2125.24 225.646 Q2123.81 223.818 2120.94 223.818 Q2117.49 223.818 2115.5 226.017 Q2113.51 228.216 2113.51 232.012 L2113.51 246.665 L2109.22 246.665 L2109.22 220.739 L2113.51 220.739 L2113.51 224.767 Q2115.03 222.429 2117.09 221.271 Q2119.18 220.114 2121.89 220.114 Q2126.35 220.114 2128.65 222.892 Q2130.94 225.646 2130.94 231.017 Z" fill="#000000" fill-rule="evenodd" fill-opacity="1" /><path clip-path="url(#clip540)" d="M 0 0 M2161.61 232.637 L2161.61 234.72 L2142.02 234.72 Q2142.3 239.118 2144.66 241.433 Q2147.05 243.725 2151.28 243.725 Q2153.74 243.725 2156.03 243.123 Q2158.34 242.521 2160.61 241.317 L2160.61 245.345 Q2158.32 246.317 2155.91 246.827 Q2153.51 247.336 2151.03 247.336 Q2144.83 247.336 2141.19 243.725 Q2137.58 240.114 2137.58 233.956 Q2137.58 227.591 2141.01 223.864 Q2144.46 220.114 2150.29 220.114 Q2155.52 220.114 2158.55 223.493 Q2161.61 226.85 2161.61 232.637 M2157.35 231.387 Q2157.3 227.892 2155.38 225.808 Q2153.48 223.725 2150.33 223.725 Q2146.77 223.725 2144.62 225.739 Q2142.49 227.753 2142.16 231.41 L2157.35 231.387 Z" fill="#000000" fill-rule="evenodd" fill-opacity="1" /><path clip-path="url(#clip540)" d="M 0 0 M2183.62 224.72 Q2182.9 224.304 2182.05 224.118 Q2181.21 223.91 2180.2 223.91 Q2176.58 223.91 2174.64 226.271 Q2172.72 228.609 2172.72 233.007 L2172.72 246.665 L2168.44 246.665 L2168.44 220.739 L2172.72 220.739 L2172.72 224.767 Q2174.06 222.406 2176.21 221.271 Q2178.37 220.114 2181.45 220.114 Q2181.89 220.114 2182.42 220.183 Q2182.95 220.23 2183.6 220.345 L2183.62 224.72 Z" fill="#000000" fill-rule="evenodd" fill-opacity="1" /><path clip-path="url(#clip540)" d="M 0 0 M2204.32 233.401 Q2204.32 228.771 2202.39 226.225 Q2200.5 223.679 2197.05 223.679 Q2193.62 223.679 2191.7 226.225 Q2189.8 228.771 2189.8 233.401 Q2189.8 238.007 2191.7 240.554 Q2193.62 243.1 2197.05 243.1 Q2200.5 243.1 2202.39 240.554 Q2204.32 238.007 2204.32 233.401 M2208.58 243.447 Q2208.58 250.067 2205.64 253.285 Q2202.7 256.526 2196.63 256.526 Q2194.39 256.526 2192.39 256.178 Q2190.4 255.854 2188.53 255.16 L2188.53 251.016 Q2190.4 252.035 2192.23 252.521 Q2194.06 253.007 2195.96 253.007 Q2200.15 253.007 2202.23 250.808 Q2204.32 248.632 2204.32 244.211 L2204.32 242.104 Q2203 244.396 2200.94 245.53 Q2198.88 246.665 2196.01 246.665 Q2191.24 246.665 2188.32 243.03 Q2185.4 239.396 2185.4 233.401 Q2185.4 227.382 2188.32 223.748 Q2191.24 220.114 2196.01 220.114 Q2198.88 220.114 2200.94 221.248 Q2203 222.382 2204.32 224.674 L2204.32 220.739 L2208.58 220.739 L2208.58 243.447 Z" fill="#000000" fill-rule="evenodd" fill-opacity="1" /><path clip-path="url(#clip540)" d="M 0 0 M2228.14 249.072 Q2226.33 253.702 2224.62 255.114 Q2222.9 256.526 2220.03 256.526 L2216.63 256.526 L2216.63 252.961 L2219.13 252.961 Q2220.89 252.961 2221.86 252.128 Q2222.83 251.294 2224.01 248.192 L2224.78 246.248 L2214.29 220.739 L2218.81 220.739 L2226.91 241.017 L2235.01 220.739 L2239.52 220.739 L2228.14 249.072 Z" fill="#000000" fill-rule="evenodd" fill-opacity="1" /></svg>
