<?xml version="1.0" encoding="utf-8"?>
<svg xmlns="http://www.w3.org/2000/svg" xmlns:xlink="http://www.w3.org/1999/xlink" width="600" height="400" viewBox="0 0 2400 1600">
<defs>
  <clipPath id="clip180">
    <rect x="0" y="0" width="2400" height="1600"/>
  </clipPath>
</defs>
<path clip-path="url(#clip180)" d="
M0 1600 L2400 1600 L2400 0 L0 0  Z
  " fill="#ffffff" fill-rule="evenodd" fill-opacity="1"/>
<defs>
  <clipPath id="clip181">
    <rect x="480" y="0" width="1681" height="1600"/>
  </clipPath>
</defs>
<path clip-path="url(#clip180)" d="
M86.9921 1521.01 L2352.76 1521.01 L2352.76 62.9921 L86.9921 62.9921  Z
  " fill="#ffffff" fill-rule="evenodd" fill-opacity="1"/>
<defs>
  <clipPath id="clip182">
    <rect x="86" y="62" width="2267" height="1459"/>
  </clipPath>
</defs>
<polyline clip-path="url(#clip182)" style="stroke:#000000; stroke-width:2; stroke-opacity:0.1; fill:none" points="
  151.118,1521.01 151.118,62.9921 
  "/>
<polyline clip-path="url(#clip182)" style="stroke:#000000; stroke-width:2; stroke-opacity:0.1; fill:none" points="
  507.37,1521.01 507.37,62.9921 
  "/>
<polyline clip-path="url(#clip182)" style="stroke:#000000; stroke-width:2; stroke-opacity:0.1; fill:none" points="
  863.622,1521.01 863.622,62.9921 
  "/>
<polyline clip-path="url(#clip182)" style="stroke:#000000; stroke-width:2; stroke-opacity:0.1; fill:none" points="
  1219.87,1521.01 1219.87,62.9921 
  "/>
<polyline clip-path="url(#clip182)" style="stroke:#000000; stroke-width:2; stroke-opacity:0.1; fill:none" points="
  1576.13,1521.01 1576.13,62.9921 
  "/>
<polyline clip-path="url(#clip182)" style="stroke:#000000; stroke-width:2; stroke-opacity:0.1; fill:none" points="
  1932.38,1521.01 1932.38,62.9921 
  "/>
<polyline clip-path="url(#clip182)" style="stroke:#000000; stroke-width:2; stroke-opacity:0.1; fill:none" points="
  2288.63,1521.01 2288.63,62.9921 
  "/>
<polyline clip-path="url(#clip180)" style="stroke:#000000; stroke-width:4; stroke-opacity:1; fill:none" points="
  86.9921,1521.01 2352.76,1521.01 
  "/>
<polyline clip-path="url(#clip180)" style="stroke:#000000; stroke-width:4; stroke-opacity:1; fill:none" points="
  151.118,1521.01 151.118,1503.51 
  "/>
<polyline clip-path="url(#clip180)" style="stroke:#000000; stroke-width:4; stroke-opacity:1; fill:none" points="
  507.37,1521.01 507.37,1503.51 
  "/>
<polyline clip-path="url(#clip180)" style="stroke:#000000; stroke-width:4; stroke-opacity:1; fill:none" points="
  863.622,1521.01 863.622,1503.51 
  "/>
<polyline clip-path="url(#clip180)" style="stroke:#000000; stroke-width:4; stroke-opacity:1; fill:none" points="
  1219.87,1521.01 1219.87,1503.51 
  "/>
<polyline clip-path="url(#clip180)" style="stroke:#000000; stroke-width:4; stroke-opacity:1; fill:none" points="
  1576.13,1521.01 1576.13,1503.51 
  "/>
<polyline clip-path="url(#clip180)" style="stroke:#000000; stroke-width:4; stroke-opacity:1; fill:none" points="
  1932.38,1521.01 1932.38,1503.51 
  "/>
<polyline clip-path="url(#clip180)" style="stroke:#000000; stroke-width:4; stroke-opacity:1; fill:none" points="
  2288.63,1521.01 2288.63,1503.51 
  "/>
<path clip-path="url(#clip180)" d="M 0 0 M110.724 1577.74 L118.363 1577.74 L118.363 1551.38 L110.053 1553.05 L110.053 1548.79 L118.317 1547.12 L122.993 1547.12 L122.993 1577.74 L130.632 1577.74 L130.632 1581.68 L110.724 1581.68 L110.724 1577.74 Z" fill="#000000" fill-rule="evenodd" fill-opacity="1" /><path clip-path="url(#clip180)" d="M 0 0 M144.104 1577.74 L160.423 1577.74 L160.423 1581.68 L138.479 1581.68 L138.479 1577.74 Q141.141 1574.99 145.724 1570.36 Q150.33 1565.71 151.511 1564.37 Q153.756 1561.84 154.636 1560.11 Q155.539 1558.35 155.539 1556.66 Q155.539 1553.9 153.594 1552.17 Q151.673 1550.43 148.571 1550.43 Q146.372 1550.43 143.918 1551.19 Q141.488 1551.96 138.71 1553.51 L138.71 1548.79 Q141.534 1547.65 143.988 1547.07 Q146.442 1546.49 148.479 1546.49 Q153.849 1546.49 157.043 1549.18 Q160.238 1551.87 160.238 1556.36 Q160.238 1558.49 159.428 1560.41 Q158.641 1562.3 156.534 1564.9 Q155.955 1565.57 152.854 1568.79 Q149.752 1571.98 144.104 1577.74 Z" fill="#000000" fill-rule="evenodd" fill-opacity="1" /><path clip-path="url(#clip180)" d="M 0 0 M180.238 1550.2 Q176.627 1550.2 174.798 1553.76 Q172.992 1557.31 172.992 1564.43 Q172.992 1571.54 174.798 1575.11 Q176.627 1578.65 180.238 1578.65 Q183.872 1578.65 185.678 1575.11 Q187.506 1571.54 187.506 1564.43 Q187.506 1557.31 185.678 1553.76 Q183.872 1550.2 180.238 1550.2 M180.238 1546.49 Q186.048 1546.49 189.103 1551.1 Q192.182 1555.68 192.182 1564.43 Q192.182 1573.16 189.103 1577.77 Q186.048 1582.35 180.238 1582.35 Q174.428 1582.35 171.349 1577.77 Q168.293 1573.16 168.293 1564.43 Q168.293 1555.68 171.349 1551.1 Q174.428 1546.49 180.238 1546.49 Z" fill="#000000" fill-rule="evenodd" fill-opacity="1" /><path clip-path="url(#clip180)" d="M 0 0 M466.976 1577.74 L474.615 1577.74 L474.615 1551.38 L466.305 1553.05 L466.305 1548.79 L474.569 1547.12 L479.245 1547.12 L479.245 1577.74 L486.884 1577.74 L486.884 1581.68 L466.976 1581.68 L466.976 1577.74 Z" fill="#000000" fill-rule="evenodd" fill-opacity="1" /><path clip-path="url(#clip180)" d="M 0 0 M510.495 1563.05 Q513.851 1563.76 515.726 1566.03 Q517.624 1568.3 517.624 1571.63 Q517.624 1576.75 514.106 1579.55 Q510.587 1582.35 504.106 1582.35 Q501.93 1582.35 499.615 1581.91 Q497.323 1581.49 494.87 1580.64 L494.87 1576.12 Q496.814 1577.26 499.129 1577.84 Q501.444 1578.42 503.967 1578.42 Q508.365 1578.42 510.657 1576.68 Q512.972 1574.94 512.972 1571.63 Q512.972 1568.58 510.819 1566.87 Q508.689 1565.13 504.87 1565.13 L500.842 1565.13 L500.842 1561.29 L505.055 1561.29 Q508.504 1561.29 510.333 1559.92 Q512.161 1558.53 512.161 1555.94 Q512.161 1553.28 510.263 1551.87 Q508.388 1550.43 504.87 1550.43 Q502.948 1550.43 500.749 1550.85 Q498.55 1551.26 495.911 1552.14 L495.911 1547.98 Q498.573 1547.24 500.888 1546.87 Q503.226 1546.49 505.286 1546.49 Q510.61 1546.49 513.712 1548.93 Q516.814 1551.33 516.814 1555.45 Q516.814 1558.32 515.171 1560.31 Q513.527 1562.28 510.495 1563.05 Z" fill="#000000" fill-rule="evenodd" fill-opacity="1" /><path clip-path="url(#clip180)" d="M 0 0 M536.49 1550.2 Q532.879 1550.2 531.05 1553.76 Q529.245 1557.31 529.245 1564.43 Q529.245 1571.54 531.05 1575.11 Q532.879 1578.65 536.49 1578.65 Q540.124 1578.65 541.93 1575.11 Q543.758 1571.54 543.758 1564.43 Q543.758 1557.31 541.93 1553.76 Q540.124 1550.2 536.49 1550.2 M536.49 1546.49 Q542.3 1546.49 545.356 1551.1 Q548.434 1555.68 548.434 1564.43 Q548.434 1573.16 545.356 1577.77 Q542.3 1582.35 536.49 1582.35 Q530.68 1582.35 527.601 1577.77 Q524.546 1573.16 524.546 1564.43 Q524.546 1555.68 527.601 1551.1 Q530.68 1546.49 536.49 1546.49 Z" fill="#000000" fill-rule="evenodd" fill-opacity="1" /><path clip-path="url(#clip180)" d="M 0 0 M823.229 1577.74 L830.867 1577.74 L830.867 1551.38 L822.557 1553.05 L822.557 1548.79 L830.821 1547.12 L835.497 1547.12 L835.497 1577.74 L843.136 1577.74 L843.136 1581.68 L823.229 1581.68 L823.229 1577.74 Z" fill="#000000" fill-rule="evenodd" fill-opacity="1" /><path clip-path="url(#clip180)" d="M 0 0 M865.427 1551.19 L853.622 1569.64 L865.427 1569.64 L865.427 1551.19 M864.201 1547.12 L870.08 1547.12 L870.08 1569.64 L875.011 1569.64 L875.011 1573.53 L870.08 1573.53 L870.08 1581.68 L865.427 1581.68 L865.427 1573.53 L849.826 1573.53 L849.826 1569.02 L864.201 1547.12 Z" fill="#000000" fill-rule="evenodd" fill-opacity="1" /><path clip-path="url(#clip180)" d="M 0 0 M892.742 1550.2 Q889.131 1550.2 887.302 1553.76 Q885.497 1557.31 885.497 1564.43 Q885.497 1571.54 887.302 1575.11 Q889.131 1578.65 892.742 1578.65 Q896.376 1578.65 898.182 1575.11 Q900.011 1571.54 900.011 1564.43 Q900.011 1557.31 898.182 1553.76 Q896.376 1550.2 892.742 1550.2 M892.742 1546.49 Q898.552 1546.49 901.608 1551.1 Q904.686 1555.68 904.686 1564.43 Q904.686 1573.16 901.608 1577.77 Q898.552 1582.35 892.742 1582.35 Q886.932 1582.35 883.853 1577.77 Q880.798 1573.16 880.798 1564.43 Q880.798 1555.68 883.853 1551.1 Q886.932 1546.49 892.742 1546.49 Z" fill="#000000" fill-rule="evenodd" fill-opacity="1" /><path clip-path="url(#clip180)" d="M 0 0 M1179.48 1577.74 L1187.12 1577.74 L1187.12 1551.38 L1178.81 1553.05 L1178.81 1548.79 L1187.07 1547.12 L1191.75 1547.12 L1191.75 1577.74 L1199.39 1577.74 L1199.39 1581.68 L1179.48 1581.68 L1179.48 1577.74 Z" fill="#000000" fill-rule="evenodd" fill-opacity="1" /><path clip-path="url(#clip180)" d="M 0 0 M1208.88 1547.12 L1227.24 1547.12 L1227.24 1551.06 L1213.16 1551.06 L1213.16 1559.53 Q1214.18 1559.18 1215.2 1559.02 Q1216.22 1558.83 1217.24 1558.83 Q1223.02 1558.83 1226.4 1562 Q1229.78 1565.18 1229.78 1570.59 Q1229.78 1576.17 1226.31 1579.27 Q1222.84 1582.35 1216.52 1582.35 Q1214.34 1582.35 1212.07 1581.98 Q1209.83 1581.61 1207.42 1580.87 L1207.42 1576.17 Q1209.5 1577.3 1211.73 1577.86 Q1213.95 1578.42 1216.42 1578.42 Q1220.43 1578.42 1222.77 1576.31 Q1225.11 1574.2 1225.11 1570.59 Q1225.11 1566.98 1222.77 1564.87 Q1220.43 1562.77 1216.42 1562.77 Q1214.55 1562.77 1212.67 1563.18 Q1210.82 1563.6 1208.88 1564.48 L1208.88 1547.12 Z" fill="#000000" fill-rule="evenodd" fill-opacity="1" /><path clip-path="url(#clip180)" d="M 0 0 M1248.99 1550.2 Q1245.38 1550.2 1243.55 1553.76 Q1241.75 1557.31 1241.75 1564.43 Q1241.75 1571.54 1243.55 1575.11 Q1245.38 1578.65 1248.99 1578.65 Q1252.63 1578.65 1254.43 1575.11 Q1256.26 1571.54 1256.26 1564.43 Q1256.26 1557.31 1254.43 1553.76 Q1252.63 1550.2 1248.99 1550.2 M1248.99 1546.49 Q1254.8 1546.49 1257.86 1551.1 Q1260.94 1555.68 1260.94 1564.43 Q1260.94 1573.16 1257.86 1577.77 Q1254.8 1582.35 1248.99 1582.35 Q1243.18 1582.35 1240.11 1577.77 Q1237.05 1573.16 1237.05 1564.43 Q1237.05 1555.68 1240.11 1551.1 Q1243.18 1546.49 1248.99 1546.49 Z" fill="#000000" fill-rule="evenodd" fill-opacity="1" /><path clip-path="url(#clip180)" d="M 0 0 M1535.73 1577.74 L1543.37 1577.74 L1543.37 1551.38 L1535.06 1553.05 L1535.06 1548.79 L1543.33 1547.12 L1548 1547.12 L1548 1577.74 L1555.64 1577.74 L1555.64 1581.68 L1535.73 1581.68 L1535.73 1577.74 Z" fill="#000000" fill-rule="evenodd" fill-opacity="1" /><path clip-path="url(#clip180)" d="M 0 0 M1575.66 1562.54 Q1572.52 1562.54 1570.66 1564.69 Q1568.83 1566.84 1568.83 1570.59 Q1568.83 1574.32 1570.66 1576.49 Q1572.52 1578.65 1575.66 1578.65 Q1578.81 1578.65 1580.64 1576.49 Q1582.49 1574.32 1582.49 1570.59 Q1582.49 1566.84 1580.64 1564.69 Q1578.81 1562.54 1575.66 1562.54 M1584.95 1547.88 L1584.95 1552.14 Q1583.19 1551.31 1581.38 1550.87 Q1579.6 1550.43 1577.84 1550.43 Q1573.21 1550.43 1570.76 1553.56 Q1568.33 1556.68 1567.98 1563 Q1569.34 1560.99 1571.4 1559.92 Q1573.46 1558.83 1575.94 1558.83 Q1581.15 1558.83 1584.16 1562 Q1587.19 1565.15 1587.19 1570.59 Q1587.19 1575.92 1584.04 1579.13 Q1580.89 1582.35 1575.66 1582.35 Q1569.67 1582.35 1566.5 1577.77 Q1563.33 1573.16 1563.33 1564.43 Q1563.33 1556.24 1567.21 1551.38 Q1571.1 1546.49 1577.65 1546.49 Q1579.41 1546.49 1581.2 1546.84 Q1583 1547.19 1584.95 1547.88 Z" fill="#000000" fill-rule="evenodd" fill-opacity="1" /><path clip-path="url(#clip180)" d="M 0 0 M1605.25 1550.2 Q1601.64 1550.2 1599.81 1553.76 Q1598 1557.31 1598 1564.43 Q1598 1571.54 1599.81 1575.11 Q1601.64 1578.65 1605.25 1578.65 Q1608.88 1578.65 1610.69 1575.11 Q1612.51 1571.54 1612.51 1564.43 Q1612.51 1557.31 1610.69 1553.76 Q1608.88 1550.2 1605.25 1550.2 M1605.25 1546.49 Q1611.06 1546.49 1614.11 1551.1 Q1617.19 1555.68 1617.19 1564.43 Q1617.19 1573.16 1614.11 1577.77 Q1611.06 1582.35 1605.25 1582.35 Q1599.44 1582.35 1596.36 1577.77 Q1593.3 1573.16 1593.3 1564.43 Q1593.3 1555.68 1596.36 1551.1 Q1599.44 1546.49 1605.25 1546.49 Z" fill="#000000" fill-rule="evenodd" fill-opacity="1" /><path clip-path="url(#clip180)" d="M 0 0 M1891.99 1577.74 L1899.62 1577.74 L1899.62 1551.38 L1891.31 1553.05 L1891.31 1548.79 L1899.58 1547.12 L1904.25 1547.12 L1904.25 1577.74 L1911.89 1577.74 L1911.89 1581.68 L1891.99 1581.68 L1891.99 1577.74 Z" fill="#000000" fill-rule="evenodd" fill-opacity="1" /><path clip-path="url(#clip180)" d="M 0 0 M1920.16 1547.12 L1942.38 1547.12 L1942.38 1549.11 L1929.83 1581.68 L1924.95 1581.68 L1936.75 1551.06 L1920.16 1551.06 L1920.16 1547.12 Z" fill="#000000" fill-rule="evenodd" fill-opacity="1" /><path clip-path="url(#clip180)" d="M 0 0 M1961.5 1550.2 Q1957.89 1550.2 1956.06 1553.76 Q1954.25 1557.31 1954.25 1564.43 Q1954.25 1571.54 1956.06 1575.11 Q1957.89 1578.65 1961.5 1578.65 Q1965.13 1578.65 1966.94 1575.11 Q1968.77 1571.54 1968.77 1564.43 Q1968.77 1557.31 1966.94 1553.76 Q1965.13 1550.2 1961.5 1550.2 M1961.5 1546.49 Q1967.31 1546.49 1970.36 1551.1 Q1973.44 1555.68 1973.44 1564.43 Q1973.44 1573.16 1970.36 1577.77 Q1967.31 1582.35 1961.5 1582.35 Q1955.69 1582.35 1952.61 1577.77 Q1949.55 1573.16 1949.55 1564.43 Q1949.55 1555.68 1952.61 1551.1 Q1955.69 1546.49 1961.5 1546.49 Z" fill="#000000" fill-rule="evenodd" fill-opacity="1" /><path clip-path="url(#clip180)" d="M 0 0 M2248.24 1577.74 L2255.88 1577.74 L2255.88 1551.38 L2247.57 1553.05 L2247.57 1548.79 L2255.83 1547.12 L2260.51 1547.12 L2260.51 1577.74 L2268.14 1577.74 L2268.14 1581.68 L2248.24 1581.68 L2248.24 1577.74 Z" fill="#000000" fill-rule="evenodd" fill-opacity="1" /><path clip-path="url(#clip180)" d="M 0 0 M2287.59 1565.27 Q2284.26 1565.27 2282.33 1567.05 Q2280.44 1568.83 2280.44 1571.96 Q2280.44 1575.08 2282.33 1576.87 Q2284.26 1578.65 2287.59 1578.65 Q2290.92 1578.65 2292.84 1576.87 Q2294.76 1575.06 2294.76 1571.96 Q2294.76 1568.83 2292.84 1567.05 Q2290.95 1565.27 2287.59 1565.27 M2282.91 1563.28 Q2279.9 1562.54 2278.21 1560.48 Q2276.55 1558.42 2276.55 1555.45 Q2276.55 1551.31 2279.49 1548.9 Q2282.45 1546.49 2287.59 1546.49 Q2292.75 1546.49 2295.69 1548.9 Q2298.63 1551.31 2298.63 1555.45 Q2298.63 1558.42 2296.94 1560.48 Q2295.27 1562.54 2292.29 1563.28 Q2295.67 1564.06 2297.54 1566.36 Q2299.44 1568.65 2299.44 1571.96 Q2299.44 1576.98 2296.36 1579.67 Q2293.31 1582.35 2287.59 1582.35 Q2281.87 1582.35 2278.79 1579.67 Q2275.74 1576.98 2275.74 1571.96 Q2275.74 1568.65 2277.64 1566.36 Q2279.53 1564.06 2282.91 1563.28 M2281.2 1555.89 Q2281.2 1558.58 2282.87 1560.08 Q2284.56 1561.59 2287.59 1561.59 Q2290.6 1561.59 2292.29 1560.08 Q2294 1558.58 2294 1555.89 Q2294 1553.21 2292.29 1551.7 Q2290.6 1550.2 2287.59 1550.2 Q2284.56 1550.2 2282.87 1551.7 Q2281.2 1553.21 2281.2 1555.89 Z" fill="#000000" fill-rule="evenodd" fill-opacity="1" /><path clip-path="url(#clip180)" d="M 0 0 M2317.75 1550.2 Q2314.14 1550.2 2312.31 1553.76 Q2310.51 1557.31 2310.51 1564.43 Q2310.51 1571.54 2312.31 1575.11 Q2314.14 1578.65 2317.75 1578.65 Q2321.38 1578.65 2323.19 1575.11 Q2325.02 1571.54 2325.02 1564.43 Q2325.02 1557.31 2323.19 1553.76 Q2321.38 1550.2 2317.75 1550.2 M2317.75 1546.49 Q2323.56 1546.49 2326.62 1551.1 Q2329.7 1555.68 2329.7 1564.43 Q2329.7 1573.16 2326.62 1577.77 Q2323.56 1582.35 2317.75 1582.35 Q2311.94 1582.35 2308.86 1577.77 Q2305.81 1573.16 2305.81 1564.43 Q2305.81 1555.68 2308.86 1551.1 Q2311.94 1546.49 2317.75 1546.49 Z" fill="#000000" fill-rule="evenodd" fill-opacity="1" /><polyline clip-path="url(#clip182)" style="stroke:#000000; stroke-width:2; stroke-opacity:0.1; fill:none" points="
  86.9921,1453.11 2352.76,1453.11 
  "/>
<polyline clip-path="url(#clip182)" style="stroke:#000000; stroke-width:2; stroke-opacity:0.1; fill:none" points="
  86.9921,1059.36 2352.76,1059.36 
  "/>
<polyline clip-path="url(#clip182)" style="stroke:#000000; stroke-width:2; stroke-opacity:0.1; fill:none" points="
  86.9921,665.607 2352.76,665.607 
  "/>
<polyline clip-path="url(#clip182)" style="stroke:#000000; stroke-width:2; stroke-opacity:0.1; fill:none" points="
  86.9921,271.853 2352.76,271.853 
  "/>
<polyline clip-path="url(#clip180)" style="stroke:#000000; stroke-width:4; stroke-opacity:1; fill:none" points="
  86.9921,1521.01 86.9921,62.9921 
  "/>
<polyline clip-path="url(#clip180)" style="stroke:#000000; stroke-width:4; stroke-opacity:1; fill:none" points="
  86.9921,1453.11 114.181,1453.11 
  "/>
<polyline clip-path="url(#clip180)" style="stroke:#000000; stroke-width:4; stroke-opacity:1; fill:none" points="
  86.9921,1059.36 114.181,1059.36 
  "/>
<polyline clip-path="url(#clip180)" style="stroke:#000000; stroke-width:4; stroke-opacity:1; fill:none" points="
  86.9921,665.607 114.181,665.607 
  "/>
<polyline clip-path="url(#clip180)" style="stroke:#000000; stroke-width:4; stroke-opacity:1; fill:none" points="
  86.9921,271.853 114.181,271.853 
  "/>
<path clip-path="url(#clip180)" d="M 0 0 M-325.79 1460.01 L-296.114 1460.01 L-296.114 1463.95 L-325.79 1463.95 L-325.79 1460.01 Z" fill="#000000" fill-rule="evenodd" fill-opacity="1" /><path clip-path="url(#clip180)" d="M 0 0 M-275.443 1457.7 Q-278.591 1457.7 -280.443 1459.85 Q-282.271 1462 -282.271 1465.75 Q-282.271 1469.48 -280.443 1471.66 Q-278.591 1473.81 -275.443 1473.81 Q-272.295 1473.81 -270.466 1471.66 Q-268.614 1469.48 -268.614 1465.75 Q-268.614 1462 -270.466 1459.85 Q-272.295 1457.7 -275.443 1457.7 M-266.16 1443.05 L-266.16 1447.31 Q-267.92 1446.47 -269.725 1446.03 Q-271.508 1445.59 -273.267 1445.59 Q-277.896 1445.59 -280.35 1448.72 Q-282.781 1451.84 -283.128 1458.16 Q-281.762 1456.15 -279.702 1455.08 Q-277.642 1453.99 -275.165 1453.99 Q-269.957 1453.99 -266.947 1457.17 Q-263.915 1460.31 -263.915 1465.75 Q-263.915 1471.08 -267.063 1474.3 Q-270.211 1477.51 -275.443 1477.51 Q-281.438 1477.51 -284.609 1472.93 Q-287.781 1468.32 -287.781 1459.6 Q-287.781 1451.4 -283.892 1446.54 Q-280.003 1441.66 -273.452 1441.66 Q-271.693 1441.66 -269.91 1442 Q-268.105 1442.35 -266.16 1443.05 Z" fill="#000000" fill-rule="evenodd" fill-opacity="1" /><path clip-path="url(#clip180)" d="M 0 0 M-255.86 1470.96 L-250.975 1470.96 L-250.975 1476.84 L-255.86 1476.84 L-255.86 1470.96 Z" fill="#000000" fill-rule="evenodd" fill-opacity="1" /><path clip-path="url(#clip180)" d="M 0 0 M-230.212 1457.7 Q-233.36 1457.7 -235.211 1459.85 Q-237.04 1462 -237.04 1465.75 Q-237.04 1469.48 -235.211 1471.66 Q-233.36 1473.81 -230.212 1473.81 Q-227.063 1473.81 -225.235 1471.66 Q-223.383 1469.48 -223.383 1465.75 Q-223.383 1462 -225.235 1459.85 Q-227.063 1457.7 -230.212 1457.7 M-220.929 1443.05 L-220.929 1447.31 Q-222.688 1446.47 -224.494 1446.03 Q-226.276 1445.59 -228.036 1445.59 Q-232.665 1445.59 -235.119 1448.72 Q-237.549 1451.84 -237.897 1458.16 Q-236.531 1456.15 -234.471 1455.08 Q-232.411 1453.99 -229.934 1453.99 Q-224.725 1453.99 -221.716 1457.17 Q-218.684 1460.31 -218.684 1465.75 Q-218.684 1471.08 -221.832 1474.3 Q-224.98 1477.51 -230.212 1477.51 Q-236.207 1477.51 -239.378 1472.93 Q-242.549 1468.32 -242.549 1459.6 Q-242.549 1451.4 -238.661 1446.54 Q-234.772 1441.66 -228.221 1441.66 Q-226.462 1441.66 -224.679 1442 Q-222.874 1442.35 -220.929 1443.05 Z" fill="#000000" fill-rule="evenodd" fill-opacity="1" /><path clip-path="url(#clip180)" d="M 0 0 M-210.489 1476.12 L-210.489 1471.87 Q-208.73 1472.7 -206.925 1473.14 Q-205.119 1473.58 -203.383 1473.58 Q-198.753 1473.58 -196.323 1470.48 Q-193.869 1467.35 -193.522 1461.01 Q-194.864 1463 -196.925 1464.06 Q-198.985 1465.13 -201.485 1465.13 Q-206.67 1465.13 -209.702 1462 Q-212.712 1458.86 -212.712 1453.42 Q-212.712 1448.09 -209.563 1444.87 Q-206.415 1441.66 -201.184 1441.66 Q-195.189 1441.66 -192.04 1446.26 Q-188.869 1450.85 -188.869 1459.6 Q-188.869 1467.77 -192.758 1472.65 Q-196.624 1477.51 -203.175 1477.51 Q-204.934 1477.51 -206.739 1477.17 Q-208.545 1476.82 -210.489 1476.12 M-201.184 1461.47 Q-198.036 1461.47 -196.207 1459.32 Q-194.355 1457.17 -194.355 1453.42 Q-194.355 1449.69 -196.207 1447.54 Q-198.036 1445.36 -201.184 1445.36 Q-204.332 1445.36 -206.184 1447.54 Q-208.013 1449.69 -208.013 1453.42 Q-208.013 1457.17 -206.184 1459.32 Q-204.332 1461.47 -201.184 1461.47 Z" fill="#000000" fill-rule="evenodd" fill-opacity="1" /><path clip-path="url(#clip180)" d="M 0 0 M-167.619 1446.36 L-179.425 1464.81 L-167.619 1464.81 L-167.619 1446.36 M-168.846 1442.28 L-162.967 1442.28 L-162.967 1464.81 L-158.036 1464.81 L-158.036 1468.69 L-162.967 1468.69 L-162.967 1476.84 L-167.619 1476.84 L-167.619 1468.69 L-183.221 1468.69 L-183.221 1464.18 L-168.846 1442.28 Z" fill="#000000" fill-rule="evenodd" fill-opacity="1" /><path clip-path="url(#clip180)" d="M 0 0 M-139.726 1457.7 Q-142.874 1457.7 -144.726 1459.85 Q-146.555 1462 -146.555 1465.75 Q-146.555 1469.48 -144.726 1471.66 Q-142.874 1473.81 -139.726 1473.81 Q-136.578 1473.81 -134.749 1471.66 Q-132.897 1469.48 -132.897 1465.75 Q-132.897 1462 -134.749 1459.85 Q-136.578 1457.7 -139.726 1457.7 M-130.444 1443.05 L-130.444 1447.31 Q-132.203 1446.47 -134.008 1446.03 Q-135.791 1445.59 -137.55 1445.59 Q-142.18 1445.59 -144.633 1448.72 Q-147.064 1451.84 -147.411 1458.16 Q-146.045 1456.15 -143.985 1455.08 Q-141.925 1453.99 -139.448 1453.99 Q-134.24 1453.99 -131.231 1457.17 Q-128.198 1460.31 -128.198 1465.75 Q-128.198 1471.08 -131.346 1474.3 Q-134.494 1477.51 -139.726 1477.51 Q-145.721 1477.51 -148.893 1472.93 Q-152.064 1468.32 -152.064 1459.6 Q-152.064 1451.4 -148.175 1446.54 Q-144.286 1441.66 -137.735 1441.66 Q-135.976 1441.66 -134.194 1442 Q-132.388 1442.35 -130.444 1443.05 Z" fill="#000000" fill-rule="evenodd" fill-opacity="1" /><path clip-path="url(#clip180)" d="M 0 0 M-110.143 1445.36 Q-113.754 1445.36 -115.583 1448.93 Q-117.388 1452.47 -117.388 1459.6 Q-117.388 1466.7 -115.583 1470.27 Q-113.754 1473.81 -110.143 1473.81 Q-106.508 1473.81 -104.703 1470.27 Q-102.874 1466.7 -102.874 1459.6 Q-102.874 1452.47 -104.703 1448.93 Q-106.508 1445.36 -110.143 1445.36 M-110.143 1441.66 Q-104.333 1441.66 -101.277 1446.26 Q-98.1983 1450.85 -98.1983 1459.6 Q-98.1983 1468.32 -101.277 1472.93 Q-104.333 1477.51 -110.143 1477.51 Q-115.953 1477.51 -119.032 1472.93 Q-122.087 1468.32 -122.087 1459.6 Q-122.087 1450.85 -119.032 1446.26 Q-115.953 1441.66 -110.143 1441.66 Z" fill="#000000" fill-rule="evenodd" fill-opacity="1" /><path clip-path="url(#clip180)" d="M 0 0 M-61.8096 1451.38 L-72.3883 1462 L-61.8096 1472.58 L-64.5643 1475.38 L-75.1892 1464.76 L-85.8141 1475.38 L-88.5456 1472.58 L-77.9901 1462 L-88.5456 1451.38 L-85.8141 1448.58 L-75.1892 1459.2 L-64.5643 1448.58 L-61.8096 1451.38 Z" fill="#000000" fill-rule="evenodd" fill-opacity="1" /><path clip-path="url(#clip180)" d="M 0 0 M-49.4486 1472.91 L-41.8097 1472.91 L-41.8097 1446.54 L-50.1199 1448.21 L-50.1199 1443.95 L-41.856 1442.28 L-37.1801 1442.28 L-37.1801 1472.91 L-29.5413 1472.91 L-29.5413 1476.84 L-49.4486 1476.84 L-49.4486 1472.91 Z" fill="#000000" fill-rule="evenodd" fill-opacity="1" /><path clip-path="url(#clip180)" d="M 0 0 M-10.097 1445.36 Q-13.708 1445.36 -15.5367 1448.93 Q-17.3423 1452.47 -17.3423 1459.6 Q-17.3423 1466.7 -15.5367 1470.27 Q-13.708 1473.81 -10.097 1473.81 Q-6.46272 1473.81 -4.65717 1470.27 Q-2.82848 1466.7 -2.82848 1459.6 Q-2.82848 1452.47 -4.65717 1448.93 Q-6.46272 1445.36 -10.097 1445.36 M-10.097 1441.66 Q-4.2868 1441.66 -1.23126 1446.26 Q1.84742 1450.85 1.84742 1459.6 Q1.84742 1468.32 -1.23126 1472.93 Q-4.2868 1477.51 -10.097 1477.51 Q-15.9071 1477.51 -18.9858 1472.93 Q-22.0413 1468.32 -22.0413 1459.6 Q-22.0413 1450.85 -18.9858 1446.26 Q-15.9071 1441.66 -10.097 1441.66 Z" fill="#000000" fill-rule="evenodd" fill-opacity="1" /><path clip-path="url(#clip180)" d="M 0 0 M1.84742 1435.76 L25.959 1435.76 L25.959 1438.96 L1.84742 1438.96 L1.84742 1435.76 Z" fill="#000000" fill-rule="evenodd" fill-opacity="1" /><path clip-path="url(#clip180)" d="M 0 0 M34.8174 1446.23 L41.024 1446.23 L41.024 1424.81 L34.272 1426.17 L34.272 1422.71 L40.9864 1421.35 L44.7856 1421.35 L44.7856 1446.23 L50.9921 1446.23 L50.9921 1449.43 L34.8174 1449.43 L34.8174 1446.23 Z" fill="#000000" fill-rule="evenodd" fill-opacity="1" /><path clip-path="url(#clip180)" d="M 0 0 M-325.79 1066.26 L-296.114 1066.26 L-296.114 1070.19 L-325.79 1070.19 L-325.79 1066.26 Z" fill="#000000" fill-rule="evenodd" fill-opacity="1" /><path clip-path="url(#clip180)" d="M 0 0 M-275.443 1063.94 Q-278.591 1063.94 -280.443 1066.1 Q-282.271 1068.25 -282.271 1072 Q-282.271 1075.73 -280.443 1077.9 Q-278.591 1080.06 -275.443 1080.06 Q-272.295 1080.06 -270.466 1077.9 Q-268.614 1075.73 -268.614 1072 Q-268.614 1068.25 -270.466 1066.1 Q-272.295 1063.94 -275.443 1063.94 M-266.16 1049.29 L-266.16 1053.55 Q-267.92 1052.72 -269.725 1052.28 Q-271.508 1051.84 -273.267 1051.84 Q-277.896 1051.84 -280.35 1054.96 Q-282.781 1058.09 -283.128 1064.41 Q-281.762 1062.39 -279.702 1061.33 Q-277.642 1060.24 -275.165 1060.24 Q-269.957 1060.24 -266.947 1063.41 Q-263.915 1066.56 -263.915 1072 Q-263.915 1077.32 -267.063 1080.54 Q-270.211 1083.76 -275.443 1083.76 Q-281.438 1083.76 -284.609 1079.18 Q-287.781 1074.57 -287.781 1065.84 Q-287.781 1057.65 -283.892 1052.79 Q-280.003 1047.9 -273.452 1047.9 Q-271.693 1047.9 -269.91 1048.25 Q-268.105 1048.6 -266.16 1049.29 Z" fill="#000000" fill-rule="evenodd" fill-opacity="1" /><path clip-path="url(#clip180)" d="M 0 0 M-255.86 1077.21 L-250.975 1077.21 L-250.975 1083.09 L-255.86 1083.09 L-255.86 1077.21 Z" fill="#000000" fill-rule="evenodd" fill-opacity="1" /><path clip-path="url(#clip180)" d="M 0 0 M-230.212 1063.94 Q-233.36 1063.94 -235.211 1066.1 Q-237.04 1068.25 -237.04 1072 Q-237.04 1075.73 -235.211 1077.9 Q-233.36 1080.06 -230.212 1080.06 Q-227.063 1080.06 -225.235 1077.9 Q-223.383 1075.73 -223.383 1072 Q-223.383 1068.25 -225.235 1066.1 Q-227.063 1063.94 -230.212 1063.94 M-220.929 1049.29 L-220.929 1053.55 Q-222.688 1052.72 -224.494 1052.28 Q-226.276 1051.84 -228.036 1051.84 Q-232.665 1051.84 -235.119 1054.96 Q-237.549 1058.09 -237.897 1064.41 Q-236.531 1062.39 -234.471 1061.33 Q-232.411 1060.24 -229.934 1060.24 Q-224.725 1060.24 -221.716 1063.41 Q-218.684 1066.56 -218.684 1072 Q-218.684 1077.32 -221.832 1080.54 Q-224.98 1083.76 -230.212 1083.76 Q-236.207 1083.76 -239.378 1079.18 Q-242.549 1074.57 -242.549 1065.84 Q-242.549 1057.65 -238.661 1052.79 Q-234.772 1047.9 -228.221 1047.9 Q-226.462 1047.9 -224.679 1048.25 Q-222.874 1048.6 -220.929 1049.29 Z" fill="#000000" fill-rule="evenodd" fill-opacity="1" /><path clip-path="url(#clip180)" d="M 0 0 M-210.489 1082.37 L-210.489 1078.11 Q-208.73 1078.94 -206.925 1079.38 Q-205.119 1079.82 -203.383 1079.82 Q-198.753 1079.82 -196.323 1076.72 Q-193.869 1073.6 -193.522 1067.25 Q-194.864 1069.25 -196.925 1070.31 Q-198.985 1071.38 -201.485 1071.38 Q-206.67 1071.38 -209.702 1068.25 Q-212.712 1065.1 -212.712 1059.66 Q-212.712 1054.34 -209.563 1051.12 Q-206.415 1047.9 -201.184 1047.9 Q-195.189 1047.9 -192.04 1052.51 Q-188.869 1057.09 -188.869 1065.84 Q-188.869 1074.01 -192.758 1078.9 Q-196.624 1083.76 -203.175 1083.76 Q-204.934 1083.76 -206.739 1083.41 Q-208.545 1083.07 -210.489 1082.37 M-201.184 1067.72 Q-198.036 1067.72 -196.207 1065.57 Q-194.355 1063.41 -194.355 1059.66 Q-194.355 1055.94 -196.207 1053.78 Q-198.036 1051.61 -201.184 1051.61 Q-204.332 1051.61 -206.184 1053.78 Q-208.013 1055.94 -208.013 1059.66 Q-208.013 1063.41 -206.184 1065.57 Q-204.332 1067.72 -201.184 1067.72 Z" fill="#000000" fill-rule="evenodd" fill-opacity="1" /><path clip-path="url(#clip180)" d="M 0 0 M-167.619 1052.6 L-179.425 1071.05 L-167.619 1071.05 L-167.619 1052.6 M-168.846 1048.53 L-162.967 1048.53 L-162.967 1071.05 L-158.036 1071.05 L-158.036 1074.94 L-162.967 1074.94 L-162.967 1083.09 L-167.619 1083.09 L-167.619 1074.94 L-183.221 1074.94 L-183.221 1070.43 L-168.846 1048.53 Z" fill="#000000" fill-rule="evenodd" fill-opacity="1" /><path clip-path="url(#clip180)" d="M 0 0 M-150.258 1048.53 L-131.902 1048.53 L-131.902 1052.46 L-145.976 1052.46 L-145.976 1060.94 Q-144.957 1060.59 -143.939 1060.43 Q-142.92 1060.24 -141.902 1060.24 Q-136.115 1060.24 -132.735 1063.41 Q-129.356 1066.58 -129.356 1072 Q-129.356 1077.58 -132.828 1080.68 Q-136.3 1083.76 -142.619 1083.76 Q-144.795 1083.76 -147.064 1083.39 Q-149.309 1083.02 -151.717 1082.28 L-151.717 1077.58 Q-149.633 1078.71 -147.411 1079.27 Q-145.189 1079.82 -142.712 1079.82 Q-138.707 1079.82 -136.369 1077.72 Q-134.031 1075.61 -134.031 1072 Q-134.031 1068.39 -136.369 1066.28 Q-138.707 1064.18 -142.712 1064.18 Q-144.587 1064.18 -146.462 1064.59 Q-148.314 1065.01 -150.258 1065.89 L-150.258 1048.53 Z" fill="#000000" fill-rule="evenodd" fill-opacity="1" /><path clip-path="url(#clip180)" d="M 0 0 M-110.143 1051.61 Q-113.754 1051.61 -115.583 1055.17 Q-117.388 1058.71 -117.388 1065.84 Q-117.388 1072.95 -115.583 1076.51 Q-113.754 1080.06 -110.143 1080.06 Q-106.508 1080.06 -104.703 1076.51 Q-102.874 1072.95 -102.874 1065.84 Q-102.874 1058.71 -104.703 1055.17 Q-106.508 1051.61 -110.143 1051.61 M-110.143 1047.9 Q-104.333 1047.9 -101.277 1052.51 Q-98.1983 1057.09 -98.1983 1065.84 Q-98.1983 1074.57 -101.277 1079.18 Q-104.333 1083.76 -110.143 1083.76 Q-115.953 1083.76 -119.032 1079.18 Q-122.087 1074.57 -122.087 1065.84 Q-122.087 1057.09 -119.032 1052.51 Q-115.953 1047.9 -110.143 1047.9 Z" fill="#000000" fill-rule="evenodd" fill-opacity="1" /><path clip-path="url(#clip180)" d="M 0 0 M-61.8096 1057.63 L-72.3883 1068.25 L-61.8096 1078.83 L-64.5643 1081.63 L-75.1892 1071 L-85.8141 1081.63 L-88.5456 1078.83 L-77.9901 1068.25 L-88.5456 1057.63 L-85.8141 1054.82 L-75.1892 1065.45 L-64.5643 1054.82 L-61.8096 1057.63 Z" fill="#000000" fill-rule="evenodd" fill-opacity="1" /><path clip-path="url(#clip180)" d="M 0 0 M-49.4486 1079.15 L-41.8097 1079.15 L-41.8097 1052.79 L-50.1199 1054.45 L-50.1199 1050.19 L-41.856 1048.53 L-37.1801 1048.53 L-37.1801 1079.15 L-29.5413 1079.15 L-29.5413 1083.09 L-49.4486 1083.09 L-49.4486 1079.15 Z" fill="#000000" fill-rule="evenodd" fill-opacity="1" /><path clip-path="url(#clip180)" d="M 0 0 M-10.097 1051.61 Q-13.708 1051.61 -15.5367 1055.17 Q-17.3423 1058.71 -17.3423 1065.84 Q-17.3423 1072.95 -15.5367 1076.51 Q-13.708 1080.06 -10.097 1080.06 Q-6.46272 1080.06 -4.65717 1076.51 Q-2.82848 1072.95 -2.82848 1065.84 Q-2.82848 1058.71 -4.65717 1055.17 Q-6.46272 1051.61 -10.097 1051.61 M-10.097 1047.9 Q-4.2868 1047.9 -1.23126 1052.51 Q1.84742 1057.09 1.84742 1065.84 Q1.84742 1074.57 -1.23126 1079.18 Q-4.2868 1083.76 -10.097 1083.76 Q-15.9071 1083.76 -18.9858 1079.18 Q-22.0413 1074.57 -22.0413 1065.84 Q-22.0413 1057.09 -18.9858 1052.51 Q-15.9071 1047.9 -10.097 1047.9 Z" fill="#000000" fill-rule="evenodd" fill-opacity="1" /><path clip-path="url(#clip180)" d="M 0 0 M1.84742 1042 L25.959 1042 L25.959 1045.2 L1.84742 1045.2 L1.84742 1042 Z" fill="#000000" fill-rule="evenodd" fill-opacity="1" /><path clip-path="url(#clip180)" d="M 0 0 M34.8174 1052.48 L41.024 1052.48 L41.024 1031.06 L34.272 1032.41 L34.272 1028.95 L40.9864 1027.6 L44.7856 1027.6 L44.7856 1052.48 L50.9921 1052.48 L50.9921 1055.68 L34.8174 1055.68 L34.8174 1052.48 Z" fill="#000000" fill-rule="evenodd" fill-opacity="1" /><path clip-path="url(#clip180)" d="M 0 0 M-325.79 672.506 L-296.114 672.506 L-296.114 676.441 L-325.79 676.441 L-325.79 672.506 Z" fill="#000000" fill-rule="evenodd" fill-opacity="1" /><path clip-path="url(#clip180)" d="M 0 0 M-275.443 670.191 Q-278.591 670.191 -280.443 672.344 Q-282.271 674.497 -282.271 678.247 Q-282.271 681.973 -280.443 684.149 Q-278.591 686.302 -275.443 686.302 Q-272.295 686.302 -270.466 684.149 Q-268.614 681.973 -268.614 678.247 Q-268.614 674.497 -270.466 672.344 Q-272.295 670.191 -275.443 670.191 M-266.16 655.538 L-266.16 659.798 Q-267.92 658.964 -269.725 658.524 Q-271.508 658.085 -273.267 658.085 Q-277.896 658.085 -280.35 661.21 Q-282.781 664.335 -283.128 670.654 Q-281.762 668.64 -279.702 667.575 Q-277.642 666.487 -275.165 666.487 Q-269.957 666.487 -266.947 669.659 Q-263.915 672.807 -263.915 678.247 Q-263.915 683.571 -267.063 686.788 Q-270.211 690.006 -275.443 690.006 Q-281.438 690.006 -284.609 685.422 Q-287.781 680.816 -287.781 672.089 Q-287.781 663.895 -283.892 659.034 Q-280.003 654.149 -273.452 654.149 Q-271.693 654.149 -269.91 654.497 Q-268.105 654.844 -266.16 655.538 Z" fill="#000000" fill-rule="evenodd" fill-opacity="1" /><path clip-path="url(#clip180)" d="M 0 0 M-255.86 683.455 L-250.975 683.455 L-250.975 689.334 L-255.86 689.334 L-255.86 683.455 Z" fill="#000000" fill-rule="evenodd" fill-opacity="1" /><path clip-path="url(#clip180)" d="M 0 0 M-230.212 670.191 Q-233.36 670.191 -235.211 672.344 Q-237.04 674.497 -237.04 678.247 Q-237.04 681.973 -235.211 684.149 Q-233.36 686.302 -230.212 686.302 Q-227.063 686.302 -225.235 684.149 Q-223.383 681.973 -223.383 678.247 Q-223.383 674.497 -225.235 672.344 Q-227.063 670.191 -230.212 670.191 M-220.929 655.538 L-220.929 659.798 Q-222.688 658.964 -224.494 658.524 Q-226.276 658.085 -228.036 658.085 Q-232.665 658.085 -235.119 661.21 Q-237.549 664.335 -237.897 670.654 Q-236.531 668.64 -234.471 667.575 Q-232.411 666.487 -229.934 666.487 Q-224.725 666.487 -221.716 669.659 Q-218.684 672.807 -218.684 678.247 Q-218.684 683.571 -221.832 686.788 Q-224.98 690.006 -230.212 690.006 Q-236.207 690.006 -239.378 685.422 Q-242.549 680.816 -242.549 672.089 Q-242.549 663.895 -238.661 659.034 Q-234.772 654.149 -228.221 654.149 Q-226.462 654.149 -224.679 654.497 Q-222.874 654.844 -220.929 655.538 Z" fill="#000000" fill-rule="evenodd" fill-opacity="1" /><path clip-path="url(#clip180)" d="M 0 0 M-210.489 688.617 L-210.489 684.358 Q-208.73 685.191 -206.925 685.631 Q-205.119 686.071 -203.383 686.071 Q-198.753 686.071 -196.323 682.969 Q-193.869 679.844 -193.522 673.501 Q-194.864 675.492 -196.925 676.557 Q-198.985 677.622 -201.485 677.622 Q-206.67 677.622 -209.702 674.497 Q-212.712 671.348 -212.712 665.909 Q-212.712 660.585 -209.563 657.367 Q-206.415 654.149 -201.184 654.149 Q-195.189 654.149 -192.04 658.756 Q-188.869 663.339 -188.869 672.089 Q-188.869 680.26 -192.758 685.145 Q-196.624 690.006 -203.175 690.006 Q-204.934 690.006 -206.739 689.659 Q-208.545 689.311 -210.489 688.617 M-201.184 673.964 Q-198.036 673.964 -196.207 671.811 Q-194.355 669.659 -194.355 665.909 Q-194.355 662.182 -196.207 660.029 Q-198.036 657.853 -201.184 657.853 Q-204.332 657.853 -206.184 660.029 Q-208.013 662.182 -208.013 665.909 Q-208.013 669.659 -206.184 671.811 Q-204.332 673.964 -201.184 673.964 Z" fill="#000000" fill-rule="evenodd" fill-opacity="1" /><path clip-path="url(#clip180)" d="M 0 0 M-167.619 658.848 L-179.425 677.297 L-167.619 677.297 L-167.619 658.848 M-168.846 654.774 L-162.967 654.774 L-162.967 677.297 L-158.036 677.297 L-158.036 681.186 L-162.967 681.186 L-162.967 689.334 L-167.619 689.334 L-167.619 681.186 L-183.221 681.186 L-183.221 676.672 L-168.846 654.774 Z" fill="#000000" fill-rule="evenodd" fill-opacity="1" /><path clip-path="url(#clip180)" d="M 0 0 M-137.457 658.848 L-149.263 677.297 L-137.457 677.297 L-137.457 658.848 M-138.684 654.774 L-132.805 654.774 L-132.805 677.297 L-127.874 677.297 L-127.874 681.186 L-132.805 681.186 L-132.805 689.334 L-137.457 689.334 L-137.457 681.186 L-153.059 681.186 L-153.059 676.672 L-138.684 654.774 Z" fill="#000000" fill-rule="evenodd" fill-opacity="1" /><path clip-path="url(#clip180)" d="M 0 0 M-110.143 657.853 Q-113.754 657.853 -115.583 661.418 Q-117.388 664.96 -117.388 672.089 Q-117.388 679.196 -115.583 682.76 Q-113.754 686.302 -110.143 686.302 Q-106.508 686.302 -104.703 682.76 Q-102.874 679.196 -102.874 672.089 Q-102.874 664.96 -104.703 661.418 Q-106.508 657.853 -110.143 657.853 M-110.143 654.149 Q-104.333 654.149 -101.277 658.756 Q-98.1983 663.339 -98.1983 672.089 Q-98.1983 680.816 -101.277 685.422 Q-104.333 690.006 -110.143 690.006 Q-115.953 690.006 -119.032 685.422 Q-122.087 680.816 -122.087 672.089 Q-122.087 663.339 -119.032 658.756 Q-115.953 654.149 -110.143 654.149 Z" fill="#000000" fill-rule="evenodd" fill-opacity="1" /><path clip-path="url(#clip180)" d="M 0 0 M-61.8096 663.872 L-72.3883 674.497 L-61.8096 685.075 L-64.5643 687.876 L-75.1892 677.251 L-85.8141 687.876 L-88.5456 685.075 L-77.9901 674.497 L-88.5456 663.872 L-85.8141 661.071 L-75.1892 671.696 L-64.5643 661.071 L-61.8096 663.872 Z" fill="#000000" fill-rule="evenodd" fill-opacity="1" /><path clip-path="url(#clip180)" d="M 0 0 M-49.4486 685.399 L-41.8097 685.399 L-41.8097 659.034 L-50.1199 660.7 L-50.1199 656.441 L-41.856 654.774 L-37.1801 654.774 L-37.1801 685.399 L-29.5413 685.399 L-29.5413 689.334 L-49.4486 689.334 L-49.4486 685.399 Z" fill="#000000" fill-rule="evenodd" fill-opacity="1" /><path clip-path="url(#clip180)" d="M 0 0 M-10.097 657.853 Q-13.708 657.853 -15.5367 661.418 Q-17.3423 664.96 -17.3423 672.089 Q-17.3423 679.196 -15.5367 682.76 Q-13.708 686.302 -10.097 686.302 Q-6.46272 686.302 -4.65717 682.76 Q-2.82848 679.196 -2.82848 672.089 Q-2.82848 664.96 -4.65717 661.418 Q-6.46272 657.853 -10.097 657.853 M-10.097 654.149 Q-4.2868 654.149 -1.23126 658.756 Q1.84742 663.339 1.84742 672.089 Q1.84742 680.816 -1.23126 685.422 Q-4.2868 690.006 -10.097 690.006 Q-15.9071 690.006 -18.9858 685.422 Q-22.0413 680.816 -22.0413 672.089 Q-22.0413 663.339 -18.9858 658.756 Q-15.9071 654.149 -10.097 654.149 Z" fill="#000000" fill-rule="evenodd" fill-opacity="1" /><path clip-path="url(#clip180)" d="M 0 0 M1.84742 648.251 L25.959 648.251 L25.959 651.448 L1.84742 651.448 L1.84742 648.251 Z" fill="#000000" fill-rule="evenodd" fill-opacity="1" /><path clip-path="url(#clip180)" d="M 0 0 M34.8174 658.727 L41.024 658.727 L41.024 637.305 L34.272 638.659 L34.272 635.198 L40.9864 633.844 L44.7856 633.844 L44.7856 658.727 L50.9921 658.727 L50.9921 661.924 L34.8174 661.924 L34.8174 658.727 Z" fill="#000000" fill-rule="evenodd" fill-opacity="1" /><path clip-path="url(#clip180)" d="M 0 0 M-325.79 278.752 L-296.114 278.752 L-296.114 282.687 L-325.79 282.687 L-325.79 278.752 Z" fill="#000000" fill-rule="evenodd" fill-opacity="1" /><path clip-path="url(#clip180)" d="M 0 0 M-275.443 276.437 Q-278.591 276.437 -280.443 278.59 Q-282.271 280.743 -282.271 284.493 Q-282.271 288.22 -280.443 290.395 Q-278.591 292.548 -275.443 292.548 Q-272.295 292.548 -270.466 290.395 Q-268.614 288.22 -268.614 284.493 Q-268.614 280.743 -270.466 278.59 Q-272.295 276.437 -275.443 276.437 M-266.16 261.785 L-266.16 266.044 Q-267.92 265.21 -269.725 264.771 Q-271.508 264.331 -273.267 264.331 Q-277.896 264.331 -280.35 267.456 Q-282.781 270.581 -283.128 276.9 Q-281.762 274.886 -279.702 273.822 Q-277.642 272.734 -275.165 272.734 Q-269.957 272.734 -266.947 275.905 Q-263.915 279.053 -263.915 284.493 Q-263.915 289.817 -267.063 293.034 Q-270.211 296.252 -275.443 296.252 Q-281.438 296.252 -284.609 291.669 Q-287.781 287.062 -287.781 278.335 Q-287.781 270.141 -283.892 265.28 Q-280.003 260.396 -273.452 260.396 Q-271.693 260.396 -269.91 260.743 Q-268.105 261.09 -266.16 261.785 Z" fill="#000000" fill-rule="evenodd" fill-opacity="1" /><path clip-path="url(#clip180)" d="M 0 0 M-255.86 289.701 L-250.975 289.701 L-250.975 295.581 L-255.86 295.581 L-255.86 289.701 Z" fill="#000000" fill-rule="evenodd" fill-opacity="1" /><path clip-path="url(#clip180)" d="M 0 0 M-230.212 276.437 Q-233.36 276.437 -235.211 278.59 Q-237.04 280.743 -237.04 284.493 Q-237.04 288.22 -235.211 290.395 Q-233.36 292.548 -230.212 292.548 Q-227.063 292.548 -225.235 290.395 Q-223.383 288.22 -223.383 284.493 Q-223.383 280.743 -225.235 278.59 Q-227.063 276.437 -230.212 276.437 M-220.929 261.785 L-220.929 266.044 Q-222.688 265.21 -224.494 264.771 Q-226.276 264.331 -228.036 264.331 Q-232.665 264.331 -235.119 267.456 Q-237.549 270.581 -237.897 276.9 Q-236.531 274.886 -234.471 273.822 Q-232.411 272.734 -229.934 272.734 Q-224.725 272.734 -221.716 275.905 Q-218.684 279.053 -218.684 284.493 Q-218.684 289.817 -221.832 293.034 Q-224.98 296.252 -230.212 296.252 Q-236.207 296.252 -239.378 291.669 Q-242.549 287.062 -242.549 278.335 Q-242.549 270.141 -238.661 265.28 Q-234.772 260.396 -228.221 260.396 Q-226.462 260.396 -224.679 260.743 Q-222.874 261.09 -220.929 261.785 Z" fill="#000000" fill-rule="evenodd" fill-opacity="1" /><path clip-path="url(#clip180)" d="M 0 0 M-210.489 294.863 L-210.489 290.604 Q-208.73 291.437 -206.925 291.877 Q-205.119 292.317 -203.383 292.317 Q-198.753 292.317 -196.323 289.215 Q-193.869 286.09 -193.522 279.747 Q-194.864 281.738 -196.925 282.803 Q-198.985 283.868 -201.485 283.868 Q-206.67 283.868 -209.702 280.743 Q-212.712 277.595 -212.712 272.155 Q-212.712 266.831 -209.563 263.613 Q-206.415 260.396 -201.184 260.396 Q-195.189 260.396 -192.04 265.002 Q-188.869 269.585 -188.869 278.335 Q-188.869 286.507 -192.758 291.391 Q-196.624 296.252 -203.175 296.252 Q-204.934 296.252 -206.739 295.905 Q-208.545 295.558 -210.489 294.863 M-201.184 280.21 Q-198.036 280.21 -196.207 278.058 Q-194.355 275.905 -194.355 272.155 Q-194.355 268.428 -196.207 266.275 Q-198.036 264.099 -201.184 264.099 Q-204.332 264.099 -206.184 266.275 Q-208.013 268.428 -208.013 272.155 Q-208.013 275.905 -206.184 278.058 Q-204.332 280.21 -201.184 280.21 Z" fill="#000000" fill-rule="evenodd" fill-opacity="1" /><path clip-path="url(#clip180)" d="M 0 0 M-167.619 265.095 L-179.425 283.544 L-167.619 283.544 L-167.619 265.095 M-168.846 261.021 L-162.967 261.021 L-162.967 283.544 L-158.036 283.544 L-158.036 287.433 L-162.967 287.433 L-162.967 295.581 L-167.619 295.581 L-167.619 287.433 L-183.221 287.433 L-183.221 282.919 L-168.846 261.021 Z" fill="#000000" fill-rule="evenodd" fill-opacity="1" /><path clip-path="url(#clip180)" d="M 0 0 M-136.138 276.946 Q-132.781 277.664 -130.906 279.933 Q-129.008 282.201 -129.008 285.534 Q-129.008 290.65 -132.527 293.451 Q-136.045 296.252 -142.527 296.252 Q-144.703 296.252 -147.018 295.812 Q-149.309 295.395 -151.763 294.539 L-151.763 290.025 Q-149.818 291.159 -147.504 291.738 Q-145.189 292.317 -142.666 292.317 Q-138.268 292.317 -135.976 290.581 Q-133.661 288.845 -133.661 285.534 Q-133.661 282.479 -135.814 280.766 Q-137.943 279.03 -141.763 279.03 L-145.791 279.03 L-145.791 275.187 L-141.578 275.187 Q-138.129 275.187 -136.3 273.822 Q-134.471 272.433 -134.471 269.84 Q-134.471 267.178 -136.369 265.766 Q-138.244 264.331 -141.763 264.331 Q-143.684 264.331 -145.883 264.747 Q-148.082 265.164 -150.721 266.044 L-150.721 261.877 Q-148.059 261.136 -145.744 260.766 Q-143.406 260.396 -141.346 260.396 Q-136.022 260.396 -132.92 262.826 Q-129.819 265.234 -129.819 269.354 Q-129.819 272.224 -131.462 274.215 Q-133.106 276.183 -136.138 276.946 Z" fill="#000000" fill-rule="evenodd" fill-opacity="1" /><path clip-path="url(#clip180)" d="M 0 0 M-110.143 264.099 Q-113.754 264.099 -115.583 267.664 Q-117.388 271.206 -117.388 278.335 Q-117.388 285.442 -115.583 289.007 Q-113.754 292.548 -110.143 292.548 Q-106.508 292.548 -104.703 289.007 Q-102.874 285.442 -102.874 278.335 Q-102.874 271.206 -104.703 267.664 Q-106.508 264.099 -110.143 264.099 M-110.143 260.396 Q-104.333 260.396 -101.277 265.002 Q-98.1983 269.585 -98.1983 278.335 Q-98.1983 287.062 -101.277 291.669 Q-104.333 296.252 -110.143 296.252 Q-115.953 296.252 -119.032 291.669 Q-122.087 287.062 -122.087 278.335 Q-122.087 269.585 -119.032 265.002 Q-115.953 260.396 -110.143 260.396 Z" fill="#000000" fill-rule="evenodd" fill-opacity="1" /><path clip-path="url(#clip180)" d="M 0 0 M-61.8096 270.118 L-72.3883 280.743 L-61.8096 291.321 L-64.5643 294.122 L-75.1892 283.497 L-85.8141 294.122 L-88.5456 291.321 L-77.9901 280.743 L-88.5456 270.118 L-85.8141 267.317 L-75.1892 277.942 L-64.5643 267.317 L-61.8096 270.118 Z" fill="#000000" fill-rule="evenodd" fill-opacity="1" /><path clip-path="url(#clip180)" d="M 0 0 M-49.4486 291.645 L-41.8097 291.645 L-41.8097 265.28 L-50.1199 266.947 L-50.1199 262.687 L-41.856 261.021 L-37.1801 261.021 L-37.1801 291.645 L-29.5413 291.645 L-29.5413 295.581 L-49.4486 295.581 L-49.4486 291.645 Z" fill="#000000" fill-rule="evenodd" fill-opacity="1" /><path clip-path="url(#clip180)" d="M 0 0 M-10.097 264.099 Q-13.708 264.099 -15.5367 267.664 Q-17.3423 271.206 -17.3423 278.335 Q-17.3423 285.442 -15.5367 289.007 Q-13.708 292.548 -10.097 292.548 Q-6.46272 292.548 -4.65717 289.007 Q-2.82848 285.442 -2.82848 278.335 Q-2.82848 271.206 -4.65717 267.664 Q-6.46272 264.099 -10.097 264.099 M-10.097 260.396 Q-4.2868 260.396 -1.23126 265.002 Q1.84742 269.585 1.84742 278.335 Q1.84742 287.062 -1.23126 291.669 Q-4.2868 296.252 -10.097 296.252 Q-15.9071 296.252 -18.9858 291.669 Q-22.0413 287.062 -22.0413 278.335 Q-22.0413 269.585 -18.9858 265.002 Q-15.9071 260.396 -10.097 260.396 Z" fill="#000000" fill-rule="evenodd" fill-opacity="1" /><path clip-path="url(#clip180)" d="M 0 0 M1.84742 254.497 L25.959 254.497 L25.959 257.694 L1.84742 257.694 L1.84742 254.497 Z" fill="#000000" fill-rule="evenodd" fill-opacity="1" /><path clip-path="url(#clip180)" d="M 0 0 M34.8174 264.973 L41.024 264.973 L41.024 243.551 L34.272 244.905 L34.272 241.444 L40.9864 240.09 L44.7856 240.09 L44.7856 264.973 L50.9921 264.973 L50.9921 268.17 L34.8174 268.17 L34.8174 264.973 Z" fill="#000000" fill-rule="evenodd" fill-opacity="1" /><path clip-path="url(#clip180)" d="M 0 0 M1120.91 48.0275 L1120.91 51.6733 L1086.64 51.6733 Q1087.13 59.3701 1091.26 63.421 Q1095.43 67.4314 1102.84 67.4314 Q1107.14 67.4314 1111.15 66.3781 Q1115.2 65.3249 1119.17 63.2184 L1119.17 70.267 Q1115.16 71.9684 1110.95 72.8596 Q1106.73 73.7508 1102.4 73.7508 Q1091.54 73.7508 1085.18 67.4314 Q1078.86 61.1119 1078.86 50.3365 Q1078.86 39.1965 1084.86 32.6746 Q1090.89 26.1121 1101.1 26.1121 Q1110.26 26.1121 1115.56 32.0264 Q1120.91 37.9003 1120.91 48.0275 M1113.46 45.84 Q1113.38 39.7232 1110.01 36.0774 Q1106.69 32.4315 1101.18 32.4315 Q1094.94 32.4315 1091.18 35.9558 Q1087.45 39.4801 1086.88 45.8805 L1113.46 45.84 Z" fill="#000000" fill-rule="evenodd" fill-opacity="1" /><path clip-path="url(#clip180)" d="M 0 0 M1170.86 45.1919 L1170.86 72.576 L1163.4 72.576 L1163.4 45.4349 Q1163.4 38.994 1160.89 35.7938 Q1158.38 32.5936 1153.36 32.5936 Q1147.32 32.5936 1143.84 36.4419 Q1140.35 40.2903 1140.35 46.9338 L1140.35 72.576 L1132.86 72.576 L1132.86 27.2059 L1140.35 27.2059 L1140.35 34.2544 Q1143.03 30.163 1146.63 28.1376 Q1150.28 26.1121 1155.02 26.1121 Q1162.84 26.1121 1166.85 30.9732 Q1170.86 35.7938 1170.86 45.1919 Z" fill="#000000" fill-rule="evenodd" fill-opacity="1" /><path clip-path="url(#clip180)" d="M 0 0 M1224.53 48.0275 L1224.53 51.6733 L1190.26 51.6733 Q1190.75 59.3701 1194.88 63.421 Q1199.05 67.4314 1206.47 67.4314 Q1210.76 67.4314 1214.77 66.3781 Q1218.82 65.3249 1222.79 63.2184 L1222.79 70.267 Q1218.78 71.9684 1214.57 72.8596 Q1210.35 73.7508 1206.02 73.7508 Q1195.16 73.7508 1188.8 67.4314 Q1182.48 61.1119 1182.48 50.3365 Q1182.48 39.1965 1188.48 32.6746 Q1194.52 26.1121 1204.72 26.1121 Q1213.88 26.1121 1219.19 32.0264 Q1224.53 37.9003 1224.53 48.0275 M1217.08 45.84 Q1217 39.7232 1213.64 36.0774 Q1210.31 32.4315 1204.8 32.4315 Q1198.57 32.4315 1194.8 35.9558 Q1191.07 39.4801 1190.5 45.8805 L1217.08 45.84 Z" fill="#000000" fill-rule="evenodd" fill-opacity="1" /><path clip-path="url(#clip180)" d="M 0 0 M1263.06 34.1734 Q1261.8 33.4443 1260.3 33.1202 Q1258.84 32.7556 1257.06 32.7556 Q1250.74 32.7556 1247.34 36.8875 Q1243.98 40.9789 1243.98 48.6757 L1243.98 72.576 L1236.48 72.576 L1236.48 27.2059 L1243.98 27.2059 L1243.98 34.2544 Q1246.33 30.1225 1250.09 28.1376 Q1253.86 26.1121 1259.25 26.1121 Q1260.02 26.1121 1260.95 26.2337 Q1261.88 26.3147 1263.02 26.5172 L1263.06 34.1734 Z" fill="#000000" fill-rule="evenodd" fill-opacity="1" /><path clip-path="url(#clip180)" d="M 0 0 M1299.27 49.3643 Q1299.27 41.2625 1295.91 36.8065 Q1292.59 32.3505 1286.55 32.3505 Q1280.56 32.3505 1277.19 36.8065 Q1273.87 41.2625 1273.87 49.3643 Q1273.87 57.4256 1277.19 61.8816 Q1280.56 66.3376 1286.55 66.3376 Q1292.59 66.3376 1295.91 61.8816 Q1299.27 57.4256 1299.27 49.3643 M1306.73 66.9452 Q1306.73 78.5308 1301.58 84.1616 Q1296.44 89.8329 1285.82 89.8329 Q1281.89 89.8329 1278.41 89.2252 Q1274.93 88.6581 1271.64 87.4428 L1271.64 80.1917 Q1274.93 81.9741 1278.13 82.8248 Q1281.33 83.6755 1284.65 83.6755 Q1291.98 83.6755 1295.63 79.8271 Q1299.27 76.0193 1299.27 68.282 L1299.27 64.5957 Q1296.96 68.6061 1293.36 70.5911 Q1289.75 72.576 1284.73 72.576 Q1276.38 72.576 1271.28 66.2161 Q1266.18 59.8562 1266.18 49.3643 Q1266.18 38.832 1271.28 32.472 Q1276.38 26.1121 1284.73 26.1121 Q1289.75 26.1121 1293.36 28.0971 Q1296.96 30.082 1299.27 34.0924 L1299.27 27.2059 L1306.73 27.2059 L1306.73 66.9452 Z" fill="#000000" fill-rule="evenodd" fill-opacity="1" /><path clip-path="url(#clip180)" d="M 0 0 M1340.96 76.7889 Q1337.8 84.8907 1334.8 87.3618 Q1331.8 89.8329 1326.78 89.8329 L1320.82 89.8329 L1320.82 83.5945 L1325.2 83.5945 Q1328.28 83.5945 1329.98 82.1361 Q1331.68 80.6778 1333.74 75.2496 L1335.08 71.8468 L1316.73 27.2059 L1324.63 27.2059 L1338.81 62.6918 L1352.99 27.2059 L1360.89 27.2059 L1340.96 76.7889 Z" fill="#000000" fill-rule="evenodd" fill-opacity="1" /><polyline clip-path="url(#clip182)" style="stroke:#009af9; stroke-width:12; stroke-opacity:1; fill:none" points="
  151.118,1479.74 507.37,1385.14 863.622,1404.29 1219.87,1202.77 1576.13,1179.41 1932.38,677.182 2288.63,104.257 
  "/>
<path clip-path="url(#clip180)" d="
M1864.32 232.553 L2277.23 232.553 L2277.23 111.593 L1864.32 111.593  Z
  " fill="#ffffff" fill-rule="evenodd" fill-opacity="1"/>
<polyline clip-path="url(#clip180)" style="stroke:#000000; stroke-width:4; stroke-opacity:1; fill:none" points="
  1864.32,232.553 2277.23,232.553 2277.23,111.593 1864.32,111.593 1864.32,232.553 
  "/>
<polyline clip-path="url(#clip180)" style="stroke:#009af9; stroke-width:4; stroke-opacity:1; fill:none" points="
  1889.5,172.073 2040.55,172.073 
  "/>
<path clip-path="url(#clip180)" d="M 0 0 M2089.75 175.325 L2089.75 177.408 L2070.17 177.408 Q2070.45 181.806 2072.81 184.121 Q2075.19 186.413 2079.43 186.413 Q2081.88 186.413 2084.17 185.811 Q2086.49 185.209 2088.76 184.005 L2088.76 188.033 Q2086.46 189.005 2084.06 189.515 Q2081.65 190.024 2079.17 190.024 Q2072.97 190.024 2069.33 186.413 Q2065.72 182.802 2065.72 176.644 Q2065.72 170.279 2069.15 166.552 Q2072.6 162.802 2078.43 162.802 Q2083.66 162.802 2086.7 166.181 Q2089.75 169.538 2089.75 175.325 M2085.49 174.075 Q2085.45 170.58 2083.52 168.496 Q2081.63 166.413 2078.48 166.413 Q2074.91 166.413 2072.76 168.427 Q2070.63 170.441 2070.31 174.098 L2085.49 174.075 Z" fill="#000000" fill-rule="evenodd" fill-opacity="1" /><path clip-path="url(#clip180)" d="M 0 0 M2118.29 173.705 L2118.29 189.353 L2114.03 189.353 L2114.03 173.843 Q2114.03 170.163 2112.6 168.334 Q2111.16 166.506 2108.29 166.506 Q2104.84 166.506 2102.85 168.705 Q2100.86 170.904 2100.86 174.7 L2100.86 189.353 L2096.58 189.353 L2096.58 163.427 L2100.86 163.427 L2100.86 167.455 Q2102.39 165.117 2104.45 163.959 Q2106.53 162.802 2109.24 162.802 Q2113.71 162.802 2116 165.58 Q2118.29 168.334 2118.29 173.705 Z" fill="#000000" fill-rule="evenodd" fill-opacity="1" /><path clip-path="url(#clip180)" d="M 0 0 M2148.96 175.325 L2148.96 177.408 L2129.38 177.408 Q2129.66 181.806 2132.02 184.121 Q2134.4 186.413 2138.64 186.413 Q2141.09 186.413 2143.39 185.811 Q2145.7 185.209 2147.97 184.005 L2147.97 188.033 Q2145.68 189.005 2143.27 189.515 Q2140.86 190.024 2138.39 190.024 Q2132.18 190.024 2128.55 186.413 Q2124.94 182.802 2124.94 176.644 Q2124.94 170.279 2128.36 166.552 Q2131.81 162.802 2137.64 162.802 Q2142.88 162.802 2145.91 166.181 Q2148.96 169.538 2148.96 175.325 M2144.7 174.075 Q2144.66 170.58 2142.74 168.496 Q2140.84 166.413 2137.69 166.413 Q2134.13 166.413 2131.97 168.427 Q2129.84 170.441 2129.52 174.098 L2144.7 174.075 Z" fill="#000000" fill-rule="evenodd" fill-opacity="1" /><path clip-path="url(#clip180)" d="M 0 0 M2170.98 167.408 Q2170.26 166.992 2169.4 166.806 Q2168.57 166.598 2167.55 166.598 Q2163.94 166.598 2162 168.959 Q2160.07 171.297 2160.07 175.695 L2160.07 189.353 L2155.79 189.353 L2155.79 163.427 L2160.07 163.427 L2160.07 167.455 Q2161.42 165.094 2163.57 163.959 Q2165.72 162.802 2168.8 162.802 Q2169.24 162.802 2169.77 162.871 Q2170.31 162.918 2170.95 163.033 L2170.98 167.408 Z" fill="#000000" fill-rule="evenodd" fill-opacity="1" /><path clip-path="url(#clip180)" d="M 0 0 M2191.67 176.089 Q2191.67 171.459 2189.75 168.913 Q2187.85 166.367 2184.4 166.367 Q2180.98 166.367 2179.06 168.913 Q2177.16 171.459 2177.16 176.089 Q2177.16 180.695 2179.06 183.242 Q2180.98 185.788 2184.4 185.788 Q2187.85 185.788 2189.75 183.242 Q2191.67 180.695 2191.67 176.089 M2195.93 186.135 Q2195.93 192.755 2192.99 195.973 Q2190.05 199.214 2183.99 199.214 Q2181.74 199.214 2179.75 198.866 Q2177.76 198.542 2175.89 197.848 L2175.89 193.704 Q2177.76 194.723 2179.59 195.209 Q2181.42 195.695 2183.32 195.695 Q2187.51 195.695 2189.59 193.496 Q2191.67 191.32 2191.67 186.899 L2191.67 184.792 Q2190.35 187.084 2188.29 188.218 Q2186.23 189.353 2183.36 189.353 Q2178.59 189.353 2175.68 185.718 Q2172.76 182.084 2172.76 176.089 Q2172.76 170.07 2175.68 166.436 Q2178.59 162.802 2183.36 162.802 Q2186.23 162.802 2188.29 163.936 Q2190.35 165.07 2191.67 167.362 L2191.67 163.427 L2195.93 163.427 L2195.93 186.135 Z" fill="#000000" fill-rule="evenodd" fill-opacity="1" /><path clip-path="url(#clip180)" d="M 0 0 M2215.49 191.76 Q2213.69 196.39 2211.97 197.802 Q2210.26 199.214 2207.39 199.214 L2203.99 199.214 L2203.99 195.649 L2206.49 195.649 Q2208.25 195.649 2209.22 194.816 Q2210.19 193.982 2211.37 190.88 L2212.13 188.936 L2201.65 163.427 L2206.16 163.427 L2214.26 183.705 L2222.37 163.427 L2226.88 163.427 L2215.49 191.76 Z" fill="#000000" fill-rule="evenodd" fill-opacity="1" /></svg>
